{"glyphs":{"0":{"ha":806,"x_min":0,"x_max":0,"o":"m 403 1008 b 556 963 464 1008 515 993 b 656 845 597 933 631 894 b 709 679 681 797 698 741 b 725 490 720 617 725 554 b 709 302 725 426 720 364 b 656 137 698 241 681 185 b 556 19 631 88 597 49 b 403 -25 515 -10 464 -25 b 248 19 341 -25 289 -10 b 149 137 207 49 174 88 b 96 302 124 185 106 241 b 81 490 86 364 81 426 b 96 679 81 554 86 617 b 149 845 106 741 124 797 b 248 963 174 894 207 933 b 403 1008 289 993 341 1008 m 403 924 b 294 883 359 924 323 910 b 226 781 266 856 243 822 b 192 641 210 739 198 692 b 182 490 185 590 182 539 b 192 340 182 441 185 391 b 226 202 198 289 210 243 b 294 101 243 161 266 127 b 403 61 323 74 359 61 b 510 101 445 61 481 74 b 578 202 538 127 561 161 b 613 340 594 243 606 289 b 624 490 620 391 624 441 b 613 641 624 539 620 590 b 578 781 606 692 594 739 b 510 883 561 822 538 856 b 403 924 481 910 445 924 "},"1":{"ha":806,"x_min":0,"x_max":0,"o":"m 397 0 l 397 860 l 219 708 l 158 778 l 408 983 l 497 983 l 497 0 "},"2":{"ha":806,"x_min":0,"x_max":0,"o":"m 71 0 l 71 104 l 474 511 b 517 559 488 526 503 542 b 556 613 532 576 544 594 b 582 672 567 631 575 651 b 592 736 588 692 592 714 b 576 814 592 765 587 791 b 534 873 566 837 552 857 b 472 910 516 889 495 902 b 397 924 448 919 423 924 b 264 874 344 924 300 907 b 194 749 228 841 205 800 l 96 768 b 133 864 102 802 115 834 b 199 940 151 894 173 919 b 289 990 226 962 256 978 b 397 1008 322 1002 358 1008 b 510 991 437 1008 475 1003 b 604 940 546 979 577 962 b 669 855 631 917 653 889 b 693 738 685 821 693 782 b 680 650 693 706 689 677 b 645 574 671 623 659 598 b 594 505 631 550 614 527 b 533 440 575 483 555 462 l 179 89 l 700 89 l 700 0 "},"3":{"ha":806,"x_min":0,"x_max":0,"o":"m 340 558 b 429 568 372 558 401 562 b 502 599 457 575 481 585 b 551 656 523 614 539 632 b 569 739 563 679 569 706 b 554 815 569 767 564 792 b 512 873 544 837 530 857 b 449 910 494 889 473 902 b 375 924 426 919 401 924 b 265 894 333 924 297 914 b 188 808 233 875 207 846 l 103 853 b 219 970 133 906 172 945 b 381 1008 267 996 320 1008 b 491 991 419 1008 456 1003 b 583 940 526 979 556 963 b 645 858 609 918 630 891 b 668 744 660 825 668 787 b 619 598 668 686 652 637 b 497 519 587 559 546 532 l 497 517 b 639 435 554 505 601 478 b 696 272 677 393 696 339 b 670 147 696 225 687 183 b 601 53 653 110 630 79 b 501 -5 573 28 539 9 b 379 -25 462 -18 422 -25 b 190 27 307 -25 244 -8 b 68 176 137 62 96 112 l 163 211 b 246 101 179 164 207 127 b 379 61 285 74 329 61 b 460 76 407 61 434 66 b 530 117 487 85 510 99 b 578 183 550 135 566 157 b 596 272 590 209 596 239 b 574 366 596 309 589 341 b 517 428 560 391 541 412 b 435 462 493 444 465 455 b 340 472 404 469 373 472 l 297 472 l 297 558 "},"4":{"ha":806,"x_min":0,"x_max":0,"o":"m 750 325 l 750 238 l 606 238 l 606 0 l 508 0 l 508 238 l 58 238 l 58 335 l 475 983 l 606 983 l 606 325 m 506 871 l 163 325 l 508 325 l 508 871 "},"5":{"ha":806,"x_min":0,"x_max":0,"o":"m 250 894 l 243 590 b 310 607 264 598 287 603 b 379 613 334 611 357 613 b 507 590 425 613 468 605 b 608 527 546 575 580 554 b 675 429 637 500 659 467 b 699 304 691 391 699 350 b 675 173 699 257 691 213 b 608 69 659 133 637 98 b 505 0 580 40 545 17 b 372 -25 465 -17 420 -25 b 192 24 301 -25 241 -9 b 78 154 143 56 105 100 l 168 194 b 248 97 186 154 212 121 b 367 61 284 73 323 61 b 459 78 400 61 431 67 b 532 127 487 90 512 106 b 580 201 552 148 568 173 b 597 294 591 230 597 261 b 578 392 597 331 591 363 b 527 467 566 422 549 446 b 450 514 505 487 480 503 b 353 531 420 525 388 531 b 248 516 318 531 283 526 b 149 476 213 506 180 493 l 158 983 l 660 983 l 660 894 "},"6":{"ha":806,"x_min":0,"x_max":0,"o":"m 282 551 b 344 578 297 563 318 571 b 422 588 371 584 397 588 b 541 565 465 588 504 580 b 636 503 578 550 609 530 b 699 408 663 477 684 445 b 722 285 715 370 722 329 b 699 158 722 238 714 196 b 632 61 683 120 661 88 b 531 -2 603 34 569 13 b 403 -25 492 -17 449 -25 b 275 -2 356 -25 314 -17 b 174 61 236 13 202 34 b 107 158 145 88 123 120 b 83 285 91 196 83 238 b 110 426 83 336 92 383 b 172 551 127 470 148 512 l 440 983 l 556 983 l 279 554 m 183 285 b 199 195 183 252 189 222 b 244 124 210 168 225 144 b 314 77 264 104 287 89 b 403 60 341 66 370 60 b 492 77 435 60 465 66 b 561 124 519 89 542 104 b 606 195 581 144 596 168 b 622 285 617 222 622 252 b 607 373 622 316 617 346 b 563 444 597 400 582 424 b 494 490 544 464 521 479 b 403 507 466 501 436 507 b 312 490 369 507 339 501 b 242 444 284 479 261 464 b 199 373 223 424 209 400 b 183 285 188 346 183 316 "},"7":{"ha":806,"x_min":0,"x_max":0,"o":"m 296 0 l 183 0 l 590 894 l 108 894 l 108 983 l 692 983 l 692 892 "},"8":{"ha":806,"x_min":0,"x_max":0,"o":"m 532 521 b 665 428 586 505 630 474 b 718 258 700 381 718 325 b 692 141 718 215 709 176 b 624 52 675 106 652 77 b 523 -5 595 28 561 9 b 403 -25 484 -18 444 -25 b 283 -5 361 -25 321 -18 b 182 52 244 9 211 28 b 113 141 153 77 130 106 b 88 258 96 176 88 215 b 101 351 88 292 92 322 b 140 427 111 379 124 404 b 199 485 157 450 177 469 b 274 521 222 500 247 513 l 274 524 b 213 556 251 531 231 542 b 167 608 195 571 180 588 b 136 673 154 628 144 649 b 125 746 129 697 125 721 b 147 854 125 786 132 822 b 208 937 162 887 182 914 b 296 990 233 959 263 977 b 403 1008 329 1002 365 1008 b 509 990 440 1008 475 1002 b 598 937 543 977 572 959 b 658 854 623 914 644 887 b 681 746 673 822 681 786 b 669 673 681 721 677 697 b 639 608 662 649 652 628 b 592 556 626 588 610 571 b 532 524 574 542 554 531 l 532 521 m 222 740 b 236 669 222 714 227 691 b 275 614 245 648 258 630 b 333 577 292 598 311 586 b 403 564 354 568 378 564 b 473 577 428 564 451 568 b 531 614 495 586 514 598 b 569 669 547 630 560 648 b 583 740 579 691 583 714 b 569 813 583 766 579 791 b 531 872 560 836 547 855 b 474 910 515 888 496 900 b 403 924 453 919 429 924 b 331 910 377 924 353 919 b 274 872 309 900 291 888 b 236 813 258 855 245 836 b 222 740 227 791 222 766 m 188 269 b 203 186 188 240 193 212 b 247 119 213 160 228 138 b 315 76 266 101 288 86 b 403 60 341 65 370 60 b 491 76 435 60 465 65 b 559 119 517 86 540 101 b 603 186 578 138 593 160 b 618 269 613 212 618 240 b 603 351 618 299 613 326 b 559 417 593 376 578 398 b 491 460 540 435 517 450 b 403 475 465 470 435 475 b 315 460 370 475 341 470 b 247 417 288 450 266 435 b 203 351 228 398 213 376 b 188 269 193 326 188 299 "},"9":{"ha":806,"x_min":0,"x_max":0,"o":"m 526 432 b 464 406 512 421 491 412 b 386 396 437 399 411 396 b 267 418 344 396 304 403 b 172 480 231 433 199 453 b 109 576 145 506 124 538 b 86 699 94 613 86 654 b 110 824 86 744 94 786 b 176 922 125 863 148 895 b 278 985 205 949 239 970 b 406 1008 317 1001 359 1008 b 533 985 452 1008 494 1001 b 635 922 572 970 606 949 b 701 824 663 895 686 863 b 725 699 717 786 725 744 b 699 557 725 648 716 600 b 636 432 681 513 660 472 l 368 0 l 253 0 l 529 429 m 625 699 b 609 788 625 730 620 760 b 564 859 598 815 583 839 b 494 906 544 879 521 895 b 406 924 468 918 438 924 b 317 906 373 924 344 918 b 247 859 290 895 267 879 b 202 788 228 839 213 815 b 186 699 191 760 186 730 b 201 610 186 667 191 638 b 245 540 212 583 226 559 b 315 493 264 520 287 504 b 406 476 342 482 372 476 b 497 493 439 476 469 482 b 566 540 524 504 547 520 b 610 610 585 559 600 583 b 625 699 620 638 625 667 "},"\u0000":{"ha":694,"x_min":0,"x_max":0,"o":""},"\r":{"ha":0,"x_min":0,"x_max":0,"o":""}," ":{"ha":347,"x_min":0,"x_max":0,"o":""},"!":{"ha":456,"x_min":0,"x_max":0,"o":"m 178 267 l 178 983 l 278 983 l 278 267 m 303 67 b 282 15 303 47 296 30 b 228 -8 268 -1 250 -8 b 174 15 206 -8 188 -1 b 153 67 160 30 153 47 b 174 119 153 86 160 103 b 228 142 188 134 206 142 b 282 119 250 142 268 134 b 303 67 296 103 303 86 "},"\"":{"ha":563,"x_min":0,"x_max":0,"o":"m 222 983 l 222 657 l 139 657 l 139 983 m 424 983 l 424 657 l 340 657 l 340 983 "},"#":{"ha":772,"x_min":0,"x_max":0,"o":"m 49 297 l 49 381 l 201 381 l 232 606 l 82 606 l 82 689 l 244 689 l 285 983 l 369 983 l 329 689 l 514 689 l 554 983 l 639 983 l 599 689 l 724 689 l 724 606 l 586 606 l 556 381 l 688 381 l 688 297 l 544 297 l 503 0 l 418 0 l 460 297 l 275 297 l 233 0 l 149 0 l 190 297 m 471 381 l 501 606 l 317 606 l 286 381 "},"$":{"ha":806,"x_min":0,"x_max":0,"o":"m 365 922 b 243 872 317 920 276 903 b 193 744 210 840 193 797 b 240 627 193 694 209 655 b 365 564 272 599 313 578 l 365 922 m 432 64 b 495 76 452 65 473 69 b 554 108 517 83 537 94 b 597 166 572 123 586 142 b 614 253 608 190 614 219 b 563 372 614 300 597 340 b 432 446 528 405 485 429 l 432 64 m 365 463 b 270 497 334 472 302 483 b 184 550 238 511 209 529 b 122 627 159 571 138 597 b 97 736 105 657 97 694 b 119 844 97 776 104 812 b 177 926 133 876 153 903 b 263 978 202 948 230 966 b 365 1000 295 991 329 998 l 365 1100 l 432 1100 l 432 1000 b 501 992 454 999 477 996 b 570 971 524 987 547 980 b 635 936 593 962 614 950 b 689 888 655 922 673 906 l 613 829 b 531 898 591 860 564 883 b 432 922 498 913 465 921 l 432 540 b 535 499 467 528 502 515 b 626 442 569 484 599 465 b 690 361 652 420 673 393 b 714 246 706 330 714 291 b 692 140 714 207 707 172 b 633 58 678 108 658 80 b 543 4 607 35 577 17 b 432 -17 509 -9 472 -16 l 432 -117 l 365 -117 l 365 -17 b 197 26 302 -15 246 0 b 72 131 147 53 106 88 l 151 186 b 197 132 163 165 179 147 b 255 94 216 117 235 105 b 314 72 275 84 294 77 b 365 64 333 66 350 64 l 365 463 "},"%":{"ha":1157,"x_min":0,"x_max":0,"o":"m 542 757 b 523 661 542 723 535 691 b 471 584 510 631 493 606 b 393 533 449 562 423 545 b 297 514 363 520 331 514 b 201 533 263 514 231 520 b 124 584 172 545 146 562 b 72 661 101 606 84 631 b 53 757 59 691 53 723 b 72 853 53 791 59 823 b 124 930 84 882 101 908 b 201 981 146 952 172 969 b 297 1000 231 994 263 1000 b 393 981 331 1000 363 994 b 471 930 423 969 449 952 b 523 853 493 908 510 882 b 542 757 535 823 542 791 m 458 757 b 445 821 458 780 454 801 b 410 872 436 840 425 857 b 360 905 396 886 379 897 b 297 917 340 913 319 917 b 235 905 275 917 254 913 b 184 872 215 897 198 886 b 149 821 170 857 158 840 b 136 757 141 801 136 780 b 149 693 136 734 141 713 b 184 642 158 674 170 657 b 235 609 198 628 215 617 b 297 597 254 601 275 597 b 360 609 319 597 340 601 b 410 642 379 617 396 628 b 445 693 425 657 436 674 b 458 757 454 713 458 734 m 1104 226 b 1085 131 1104 192 1098 160 b 1033 53 1073 101 1056 75 b 956 2 1011 32 985 15 b 860 -17 926 -10 894 -17 b 764 2 825 -17 794 -10 b 686 53 734 15 708 32 b 634 131 664 75 647 101 b 615 226 622 160 615 192 b 634 322 615 261 622 293 b 686 399 647 352 664 378 b 764 451 708 421 734 438 b 860 469 794 463 825 469 b 956 451 894 469 926 463 b 1033 399 985 438 1011 421 b 1085 322 1056 378 1073 352 b 1104 226 1098 293 1104 261 m 1021 226 b 1008 290 1021 250 1016 271 b 973 341 999 310 987 327 b 922 374 959 355 942 366 b 860 386 903 382 882 386 b 797 374 838 386 817 382 b 747 341 778 366 761 355 b 712 290 732 327 721 310 b 699 226 703 271 699 250 b 712 163 699 203 703 182 b 747 112 721 143 732 126 b 797 78 761 97 778 86 b 860 67 817 71 838 67 b 922 78 882 67 903 71 b 973 112 942 86 959 97 b 1008 163 987 126 999 143 b 1021 226 1016 182 1021 203 m 229 -6 l 856 1026 l 926 989 l 301 -43 "},"&":{"ha":978,"x_min":0,"x_max":0,"o":"m 956 0 l 817 0 l 678 146 b 546 23 637 90 593 49 b 375 -17 499 -3 442 -17 b 256 1 333 -17 294 -11 b 158 53 219 13 186 31 b 92 138 131 76 109 104 b 68 256 76 172 68 211 b 85 356 68 293 74 326 b 133 435 97 385 113 412 b 206 499 154 459 178 480 b 296 547 233 517 263 533 b 252 596 281 562 266 578 b 214 651 238 613 225 632 b 187 711 203 670 194 690 b 176 776 180 732 176 754 b 196 875 176 813 183 846 b 249 948 209 904 226 928 b 326 993 271 968 297 983 b 421 1008 356 1003 388 1008 b 513 994 453 1008 484 1003 b 588 951 541 984 566 970 b 640 881 610 932 627 909 b 658 788 652 854 658 823 b 640 700 658 755 652 726 b 590 630 627 674 610 651 b 519 574 569 609 545 591 b 438 529 492 558 465 543 l 667 293 l 803 532 l 915 532 l 735 228 m 561 788 b 522 888 561 828 548 862 b 422 926 495 913 462 926 b 315 885 379 926 343 913 b 274 775 288 858 274 821 b 285 720 274 757 277 739 b 313 667 292 701 301 683 b 348 621 324 650 335 635 b 381 589 360 607 371 596 b 446 623 403 599 425 610 b 503 665 467 635 486 650 b 545 719 521 681 534 699 b 561 788 556 740 561 763 m 351 483 b 217 388 292 456 247 425 b 171 254 186 352 171 307 b 187 178 171 226 176 201 b 231 119 197 155 212 135 b 297 81 250 103 272 90 b 376 67 322 71 349 67 b 510 103 430 67 475 79 b 611 211 546 127 580 163 l 351 483 "},"'":{"ha":361,"x_min":0,"x_max":0,"o":"m 222 983 l 222 657 l 139 657 l 139 983 "},"(":{"ha":417,"x_min":0,"x_max":0,"o":"m 136 400 b 150 240 136 346 141 293 b 188 88 159 187 172 137 b 246 -53 204 38 224 -8 b 319 -175 268 -97 293 -138 l 247 -221 b 166 -92 218 -182 191 -139 b 102 58 141 -46 120 4 b 60 224 84 111 70 166 b 44 400 50 281 44 340 b 60 576 44 459 50 518 b 102 742 70 634 84 689 b 166 892 120 796 141 846 b 247 1021 191 939 218 982 l 319 975 b 246 853 293 938 268 897 b 188 713 224 808 204 762 b 150 560 172 663 159 613 b 136 400 141 507 136 454 "},")":{"ha":417,"x_min":0,"x_max":0,"o":"m 281 400 b 267 560 281 454 276 507 b 228 713 257 613 245 663 b 170 853 212 762 193 808 b 97 975 147 897 123 938 l 169 1021 b 250 892 198 982 225 939 b 315 742 275 846 297 796 b 357 576 333 689 347 634 b 372 400 367 518 372 459 b 357 224 372 340 367 281 b 315 58 347 166 333 111 b 250 -92 297 4 275 -46 b 169 -221 225 -139 198 -182 l 97 -175 b 170 -53 123 -138 147 -97 b 228 88 193 -8 212 38 b 267 240 245 137 257 188 b 281 400 276 293 281 346 "},"*":{"ha":617,"x_min":0,"x_max":0,"o":"m 544 847 l 574 769 l 378 707 l 503 539 l 436 489 l 308 661 l 181 489 l 114 539 l 239 707 l 43 769 l 72 847 l 267 785 l 267 983 l 350 983 l 350 785 "},"+":{"ha":925,"x_min":0,"x_max":0,"o":"m 817 463 l 817 379 l 504 379 l 504 67 l 421 67 l 421 379 l 108 379 l 108 463 l 421 463 l 421 775 l 504 775 l 504 463 "},",":{"ha":361,"x_min":0,"x_max":0,"o":"m 63 -194 l 156 132 l 254 132 l 142 -194 "},"-":{"ha":444,"x_min":0,"x_max":0,"o":"m 67 297 l 67 376 l 378 376 l 378 297 "},".":{"ha":361,"x_min":0,"x_max":0,"o":"m 256 67 b 235 15 256 47 249 30 b 181 -8 221 -1 203 -8 b 126 15 158 -8 140 -1 b 106 67 113 30 106 47 b 126 119 106 86 113 103 b 181 142 140 134 158 142 b 235 119 203 142 221 134 b 256 67 249 103 256 86 "},"/":{"ha":514,"x_min":0,"x_max":0,"o":"m 7 1 l 428 1008 l 507 981 l 88 -25 "},":":{"ha":417,"x_min":0,"x_max":0,"o":"m 283 583 b 263 531 283 564 276 547 b 208 508 249 516 231 508 b 154 531 186 508 168 516 b 133 583 140 547 133 564 b 154 635 133 603 140 620 b 208 658 168 651 186 658 b 263 635 231 658 249 651 b 283 583 276 620 283 603 m 283 67 b 263 15 283 47 276 30 b 208 -8 249 -1 231 -8 b 154 15 186 -8 168 -1 b 133 67 140 30 133 47 b 154 119 133 86 140 103 b 208 142 168 134 186 142 b 263 119 231 142 249 134 b 283 67 276 103 283 86 "},";":{"ha":417,"x_min":0,"x_max":0,"o":"m 283 583 b 263 531 283 564 276 547 b 208 508 249 516 231 508 b 154 531 186 508 168 516 b 133 583 140 547 133 564 b 154 635 133 603 140 620 b 208 658 168 651 186 658 b 263 635 231 658 249 651 b 283 583 276 620 283 603 m 81 -194 l 174 132 l 276 132 l 164 -194 "},"<":{"ha":925,"x_min":0,"x_max":0,"o":"m 221 421 l 817 142 l 817 58 l 108 389 l 108 453 l 817 783 l 817 700 "},"=":{"ha":925,"x_min":0,"x_max":0,"o":"m 817 483 l 108 483 l 108 567 l 817 567 m 817 275 l 108 275 l 108 358 l 817 358 "},">":{"ha":925,"x_min":0,"x_max":0,"o":"m 817 453 l 817 389 l 108 58 l 108 142 l 704 421 l 108 700 l 108 783 "},"?":{"ha":669,"x_min":0,"x_max":0,"o":"m 283 267 l 283 350 b 292 420 283 376 286 399 b 317 476 298 441 307 460 b 353 522 328 493 340 508 b 394 561 367 535 381 548 l 433 596 b 491 660 456 614 476 636 b 514 750 506 684 514 714 b 500 819 514 776 509 799 b 463 871 491 840 478 857 b 408 903 447 885 428 895 b 340 914 387 910 364 914 b 219 868 290 914 250 899 b 161 751 188 838 169 799 l 67 768 b 162 938 81 840 112 897 b 344 1000 211 979 272 1000 b 449 984 381 1000 416 995 b 535 937 482 973 511 958 b 592 860 559 916 578 890 b 614 756 607 829 614 794 b 604 678 614 726 611 700 b 577 618 598 656 589 636 b 536 570 566 600 552 584 b 486 526 520 556 504 541 b 437 483 467 511 450 496 b 404 442 423 470 413 457 b 386 394 396 428 390 412 b 381 331 382 377 381 356 l 381 267 m 417 67 b 396 15 417 47 410 30 b 342 -8 382 -1 364 -8 b 288 15 319 -8 301 -1 b 267 67 274 30 267 47 b 288 119 267 86 274 103 b 342 142 301 134 319 142 b 396 119 364 142 382 134 b 417 67 410 103 417 86 "},"@":{"ha":1111,"x_min":0,"x_max":0,"o":"m 572 679 b 499 658 544 679 520 672 b 446 603 478 643 461 625 b 413 528 431 581 420 556 b 401 446 405 500 401 473 b 406 401 401 433 403 418 b 424 354 409 385 415 369 b 458 317 432 339 443 327 b 513 303 472 308 490 303 b 593 326 544 303 571 311 b 647 385 615 342 633 362 b 678 461 661 409 671 434 b 688 536 684 488 688 513 b 682 588 688 554 686 571 b 663 634 678 605 672 621 b 628 667 654 647 643 658 b 572 679 613 675 594 679 m 1015 140 b 823 16 961 85 897 43 b 579 -25 749 -11 668 -25 b 362 13 500 -25 427 -12 b 194 119 297 39 241 74 b 87 283 148 165 112 219 b 49 490 61 346 49 415 b 90 696 49 564 63 633 b 204 860 118 759 156 813 b 373 969 252 906 309 942 b 579 1008 437 995 506 1008 b 763 981 642 1008 703 999 b 920 897 822 962 874 934 b 1030 758 966 860 1003 814 b 1071 563 1057 703 1071 638 b 1049 415 1071 507 1063 458 b 990 308 1034 373 1014 337 b 904 244 965 280 937 258 b 801 222 872 229 838 222 b 710 253 760 222 729 232 b 681 324 690 273 681 297 l 675 324 b 653 291 670 313 663 303 b 615 258 643 279 630 269 b 565 233 600 248 584 240 b 501 222 546 226 525 222 b 417 240 470 222 442 228 b 353 287 392 251 371 267 b 314 359 336 307 323 331 b 300 451 305 387 300 418 b 319 566 300 490 306 528 b 374 666 332 603 351 637 b 461 736 398 695 427 719 b 576 763 495 754 534 763 b 667 738 612 763 642 754 b 721 679 693 722 711 702 l 726 679 l 740 742 l 826 742 l 771 483 b 766 459 769 477 767 469 b 761 428 765 449 763 439 b 757 397 759 418 758 407 b 756 372 756 387 756 379 b 758 348 756 364 756 356 b 767 326 759 340 762 333 b 788 309 772 319 779 313 b 824 303 797 305 809 303 b 887 322 847 303 868 309 b 935 375 906 335 922 353 b 967 454 949 397 959 424 b 978 553 974 485 978 518 b 948 712 978 613 968 666 b 865 828 928 758 900 796 b 738 899 829 859 787 883 b 578 922 690 914 636 922 b 404 889 514 922 456 911 b 270 797 352 867 308 836 b 183 659 233 758 204 712 b 153 486 163 606 153 548 b 185 308 153 420 163 361 b 274 174 206 256 236 211 b 412 88 313 137 359 108 b 589 58 465 68 524 58 b 803 97 671 58 743 71 b 964 204 863 122 917 158 l 1015 140 "},"A":{"ha":972,"x_min":0,"x_max":0,"o":"m 14 0 l 439 983 l 536 983 l 958 0 l 847 0 l 739 258 l 231 258 l 124 0 m 701 350 l 485 872 l 268 350 "},"B":{"ha":883,"x_min":0,"x_max":0,"o":"m 424 983 b 536 972 461 983 498 979 b 638 931 574 964 608 950 b 712 854 668 912 693 887 b 740 732 731 822 740 781 b 693 597 740 680 725 635 b 567 521 662 558 619 533 l 567 518 b 726 444 631 511 684 486 b 789 272 768 402 789 344 b 763 160 789 231 780 194 b 690 74 746 127 722 98 b 575 19 659 51 620 32 b 422 0 530 6 479 0 l 131 0 l 131 983 m 432 553 b 505 561 456 553 480 556 b 572 590 529 567 552 576 b 622 643 593 603 609 621 b 640 725 634 665 640 693 b 622 805 640 756 634 783 b 571 858 609 827 592 844 b 496 888 550 872 525 882 b 404 897 467 894 437 897 l 231 897 l 231 553 m 417 86 b 520 97 453 86 487 90 b 606 130 553 103 582 115 b 665 190 631 145 650 165 b 688 278 680 214 688 244 b 622 423 688 343 666 391 b 435 471 578 455 515 471 l 231 471 l 231 86 "},"C":{"ha":1000,"x_min":0,"x_max":0,"o":"m 958 158 b 898 88 942 133 922 110 b 816 29 874 65 847 46 b 713 -10 785 13 751 -1 b 590 -25 676 -20 635 -25 b 385 14 516 -25 448 -12 b 222 122 322 40 268 76 b 116 285 177 167 141 222 b 78 492 91 348 78 417 b 117 699 78 567 91 636 b 224 862 143 762 178 816 b 387 969 270 908 324 944 b 590 1008 449 995 517 1008 b 697 997 626 1008 662 1005 b 794 966 731 990 764 979 b 878 917 825 953 853 936 b 940 853 903 898 924 877 l 857 792 b 816 839 847 807 833 823 b 756 881 799 855 779 869 b 680 910 732 893 707 902 b 592 921 653 917 623 921 b 420 886 528 921 471 909 b 292 792 370 863 327 832 b 211 656 256 753 230 707 b 183 492 193 604 183 549 b 212 328 183 434 193 380 b 293 191 231 276 258 230 b 422 97 328 152 371 120 b 592 63 472 74 529 62 b 753 97 648 63 702 74 b 881 208 804 120 846 157 l 958 158 "},"D":{"ha":1051,"x_min":0,"x_max":0,"o":"m 457 983 b 641 953 518 983 579 973 b 808 860 703 932 758 902 b 928 706 857 819 897 768 b 974 492 958 645 974 573 b 928 276 974 409 958 338 b 808 123 897 215 857 164 b 641 31 758 82 703 51 b 457 0 579 10 518 0 l 131 0 l 131 983 m 429 89 b 623 124 503 89 568 100 b 760 215 678 147 724 177 b 841 343 796 252 823 295 b 868 492 859 391 868 441 b 841 640 868 543 859 592 b 760 769 823 688 796 731 b 623 860 724 806 678 837 b 429 894 568 883 503 894 l 231 894 l 231 89 "},"E":{"ha":822,"x_min":0,"x_max":0,"o":"m 757 89 l 757 0 l 131 0 l 131 983 l 740 983 l 740 894 l 231 894 l 231 556 l 707 556 l 707 468 l 231 468 l 231 89 "},"F":{"ha":781,"x_min":0,"x_max":0,"o":"m 131 0 l 131 983 l 724 983 l 724 894 l 231 894 l 231 553 l 689 553 l 689 465 l 231 465 l 231 0 "},"G":{"ha":1082,"x_min":0,"x_max":0,"o":"m 876 807 b 754 891 842 843 801 871 b 592 921 707 911 653 921 b 422 886 529 921 472 909 b 293 792 371 863 328 832 b 212 656 258 753 231 707 b 183 492 193 604 183 549 b 212 328 183 434 193 380 b 293 192 231 276 258 231 b 422 99 328 153 371 122 b 592 64 472 75 529 64 b 744 82 647 64 698 70 b 857 128 791 94 828 109 l 857 426 l 628 426 l 628 514 l 957 514 l 957 71 b 783 -1 903 38 845 14 b 590 -25 721 -17 657 -25 b 385 14 516 -25 448 -12 b 222 122 322 40 268 76 b 116 285 177 167 141 222 b 78 492 91 348 78 417 b 117 699 78 567 91 636 b 224 862 143 762 178 816 b 387 969 270 908 324 944 b 590 1008 449 995 517 1008 b 796 974 669 1008 738 997 b 946 876 854 950 904 918 l 876 807 "},"H":{"ha":997,"x_min":0,"x_max":0,"o":"m 231 983 l 231 557 l 767 557 l 767 983 l 867 983 l 867 0 l 767 0 l 767 465 l 231 465 l 231 0 l 131 0 l 131 983 "},"I":{"ha":361,"x_min":0,"x_max":0,"o":"m 131 0 l 131 983 l 231 983 l 231 0 "},"J":{"ha":683,"x_min":0,"x_max":0,"o":"m 128 200 b 180 102 135 161 153 128 b 288 63 207 76 243 63 b 372 81 322 63 350 69 b 426 132 394 94 412 111 b 453 205 439 153 448 178 b 461 290 459 232 461 261 l 461 983 l 561 983 l 561 283 b 551 181 561 251 558 217 b 511 81 544 144 531 111 b 431 5 492 50 465 25 b 299 -25 396 -15 352 -25 b 122 31 227 -25 169 -6 b 35 175 76 69 47 117 l 128 200 "},"K":{"ha":872,"x_min":0,"x_max":0,"o":"m 232 542 l 700 983 l 843 983 l 347 538 l 871 0 l 724 0 l 232 524 l 231 524 l 231 0 l 131 0 l 131 983 l 231 983 l 231 542 "},"L":{"ha":708,"x_min":0,"x_max":0,"o":"m 689 89 l 689 0 l 131 0 l 131 983 l 231 983 l 231 89 "},"M":{"ha":1231,"x_min":0,"x_max":0,"o":"m 618 169 l 947 983 l 1100 983 l 1100 0 l 1000 0 l 1000 854 l 997 854 l 642 0 l 589 0 l 233 854 l 231 854 l 231 0 l 131 0 l 131 983 l 283 983 l 617 169 "},"N":{"ha":1061,"x_min":0,"x_max":0,"o":"m 831 146 l 831 983 l 931 983 l 931 0 l 806 0 l 233 846 l 231 846 l 231 0 l 131 0 l 131 983 l 256 983 l 828 146 "},"O":{"ha":1181,"x_min":0,"x_max":0,"o":"m 1103 492 b 1064 285 1103 417 1090 348 b 956 122 1038 222 1002 167 b 794 14 910 76 856 40 b 590 -25 731 -12 663 -25 b 387 14 517 -25 449 -12 b 224 122 324 40 270 76 b 117 285 178 167 143 222 b 78 492 91 348 78 417 b 117 699 78 567 91 636 b 224 862 143 762 178 816 b 387 969 270 908 324 944 b 590 1008 449 995 517 1008 b 794 969 663 1008 731 995 b 956 862 856 944 910 908 b 1064 699 1002 816 1038 762 b 1103 492 1090 636 1103 567 m 997 492 b 969 656 997 549 988 604 b 889 792 951 707 924 753 b 760 886 854 832 811 863 b 590 921 710 909 653 921 b 420 886 527 921 471 909 b 292 792 370 863 327 832 b 211 656 256 753 230 707 b 183 492 193 604 183 549 b 211 328 183 434 193 380 b 292 192 230 276 256 231 b 420 99 327 153 370 122 b 590 64 471 75 527 64 b 760 99 653 64 710 75 b 889 192 811 122 854 153 b 969 328 924 231 951 276 b 997 492 988 380 997 434 "},"P":{"ha":806,"x_min":0,"x_max":0,"o":"m 408 983 b 544 967 458 983 504 978 b 649 919 585 957 620 941 b 717 837 678 897 701 870 b 740 721 732 804 740 765 b 716 605 740 676 732 638 b 648 523 700 572 677 545 b 542 474 619 501 584 485 b 406 457 501 463 456 457 l 231 457 l 231 0 l 131 0 l 131 983 m 400 542 b 579 588 479 542 538 557 b 640 721 620 618 640 663 b 577 855 640 782 619 827 b 400 897 535 883 476 897 l 231 897 l 231 542 "},"Q":{"ha":1171,"x_min":0,"x_max":0,"o":"m 183 504 b 210 346 183 449 192 396 b 288 213 228 296 254 252 b 410 122 321 175 362 144 b 575 88 459 99 514 88 b 738 122 635 88 690 99 b 862 213 787 144 828 175 b 940 346 896 252 922 296 b 968 504 959 396 968 449 b 940 663 968 560 959 613 b 862 795 922 713 896 757 b 738 887 828 834 787 864 b 575 921 690 909 635 921 b 410 887 514 921 459 909 b 288 795 362 864 321 834 b 210 663 254 757 228 713 b 183 504 192 613 183 560 m 575 0 b 377 38 504 0 438 13 b 219 142 316 63 264 97 b 115 302 175 187 140 241 b 78 504 90 364 78 431 b 115 706 78 577 90 645 b 219 866 140 768 175 821 b 377 971 264 911 316 946 b 575 1008 438 996 504 1008 b 772 971 645 1008 711 996 b 929 866 832 946 885 911 b 1033 706 974 821 1008 768 b 1071 504 1058 645 1071 577 b 1013 266 1071 417 1052 338 b 840 92 975 194 917 136 l 840 89 l 1138 89 l 1138 0 "},"R":{"ha":832,"x_min":0,"x_max":0,"o":"m 131 0 l 131 983 l 419 983 b 553 969 468 983 512 979 b 660 924 595 960 630 945 b 731 843 691 903 714 876 b 756 721 747 810 756 769 b 736 622 756 685 749 652 b 683 545 723 593 706 567 b 604 493 661 523 635 506 b 504 468 574 480 540 472 l 792 0 l 669 0 l 397 460 l 231 460 l 231 0 m 404 546 b 590 590 485 546 547 560 b 656 721 634 619 656 663 b 638 803 656 753 650 781 b 588 857 625 825 609 843 b 510 888 566 871 540 881 b 408 897 479 894 445 897 l 231 897 l 231 546 "},"S":{"ha":783,"x_min":0,"x_max":0,"o":"m 607 825 b 525 897 586 855 558 878 b 404 924 492 915 451 924 b 331 913 380 924 356 920 b 263 878 306 905 283 894 b 213 821 242 863 226 844 b 194 739 201 798 194 770 b 213 661 194 707 200 681 b 260 609 225 641 241 623 b 328 574 280 595 303 583 b 408 546 354 564 381 555 b 512 510 443 535 477 523 b 606 459 547 497 578 480 b 674 380 633 438 656 412 b 700 258 691 348 700 307 b 672 131 700 209 691 167 b 598 43 653 96 628 66 b 495 -8 568 20 534 3 b 379 -25 457 -19 418 -25 b 290 -16 350 -25 320 -22 b 206 11 261 -10 232 -1 b 131 57 179 23 154 38 b 69 121 107 75 87 97 l 156 185 b 245 97 177 150 207 120 b 381 61 284 73 329 61 b 457 73 406 61 431 65 b 527 109 483 81 506 93 b 578 169 548 125 565 145 b 599 251 592 192 599 220 b 578 337 599 286 592 314 b 525 394 565 359 547 378 b 449 432 503 409 477 422 b 358 463 420 442 390 452 b 263 497 326 473 294 484 b 178 548 231 510 203 527 b 117 625 153 569 133 594 b 94 738 102 656 94 693 b 123 860 94 785 104 825 b 197 944 142 894 167 922 b 299 993 228 967 262 983 b 408 1008 336 1003 372 1008 b 579 973 475 1008 532 997 b 686 889 626 949 662 921 l 607 825 "},"T":{"ha":792,"x_min":0,"x_max":0,"o":"m 346 0 l 346 894 l 17 894 l 17 983 l 775 983 l 775 894 l 446 894 l 446 0 "},"U":{"ha":986,"x_min":0,"x_max":0,"o":"m 493 -25 b 311 13 419 -25 358 -12 b 199 110 264 39 226 71 b 141 237 171 149 152 191 b 125 367 130 283 125 326 l 125 983 l 225 983 l 225 378 b 239 262 225 338 230 299 b 284 162 248 224 263 191 b 367 91 305 133 332 109 b 493 64 401 73 443 64 b 619 91 543 64 585 73 b 702 162 654 109 681 133 b 747 262 723 191 738 224 b 761 378 756 299 761 338 l 761 983 l 861 983 l 861 367 b 845 237 861 326 856 283 b 788 110 834 191 815 149 b 674 13 760 71 722 39 b 493 -25 627 -12 566 -25 "},"V":{"ha":865,"x_min":0,"x_max":0,"o":"m 435 129 l 754 983 l 861 983 l 485 0 l 379 0 l 4 983 l 113 983 l 432 129 "},"W":{"ha":1350,"x_min":0,"x_max":0,"o":"m 371 138 l 617 983 l 736 983 l 982 138 l 985 138 l 1225 983 l 1331 983 l 1040 0 l 924 0 l 676 844 l 674 844 l 426 0 l 310 0 l 19 983 l 125 983 l 368 138 "},"X":{"ha":901,"x_min":0,"x_max":0,"o":"m 721 983 l 840 983 l 514 515 l 875 0 l 750 0 l 450 443 l 151 0 l 26 0 l 388 517 l 58 983 l 183 983 l 453 586 "},"Y":{"ha":836,"x_min":0,"x_max":0,"o":"m 368 0 l 368 424 l 0 983 l 125 983 l 421 507 l 719 983 l 836 983 l 468 424 l 468 0 "},"Z":{"ha":794,"x_min":0,"x_max":0,"o":"m 169 89 l 751 89 l 751 0 l 43 0 l 43 83 l 618 894 l 58 894 l 58 983 l 743 983 l 743 900 "},"[":{"ha":417,"x_min":0,"x_max":0,"o":"m 172 942 l 172 -142 l 306 -142 l 306 -217 l 81 -217 l 81 1017 l 306 1017 l 306 942 "},"\\":{"ha":514,"x_min":0,"x_max":0,"o":"m 86 1008 l 507 1 l 426 -25 l 7 981 "},"]":{"ha":417,"x_min":0,"x_max":0,"o":"m 244 -142 l 244 942 l 111 942 l 111 1017 l 336 1017 l 336 -217 l 111 -217 l 111 -142 "},"^":{"ha":925,"x_min":0,"x_max":0,"o":"m 496 983 l 814 382 l 728 382 l 463 883 l 197 382 l 111 382 l 429 983 "},"_":{"ha":694,"x_min":0,"x_max":0,"o":"m 694 -104 l 694 -174 l 0 -174 l 0 -104 "},"`":{"ha":333,"x_min":0,"x_max":0,"o":"m 113 983 l 251 783 l 169 783 l -14 983 "},"a":{"ha":742,"x_min":0,"x_max":0,"o":"m 535 419 b 490 546 535 476 520 518 b 361 588 461 574 418 588 b 253 567 322 588 286 581 b 168 511 219 553 191 534 l 115 574 b 222 640 142 600 178 623 b 371 667 266 658 315 667 b 469 652 406 667 439 662 b 550 608 500 642 527 628 b 604 535 573 589 591 564 b 624 431 617 505 624 470 l 624 146 b 626 68 624 121 625 95 b 635 0 628 41 631 19 l 550 0 b 543 51 547 16 545 33 b 540 106 541 70 540 88 l 538 106 b 437 12 508 62 474 31 b 301 -17 399 -7 354 -17 b 224 -6 276 -17 251 -13 b 152 28 198 1 174 12 b 98 89 130 44 112 64 b 76 181 84 114 76 144 b 115 299 76 231 89 270 b 217 365 140 328 174 350 b 363 392 259 379 308 388 b 535 399 418 397 475 399 l 535 419 m 507 325 b 390 320 468 325 429 323 b 283 301 350 317 315 310 b 204 258 251 291 225 277 b 174 185 184 240 174 215 b 187 126 174 162 178 142 b 222 88 196 111 207 98 b 272 67 237 78 253 72 b 326 61 290 63 308 61 b 415 78 360 61 389 67 b 481 126 441 90 463 106 b 521 194 498 146 512 169 b 535 276 530 220 535 248 l 535 325 l 507 325 "},"b":{"ha":885,"x_min":0,"x_max":0,"o":"m 222 0 l 128 0 l 128 1050 l 222 1050 l 222 538 l 225 538 b 333 634 253 580 289 612 b 471 667 378 656 424 667 b 609 640 522 667 568 658 b 715 568 650 623 685 599 b 783 460 744 538 766 501 b 807 325 799 418 807 373 b 783 190 807 277 799 232 b 715 82 766 149 744 113 b 609 10 685 51 650 27 b 471 -17 568 -8 522 -17 b 333 15 424 -17 378 -6 b 225 110 289 37 253 68 l 222 110 m 707 325 b 690 427 707 361 701 395 b 642 510 679 459 663 487 b 565 567 622 534 596 553 b 461 588 535 581 500 588 b 361 567 425 588 392 581 b 282 512 331 554 304 535 b 230 428 260 488 242 460 b 211 325 217 397 211 362 b 230 222 211 288 217 253 b 282 139 242 190 260 162 b 361 84 304 116 331 97 b 461 64 392 71 425 64 b 565 84 500 64 535 71 b 642 140 596 97 622 116 b 690 223 663 163 679 191 b 707 325 701 255 707 289 "},"c":{"ha":694,"x_min":0,"x_max":0,"o":"m 593 501 b 524 563 577 526 554 547 b 426 588 494 579 462 588 b 324 567 388 588 354 581 b 245 512 293 554 267 535 b 195 428 223 488 207 460 b 178 325 184 397 178 362 b 195 222 178 288 184 254 b 244 140 207 191 223 163 b 322 84 266 116 292 97 b 425 64 353 71 387 64 b 531 88 467 64 502 72 b 601 149 559 103 583 124 l 672 96 b 570 14 644 62 610 34 b 425 -17 530 -6 481 -17 b 282 9 372 -17 325 -8 b 173 81 239 26 203 50 b 103 189 143 111 119 147 b 78 325 86 231 78 276 b 103 461 78 374 86 419 b 173 569 119 503 143 539 b 282 641 203 600 239 624 b 425 667 325 658 372 667 b 558 638 469 667 513 657 b 667 554 603 619 639 591 l 593 501 "},"d":{"ha":885,"x_min":0,"x_max":0,"o":"m 660 110 b 551 15 632 68 596 37 b 414 -17 507 -6 461 -17 b 276 10 363 -17 317 -8 b 170 82 234 27 199 51 b 102 190 141 113 118 149 b 78 325 86 232 78 277 b 102 460 78 373 86 418 b 170 568 118 501 141 538 b 276 640 199 599 234 623 b 414 667 317 658 363 667 b 551 634 461 667 507 656 b 660 538 596 612 632 580 l 663 538 l 663 1050 l 757 1050 l 757 0 l 663 0 l 663 110 l 660 110 m 178 325 b 194 223 178 289 183 255 b 242 140 206 191 222 163 b 319 84 263 116 289 97 b 424 64 350 71 385 64 b 524 84 460 64 493 71 b 603 139 554 97 581 116 b 655 222 625 162 642 190 b 674 325 667 253 674 288 b 655 428 674 362 667 397 b 603 512 642 460 625 488 b 524 567 581 535 554 554 b 424 588 493 581 460 588 b 319 567 385 588 350 581 b 242 510 289 553 263 534 b 194 427 222 487 206 459 b 178 325 183 395 178 361 "},"e":{"ha":794,"x_min":0,"x_max":0,"o":"m 621 375 b 562 527 618 436 598 487 b 406 588 525 567 473 588 b 318 570 374 588 345 582 b 247 523 291 559 268 543 b 199 455 227 503 211 480 b 178 375 187 429 180 403 l 621 375 m 717 324 b 715 300 717 316 716 308 l 176 300 b 196 208 177 268 184 237 b 246 133 208 180 225 155 b 321 83 267 112 292 95 b 414 64 350 70 381 64 b 541 98 463 64 505 75 b 622 176 577 121 604 147 l 693 121 b 565 15 654 72 611 37 b 414 -17 518 -6 468 -17 b 280 9 366 -17 321 -8 b 174 81 239 26 203 50 b 103 189 144 111 121 147 b 78 325 86 231 78 276 b 103 461 78 374 86 419 b 172 569 119 503 143 539 b 276 641 202 600 237 624 b 406 667 316 658 359 667 b 540 641 456 667 501 658 b 638 572 579 624 612 601 b 697 469 663 542 683 508 b 717 344 710 431 717 389 "},"f":{"ha":410,"x_min":0,"x_max":0,"o":"m 247 571 l 247 0 l 153 0 l 153 571 l 17 571 l 17 650 l 153 650 l 153 828 b 207 1003 153 902 171 960 b 374 1067 243 1045 299 1067 b 413 1065 386 1067 399 1066 b 451 1057 426 1063 439 1061 l 435 974 b 404 981 425 976 414 979 b 369 983 394 982 382 983 b 308 971 344 983 324 979 b 270 935 291 963 279 951 b 252 882 261 920 255 902 b 247 817 249 862 247 840 l 247 650 l 400 650 l 400 571 "},"g":{"ha":878,"x_min":0,"x_max":0,"o":"m 160 -131 b 266 -215 186 -164 221 -192 b 408 -250 311 -238 358 -250 b 526 -230 455 -250 494 -243 b 605 -175 559 -216 585 -198 b 649 -94 625 -152 639 -125 b 663 6 658 -63 663 -30 l 663 128 l 660 128 b 553 33 635 87 599 56 b 414 0 508 11 461 0 b 276 25 363 0 317 8 b 170 94 234 42 199 65 b 102 199 141 123 118 158 b 78 331 86 239 78 283 b 102 461 78 377 86 420 b 170 568 118 502 141 538 b 276 640 199 599 234 623 b 414 667 317 658 363 667 b 553 633 461 667 507 656 b 660 538 598 611 634 579 l 663 538 l 663 650 l 757 650 l 757 6 b 742 -107 757 -30 752 -67 b 688 -217 733 -147 715 -183 b 581 -300 662 -250 626 -278 b 404 -333 535 -322 476 -333 b 232 -299 344 -333 287 -322 b 92 -203 177 -275 131 -244 l 160 -131 m 178 333 b 194 236 178 299 183 267 b 242 156 206 206 222 179 b 319 101 263 132 289 114 b 424 81 350 87 385 81 b 524 99 460 81 493 87 b 603 150 554 111 581 128 b 655 230 625 172 642 199 b 674 333 667 261 674 295 b 655 431 674 368 667 400 b 603 511 642 461 625 488 b 524 567 581 534 554 553 b 424 588 493 581 460 588 b 319 567 385 588 350 581 b 242 511 289 553 263 534 b 194 431 222 488 206 461 b 178 333 183 400 178 368 "},"h":{"ha":810,"x_min":0,"x_max":0,"o":"m 225 543 b 313 633 243 581 272 611 b 443 667 353 656 397 667 b 628 593 525 667 587 642 b 690 399 670 544 690 479 l 690 0 l 596 0 l 596 360 b 588 453 596 394 593 425 b 559 524 582 481 572 504 b 505 571 546 544 528 560 b 419 588 482 582 454 588 b 347 572 394 588 370 582 b 283 526 323 562 302 547 b 239 447 265 505 250 478 b 222 333 228 415 222 377 l 222 0 l 128 0 l 128 1050 l 222 1050 l 222 543 l 225 543 "},"i":{"ha":347,"x_min":0,"x_max":0,"o":"m 126 0 l 126 650 l 221 650 l 221 0 m 240 900 b 219 852 240 881 233 865 b 174 833 206 840 190 833 b 128 852 157 833 142 840 b 107 900 114 865 107 881 b 128 948 107 919 114 935 b 174 967 142 960 157 967 b 219 948 190 967 206 960 b 240 900 233 935 240 919 "},"j":{"ha":349,"x_min":0,"x_max":0,"o":"m -24 -244 b 6 -251 -14 -247 -4 -249 b 36 -253 17 -252 27 -253 b 83 -242 56 -253 71 -249 b 111 -214 95 -235 105 -226 b 124 -170 118 -202 122 -187 b 128 -114 127 -153 128 -134 l 128 650 l 222 650 l 222 -129 b 214 -205 222 -155 219 -180 b 185 -270 208 -229 199 -251 b 128 -316 171 -289 152 -304 b 38 -333 105 -328 75 -333 b 1 -331 27 -333 15 -333 b -37 -324 -12 -330 -25 -327 l -24 -244 m 242 900 b 221 852 242 881 235 865 b 175 833 207 840 192 833 b 129 852 158 833 143 840 b 108 900 115 865 108 881 b 129 948 108 919 115 935 b 175 967 143 960 158 967 b 221 948 192 967 207 960 b 242 900 235 935 242 919 "},"k":{"ha":708,"x_min":0,"x_max":0,"o":"m 226 357 l 526 650 l 663 650 l 335 353 l 696 0 l 557 0 l 226 342 l 222 342 l 222 0 l 128 0 l 128 1050 l 222 1050 l 222 357 "},"l":{"ha":350,"x_min":0,"x_max":0,"o":"m 128 0 l 128 1050 l 222 1050 l 222 0 "},"m":{"ha":1226,"x_min":0,"x_max":0,"o":"m 218 539 b 303 631 237 577 265 608 b 432 667 342 655 385 667 b 487 661 450 667 468 665 b 542 640 506 657 524 650 b 592 597 560 629 577 615 b 632 529 608 580 621 557 b 723 631 654 574 684 608 b 860 667 761 655 807 667 b 1045 593 942 667 1004 642 b 1107 399 1086 544 1107 479 l 1107 0 l 1013 0 l 1013 360 b 974 525 1013 428 1000 483 b 844 588 949 567 906 588 b 758 567 810 588 781 581 b 701 512 734 553 715 534 b 669 435 686 489 676 463 b 660 346 663 406 660 376 l 660 0 l 565 0 l 565 379 b 558 465 565 411 563 439 b 534 531 554 491 546 513 b 486 573 522 549 506 563 b 408 588 466 583 440 588 b 341 572 386 588 364 582 b 280 526 318 562 298 547 b 236 447 262 505 247 478 b 219 333 225 415 219 377 l 219 0 l 125 0 l 125 507 b 124 575 125 525 125 547 b 119 650 123 603 121 628 l 210 650 b 214 592 212 632 213 613 b 215 539 215 570 215 553 l 218 539 l 218 539 "},"n":{"ha":807,"x_min":0,"x_max":0,"o":"m 210 650 b 214 592 212 632 213 613 b 215 539 215 570 215 553 l 218 539 b 308 631 237 577 267 608 b 440 667 350 655 394 667 b 626 593 523 667 584 642 b 688 399 667 544 688 479 l 688 0 l 593 0 l 593 360 b 585 453 593 394 590 425 b 556 524 579 481 570 504 b 502 571 543 544 525 560 b 417 588 479 582 451 588 b 344 572 392 588 367 582 b 281 526 320 562 299 547 b 236 447 262 505 247 478 b 219 333 225 415 219 377 l 219 0 l 125 0 l 125 507 b 124 575 125 525 125 547 b 119 650 123 603 121 628 l 210 650 "},"o":{"ha":849,"x_min":0,"x_max":0,"o":"m 771 325 b 745 189 771 276 762 231 b 674 81 728 147 704 111 b 564 9 643 50 606 26 b 424 -17 521 -8 475 -17 b 285 9 374 -17 327 -8 b 175 81 242 26 206 50 b 103 189 144 111 121 147 b 78 325 86 231 78 276 b 103 461 78 374 86 419 b 175 569 121 503 144 539 b 285 641 206 600 242 624 b 424 667 327 658 374 667 b 564 641 475 667 521 658 b 674 569 606 624 643 600 b 745 461 704 539 728 503 b 771 325 762 419 771 374 m 671 325 b 653 427 671 361 665 395 b 604 510 642 459 625 487 b 526 567 583 534 557 553 b 424 588 496 581 462 588 b 322 567 386 588 352 581 b 244 510 291 553 266 534 b 195 427 223 487 207 459 b 178 325 184 395 178 361 b 195 223 178 289 184 255 b 244 140 207 191 223 163 b 322 84 266 116 291 97 b 424 64 352 71 386 64 b 526 84 462 64 496 71 b 604 140 557 97 583 116 b 653 223 625 163 642 191 b 671 325 665 255 671 289 "},"p":{"ha":882,"x_min":0,"x_max":0,"o":"m 125 -333 l 125 650 l 219 650 l 219 538 l 224 538 b 331 634 250 580 286 612 b 468 667 376 656 422 667 b 606 640 519 667 565 658 b 712 568 647 623 683 599 b 780 460 741 538 764 501 b 804 325 796 418 804 373 b 780 190 804 277 796 232 b 712 82 764 149 741 113 b 606 10 683 51 647 27 b 468 -17 565 -8 519 -17 b 331 16 422 -17 376 -6 b 224 110 286 38 250 69 l 219 110 l 219 -333 m 704 325 b 688 427 704 361 699 395 b 640 510 676 459 660 487 b 563 567 619 534 593 553 b 458 588 532 581 497 588 b 358 567 422 588 389 581 b 279 512 328 554 301 535 b 227 428 257 488 240 460 b 208 325 215 397 208 362 b 227 222 208 288 215 253 b 279 139 240 190 257 162 b 358 84 301 116 328 97 b 458 64 389 71 422 64 b 563 84 497 64 532 71 b 640 140 593 97 619 116 b 688 223 660 163 676 191 b 704 325 699 255 704 289 "},"q":{"ha":882,"x_min":0,"x_max":0,"o":"m 658 110 b 551 16 631 69 596 38 b 414 -17 506 -6 460 -17 b 276 10 363 -17 317 -8 b 170 82 234 27 199 51 b 102 190 141 113 118 149 b 78 325 86 232 78 277 b 102 460 78 373 86 418 b 170 568 118 501 141 538 b 276 640 199 599 234 623 b 414 667 317 658 363 667 b 551 634 460 667 506 656 b 658 538 596 612 631 580 l 663 538 l 663 650 l 757 650 l 757 -333 l 663 -333 l 663 110 l 658 110 m 178 325 b 194 223 178 289 183 255 b 242 140 206 191 222 163 b 319 84 263 116 289 97 b 424 64 350 71 385 64 b 524 84 460 64 493 71 b 603 139 554 97 581 116 b 655 222 625 162 642 190 b 674 325 667 253 674 288 b 655 428 674 362 667 397 b 603 512 642 460 625 488 b 524 567 581 535 554 554 b 424 588 493 581 460 588 b 319 567 385 588 350 581 b 242 510 289 553 263 534 b 194 427 222 487 206 459 b 178 325 183 395 178 361 "},"r":{"ha":500,"x_min":0,"x_max":0,"o":"m 125 507 b 124 575 125 525 125 547 b 119 650 123 603 121 628 l 210 650 b 214 592 212 632 213 613 b 215 539 215 570 215 553 l 218 539 b 301 631 237 577 264 608 b 426 667 338 655 380 667 b 459 665 438 667 449 666 b 489 660 469 664 479 663 l 476 571 b 449 576 471 573 462 575 b 410 579 436 578 423 579 b 338 565 385 579 361 575 b 277 522 314 556 294 541 b 235 445 260 502 246 476 b 219 333 225 414 219 377 l 219 0 l 125 0 l 125 507 l 125 507 "},"s":{"ha":617,"x_min":0,"x_max":0,"o":"m 471 496 b 408 562 457 523 436 545 b 311 588 379 579 347 588 b 261 582 294 588 278 586 b 217 564 244 578 230 572 b 185 532 204 556 193 545 b 174 486 178 519 174 504 b 211 416 174 456 186 432 b 329 375 236 400 275 386 b 499 306 406 359 463 336 b 554 185 536 276 554 236 b 533 91 554 148 547 116 b 476 28 518 66 500 45 b 398 -6 453 12 427 1 b 310 -17 369 -13 339 -17 b 167 14 261 -17 213 -6 b 53 110 120 34 82 66 l 128 165 b 201 93 144 137 169 113 b 308 64 234 74 269 64 b 367 69 329 64 348 66 b 415 89 385 73 401 80 b 449 124 429 98 440 110 b 461 178 457 139 461 156 b 412 255 461 212 445 238 b 269 303 379 272 331 288 b 208 320 250 307 229 313 b 147 351 186 327 166 337 b 101 401 129 364 113 381 b 83 478 89 422 83 447 b 103 563 83 511 90 540 b 155 622 116 587 133 606 b 229 656 177 637 201 648 b 315 667 257 663 286 667 b 447 636 361 667 405 656 b 543 550 490 616 522 587 l 471 496 "},"t":{"ha":440,"x_min":0,"x_max":0,"o":"m 235 571 l 235 192 b 242 132 235 168 237 148 b 262 95 246 116 253 104 b 293 77 271 86 281 80 b 332 72 305 74 318 72 b 373 78 345 72 359 74 b 414 93 387 81 401 87 l 418 11 b 366 -3 401 5 384 0 b 307 -8 348 -7 328 -8 b 251 -1 289 -8 271 -6 b 197 25 232 3 214 12 b 156 78 181 38 167 56 b 140 165 146 100 140 129 l 140 571 l 6 571 l 6 650 l 140 650 l 140 833 l 235 833 l 235 650 l 418 650 l 418 571 "},"u":{"ha":807,"x_min":0,"x_max":0,"o":"m 597 0 b 593 58 595 18 594 37 b 592 111 592 80 592 97 l 589 111 b 499 19 570 73 540 42 b 367 -17 457 -5 413 -17 b 181 57 284 -17 222 8 b 119 251 140 106 119 171 l 119 650 l 214 650 l 214 290 b 222 197 214 256 217 225 b 251 126 228 169 237 146 b 305 79 264 106 282 90 b 390 63 328 68 356 63 b 463 78 415 63 440 68 b 526 124 487 88 508 103 b 571 203 545 145 560 172 b 588 317 582 235 588 273 l 588 650 l 682 650 l 682 143 b 683 75 682 125 682 103 b 688 0 684 47 686 22 l 597 0 "},"v":{"ha":678,"x_min":0,"x_max":0,"o":"m 288 0 l 22 650 l 128 650 l 339 100 l 342 100 l 554 650 l 656 650 l 392 0 "},"w":{"ha":1036,"x_min":0,"x_max":0,"o":"m 294 122 l 297 122 l 472 650 l 564 650 l 742 122 l 744 122 l 900 650 l 1000 650 l 794 0 l 692 0 l 518 526 l 515 526 l 344 0 l 242 0 l 36 650 l 138 650 "},"x":{"ha":672,"x_min":0,"x_max":0,"o":"m 38 650 l 158 650 l 336 403 l 514 650 l 628 650 l 392 340 l 650 0 l 528 0 l 335 271 l 136 0 l 22 0 l 278 336 "},"y":{"ha":678,"x_min":0,"x_max":0,"o":"m 351 101 l 553 650 l 656 650 l 332 -168 b 258 -288 313 -218 288 -258 b 128 -333 228 -318 184 -333 b 43 -325 99 -333 71 -331 l 53 -239 b 122 -250 75 -246 98 -250 b 199 -220 155 -250 180 -240 b 247 -135 217 -200 233 -172 l 300 1 l 22 650 l 128 650 l 349 101 "},"z":{"ha":614,"x_min":0,"x_max":0,"o":"m 168 82 l 571 82 l 571 0 l 43 0 l 43 67 l 431 571 l 63 571 l 63 650 l 557 650 l 557 583 "},"{":{"ha":417,"x_min":0,"x_max":0,"o":"m 0 442 b 82 482 36 442 63 455 b 110 596 100 509 110 547 l 110 843 b 122 925 110 875 114 903 b 156 978 131 947 142 965 b 203 1008 169 992 185 1002 b 260 1017 222 1014 240 1017 l 347 1017 l 347 942 l 281 942 b 240 931 264 942 250 938 b 215 904 229 924 221 915 b 204 867 210 893 206 881 b 201 826 202 853 201 839 l 201 579 b 187 495 201 546 197 518 b 152 441 177 472 166 454 b 111 412 139 428 125 418 b 78 401 97 406 86 402 l 78 399 b 111 388 86 398 97 394 b 152 359 125 382 139 372 b 187 305 166 346 177 328 b 201 221 197 282 201 254 l 201 -26 b 204 -67 201 -39 202 -53 b 215 -104 206 -81 210 -93 b 240 -131 221 -115 229 -124 b 281 -142 250 -138 264 -142 l 347 -142 l 347 -217 l 260 -217 b 203 -208 240 -217 222 -214 b 156 -178 185 -202 169 -192 b 122 -125 142 -165 131 -147 b 110 -43 114 -103 110 -75 l 110 204 b 82 318 110 253 100 291 b 0 358 63 345 36 358 l 0 442 "},"|":{"ha":308,"x_min":0,"x_max":0,"o":"m 196 -347 l 113 -347 l 113 1042 l 196 1042 "},"}":{"ha":417,"x_min":0,"x_max":0,"o":"m 417 358 b 335 318 381 358 353 345 b 307 204 316 291 307 253 l 307 -43 b 294 -125 307 -75 303 -103 b 261 -178 286 -147 275 -165 b 213 -208 247 -192 231 -202 b 157 -217 195 -214 176 -217 l 69 -217 l 69 -142 l 136 -142 b 177 -131 153 -142 166 -138 b 201 -104 188 -124 196 -115 b 213 -67 207 -93 211 -81 b 215 -26 214 -53 215 -39 l 215 221 b 230 305 215 254 220 282 b 265 359 240 328 251 346 b 306 388 278 372 292 382 b 339 399 319 394 331 398 l 339 401 b 306 412 331 402 319 406 b 265 441 292 418 278 428 b 230 495 251 454 240 472 b 215 579 220 518 215 546 l 215 826 b 213 867 215 839 214 853 b 201 904 211 881 207 893 b 177 931 196 915 188 924 b 136 942 166 938 153 942 l 69 942 l 69 1017 l 157 1017 b 213 1008 176 1017 195 1014 b 261 978 231 1002 247 992 b 294 925 275 965 286 947 b 307 843 303 903 307 875 l 307 596 b 335 482 307 547 316 509 b 417 442 353 455 381 442 l 417 358 "},"~":{"ha":925,"x_min":0,"x_max":0,"o":"m 801 456 b 769 410 792 441 781 426 b 726 369 756 395 742 381 b 674 338 711 356 693 346 b 613 326 655 330 635 326 b 576 328 600 326 587 327 b 540 336 564 330 552 332 b 503 351 528 340 516 345 b 458 376 490 358 475 366 b 383 418 430 395 405 409 b 315 432 362 427 339 432 b 271 422 300 432 285 429 b 233 398 257 416 244 408 b 204 365 222 388 213 377 b 182 331 196 353 188 342 l 124 386 b 158 431 134 401 145 416 b 199 473 170 447 184 460 b 251 503 215 485 232 496 b 313 515 270 511 290 515 b 387 505 338 515 363 512 b 465 467 410 498 437 485 b 540 425 492 449 517 435 b 608 410 563 415 586 410 b 653 419 624 410 639 413 b 690 444 667 426 679 434 b 720 478 701 455 711 466 b 743 511 729 490 737 501 l 801 456 "}," ":{"ha":347,"x_min":0,"x_max":0,"o":""},"¡":{"ha":456,"x_min":0,"x_max":0,"o":"m 178 -318 l 178 399 l 278 399 l 278 -318 m 303 599 b 282 547 303 579 296 562 b 228 524 268 531 250 524 b 174 547 206 524 188 531 b 153 599 160 562 153 579 b 174 651 153 618 160 635 b 228 674 188 666 206 674 b 282 651 250 674 268 666 b 303 599 296 635 303 618 "},"¢":{"ha":806,"x_min":0,"x_max":0,"o":"m 414 579 b 334 549 384 574 358 563 b 274 493 310 534 290 515 b 235 417 257 471 244 445 b 222 325 227 388 222 357 b 235 233 222 293 227 262 b 274 157 244 205 257 179 b 334 101 290 135 310 116 b 414 71 358 87 384 76 l 414 579 m 481 68 b 569 95 514 70 544 79 b 629 153 595 111 615 131 l 704 96 b 601 15 675 61 640 34 b 481 -15 563 -3 522 -13 l 481 -100 l 414 -100 l 414 -12 b 292 23 369 -8 328 4 b 200 97 256 42 225 66 b 142 200 175 127 156 161 b 122 325 129 239 122 281 b 142 450 122 369 129 411 b 200 553 156 489 175 523 b 292 627 225 584 256 608 b 414 663 328 646 369 658 l 414 750 l 481 750 l 481 665 b 601 635 522 663 563 653 b 704 554 640 616 675 589 l 629 497 b 569 555 615 519 595 539 b 481 582 544 571 514 580 l 481 68 "},"£":{"ha":806,"x_min":0,"x_max":0,"o":"m 346 465 l 346 83 l 710 83 l 710 0 l 104 0 l 104 83 l 246 83 l 246 465 l 113 465 l 113 549 l 246 549 l 246 678 b 260 797 246 718 251 757 b 309 903 270 836 286 871 b 400 979 332 934 362 960 b 540 1008 438 999 485 1008 b 658 989 581 1008 620 1002 b 756 925 695 976 728 955 l 690 854 b 624 905 672 875 650 892 b 536 924 598 917 569 924 b 436 897 494 924 461 915 b 378 832 411 880 392 858 b 352 749 365 806 356 778 b 346 669 348 719 346 693 l 346 549 l 579 549 l 579 465 "},"€":{"ha":806,"x_min":0,"x_max":0,"o":"m 710 879 b 533 921 663 907 604 921 b 334 849 453 921 386 897 b 226 651 282 800 246 735 l 643 651 l 618 575 l 214 575 b 209 531 212 561 210 547 b 207 485 208 516 207 500 b 208 445 207 474 207 460 b 213 406 209 430 211 417 l 568 406 l 543 329 l 222 329 b 261 219 230 288 243 252 b 330 135 280 187 303 159 b 423 81 357 112 388 94 b 533 63 458 69 494 63 b 634 76 569 63 603 67 b 722 118 665 84 694 99 l 763 40 b 521 -25 700 -3 620 -25 b 369 5 465 -25 415 -15 b 249 84 323 25 283 51 b 167 197 216 117 188 155 b 122 329 145 240 131 284 l 17 329 l 44 406 l 113 406 b 110 442 112 415 111 427 b 108 483 109 456 108 470 b 110 533 108 499 109 516 b 114 575 111 550 112 564 l 18 575 l 46 651 l 125 651 b 183 803 138 708 157 758 b 275 915 208 847 239 885 b 396 985 311 946 351 969 b 538 1008 440 1000 488 1008 b 650 997 576 1008 614 1004 b 744 964 686 989 718 978 l 710 879 l 710 879 "},"¥":{"ha":806,"x_min":0,"x_max":0,"o":"m 356 456 l 126 456 l 126 531 l 328 531 l 14 983 l 138 983 l 406 567 l 672 983 l 792 983 l 481 531 l 679 531 l 679 456 l 450 456 l 450 310 l 679 310 l 679 235 l 450 235 l 450 0 l 356 0 l 356 235 l 126 235 l 126 310 l 356 310 "},"Š":{"ha":783,"x_min":0,"x_max":0,"o":"m 607 825 b 525 897 586 855 558 878 b 404 924 492 915 451 924 b 331 913 380 924 356 920 b 263 878 306 905 283 894 b 213 821 242 863 226 844 b 194 739 201 798 194 770 b 213 661 194 707 200 681 b 260 609 225 641 241 623 b 328 574 280 595 303 583 b 408 546 354 564 381 555 b 512 510 443 535 477 523 b 606 459 547 497 578 480 b 674 380 633 438 656 412 b 700 258 691 348 700 307 b 672 131 700 209 691 167 b 598 43 653 96 628 66 b 495 -8 568 20 534 3 b 379 -25 457 -19 418 -25 b 290 -16 350 -25 320 -22 b 206 11 261 -10 232 -1 b 131 57 179 23 154 38 b 69 121 107 75 87 97 l 156 185 b 245 97 177 150 207 120 b 381 61 284 73 329 61 b 457 73 406 61 431 65 b 527 109 483 81 506 93 b 578 169 548 125 565 145 b 599 251 592 192 599 220 b 578 337 599 286 592 314 b 525 394 565 359 547 378 b 449 432 503 409 477 422 b 358 463 420 442 390 452 b 263 497 326 473 294 484 b 178 548 231 510 203 527 b 117 625 153 569 133 594 b 94 738 102 656 94 693 b 123 860 94 785 104 825 b 197 944 142 894 167 922 b 299 993 228 967 262 983 b 408 1008 336 1003 372 1008 b 579 973 475 1008 532 997 b 686 889 626 949 662 921 l 607 825 m 342 1061 l 190 1261 l 282 1261 l 397 1111 l 513 1261 l 604 1261 l 453 1061 "},"§":{"ha":806,"x_min":0,"x_max":0,"o":"m 576 836 b 558 867 572 846 566 857 b 527 896 550 878 540 888 b 483 917 515 904 500 911 b 426 925 467 922 448 925 b 318 892 382 925 346 914 b 276 801 290 871 276 840 b 288 746 276 780 280 762 b 319 705 296 730 306 716 b 362 675 331 693 346 683 b 413 651 378 667 395 659 l 533 594 b 634 520 572 576 606 551 b 676 397 662 489 676 448 b 640 281 676 351 664 312 b 553 215 616 250 587 228 b 626 144 585 196 610 172 b 651 42 643 116 651 81 b 630 -59 651 3 644 -31 b 572 -130 616 -87 596 -111 b 488 -172 547 -149 519 -163 b 390 -185 456 -180 424 -185 b 223 -146 328 -185 272 -172 b 115 -25 173 -120 138 -80 l 207 19 b 281 -74 223 -24 247 -55 b 390 -101 315 -92 351 -101 b 443 -95 407 -101 425 -99 b 495 -74 462 -91 479 -84 b 535 -32 511 -63 525 -50 b 551 35 546 -14 551 8 b 522 116 551 68 541 95 b 447 168 502 137 477 154 l 271 253 b 219 282 252 261 235 271 b 178 320 204 293 190 306 b 149 371 166 334 156 351 b 139 439 142 390 139 413 b 180 556 139 485 153 524 b 283 622 207 587 242 609 b 249 646 273 629 262 637 b 215 679 237 655 225 666 b 188 726 204 692 195 708 b 176 789 180 744 176 765 b 197 886 176 826 183 858 b 253 955 211 914 230 937 b 334 995 277 973 304 986 b 428 1008 364 1004 395 1008 b 579 970 490 1008 540 996 b 658 878 618 945 644 914 l 576 836 m 360 569 b 319 559 347 568 333 564 b 278 537 304 554 291 547 b 248 499 266 527 256 515 b 236 444 240 484 236 466 b 246 397 236 426 239 410 b 275 360 252 383 262 371 b 322 331 288 350 304 340 b 386 301 341 321 362 312 l 478 260 b 513 274 489 263 500 267 b 545 299 525 280 535 288 b 569 335 555 309 563 321 b 579 383 576 349 579 365 b 569 438 579 404 576 422 b 540 478 562 453 552 467 b 497 509 527 490 513 500 b 444 533 480 518 463 526 l 360 569 "},"š":{"ha":617,"x_min":0,"x_max":0,"o":"m 471 496 b 408 562 457 523 436 545 b 311 588 379 579 347 588 b 261 582 294 588 278 586 b 217 564 244 578 230 572 b 185 532 204 556 193 545 b 174 486 178 519 174 504 b 211 416 174 456 186 432 b 329 375 236 400 275 386 b 499 306 406 359 463 336 b 554 185 536 276 554 236 b 533 91 554 148 547 116 b 476 28 518 66 500 45 b 398 -6 453 12 427 1 b 310 -17 369 -13 339 -17 b 167 14 261 -17 213 -6 b 53 110 120 34 82 66 l 128 165 b 201 93 144 137 169 113 b 308 64 234 74 269 64 b 367 69 329 64 348 66 b 415 89 385 73 401 80 b 449 124 429 98 440 110 b 461 178 457 139 461 156 b 412 255 461 212 445 238 b 269 303 379 272 331 288 b 208 320 250 307 229 313 b 147 351 186 327 166 337 b 101 401 129 364 113 381 b 83 478 89 422 83 447 b 103 563 83 511 90 540 b 155 622 116 587 133 606 b 229 656 177 637 201 648 b 315 667 257 663 286 667 b 447 636 361 667 405 656 b 543 550 490 616 522 587 l 471 496 m 264 783 l 113 983 l 204 983 l 319 833 l 435 983 l 526 983 l 375 783 "},"©":{"ha":1111,"x_min":0,"x_max":0,"o":"m 806 311 b 713 222 783 277 752 247 b 569 185 673 197 625 185 b 444 208 524 185 482 193 b 344 274 405 224 372 246 b 279 373 317 301 295 334 b 256 499 263 411 256 453 b 279 624 256 544 263 586 b 344 722 295 662 317 694 b 444 788 372 750 405 772 b 569 811 482 803 524 811 b 698 782 614 811 657 801 b 794 701 739 763 771 736 l 722 646 b 662 702 709 666 689 685 b 572 728 634 719 605 728 b 480 709 538 728 507 722 b 410 658 453 697 429 680 b 367 585 391 637 377 613 b 351 499 356 558 351 529 b 366 411 351 468 356 439 b 409 338 376 383 390 359 b 478 287 428 316 451 299 b 569 268 505 274 535 268 b 657 289 599 268 628 275 b 733 358 686 303 711 326 l 806 311 m 28 490 b 69 695 28 563 42 632 b 183 861 97 759 135 814 b 351 973 230 908 286 946 b 557 1014 415 1000 484 1014 b 761 973 629 1014 697 1000 b 928 861 825 946 881 908 b 1042 695 976 814 1014 759 b 1083 490 1069 632 1083 563 b 1042 287 1083 418 1069 350 b 928 121 1014 223 976 168 b 761 10 881 74 825 37 b 557 -31 697 -17 629 -31 b 351 10 484 -31 415 -17 b 183 121 286 37 230 74 b 69 287 135 168 97 223 b 28 490 42 350 28 418 m 111 490 b 147 318 111 429 123 372 b 242 177 170 264 202 217 b 384 82 283 137 330 105 b 557 47 438 59 496 47 b 729 82 618 47 675 59 b 870 177 783 105 830 137 b 965 318 910 217 942 264 b 1000 490 988 372 1000 429 b 965 663 1000 551 988 609 b 870 805 942 717 910 765 b 729 901 830 845 783 877 b 557 936 675 924 618 936 b 384 901 496 936 438 924 b 242 805 330 877 283 845 b 147 663 202 765 170 717 b 111 490 123 609 111 551 "},"ª":{"ha":500,"x_min":0,"x_max":0,"o":"m 339 853 b 310 917 339 881 329 903 b 238 938 291 931 267 938 b 173 925 215 938 194 933 b 122 893 152 917 135 906 l 78 942 b 152 985 98 960 123 975 b 244 1000 181 995 212 1000 b 374 956 303 1000 346 985 b 415 847 401 927 415 891 l 415 676 b 417 635 415 663 416 650 b 421 599 418 621 419 609 l 349 599 b 342 656 344 619 342 638 l 339 656 b 203 589 308 611 263 589 b 152 595 186 589 169 591 b 105 615 135 599 119 606 b 69 653 91 625 79 637 b 56 710 60 669 56 688 b 81 781 56 739 64 763 b 146 820 97 798 119 811 b 237 838 173 829 203 835 b 339 842 271 840 305 842 l 339 853 m 318 786 b 257 784 299 786 278 785 b 199 774 236 783 216 779 b 155 751 181 768 166 760 b 138 711 143 741 138 728 b 163 663 138 688 146 672 b 219 650 180 654 199 650 b 308 683 257 650 287 661 b 339 765 328 704 339 732 l 339 786 l 318 786 "},"«":{"ha":669,"x_min":0,"x_max":0,"o":"m 332 89 l 267 43 l 72 333 l 267 624 l 332 578 l 172 333 m 585 89 l 519 43 l 325 333 l 519 624 l 585 578 l 425 333 "},"¬":{"ha":925,"x_min":0,"x_max":0,"o":"m 733 181 l 733 483 l 108 483 l 108 567 l 817 567 l 817 181 "},"­":{"ha":444,"x_min":0,"x_max":0,"o":"m 67 297 l 67 376 l 378 376 l 378 297 "},"®":{"ha":833,"x_min":0,"x_max":0,"o":"m 100 685 b 125 808 100 728 108 769 b 193 908 142 846 164 879 b 294 975 222 936 255 958 b 417 1000 332 992 373 1000 b 540 975 460 1000 501 992 b 640 908 578 958 612 936 b 708 808 669 879 692 846 b 733 685 725 769 733 728 b 708 563 733 641 725 600 b 640 463 692 525 669 491 b 540 397 612 435 578 413 b 417 372 501 380 460 372 b 294 397 373 372 332 380 b 193 463 255 413 222 435 b 125 563 164 491 142 525 b 100 685 108 600 100 641 m 150 685 b 171 582 150 649 157 614 b 228 497 185 550 204 521 b 313 439 252 472 280 453 b 417 418 345 425 380 418 b 521 439 454 418 488 425 b 606 497 553 453 581 472 b 663 582 630 521 649 550 b 683 685 676 614 683 649 b 663 789 683 722 676 756 b 606 874 649 821 630 850 b 521 931 581 898 553 917 b 417 951 488 944 454 951 b 313 931 380 951 345 944 b 228 874 280 917 252 898 b 171 789 204 850 185 821 b 150 685 157 756 150 722 m 418 864 b 467 858 435 864 451 862 b 509 840 482 855 497 849 b 539 808 522 832 531 821 b 550 760 546 795 550 779 b 528 697 550 734 543 713 b 468 664 513 680 493 669 l 564 508 l 486 508 l 403 657 l 357 657 l 357 508 l 293 508 l 293 864 m 408 708 b 461 719 427 708 444 712 b 486 761 478 726 486 740 b 463 800 486 781 478 794 b 415 810 448 806 432 810 l 357 810 l 357 708 l 408 708 "},"¯":{"ha":333,"x_min":0,"x_max":0,"o":"m -21 833 l -21 908 l 354 908 l 354 833 "},"°":{"ha":556,"x_min":0,"x_max":0,"o":"m 485 793 b 469 710 485 763 480 736 b 426 644 459 685 445 663 b 360 601 408 626 386 612 b 278 586 335 591 307 586 b 195 601 248 586 221 591 b 129 644 170 612 148 626 b 86 710 111 663 96 685 b 71 793 76 736 71 763 b 86 876 71 823 76 850 b 129 942 96 901 111 923 b 195 985 148 960 170 975 b 278 1000 221 995 248 1000 b 360 985 307 1000 335 995 b 426 942 386 975 408 960 b 469 876 445 923 459 901 b 485 793 480 850 485 823 m 418 793 b 407 848 418 813 414 831 b 377 892 400 865 390 880 b 333 922 365 905 350 915 b 278 933 316 930 297 933 b 223 922 258 933 240 930 b 178 892 206 915 191 905 b 149 848 166 880 156 865 b 138 793 141 831 138 813 b 149 738 138 774 141 755 b 178 694 156 721 166 706 b 223 664 191 681 206 671 b 278 653 240 656 258 653 b 333 664 297 653 316 656 b 377 694 350 671 365 681 b 407 738 390 706 400 721 b 418 793 414 755 418 774 "},"±":{"ha":925,"x_min":0,"x_max":0,"o":"m 421 565 l 421 782 l 504 782 l 504 565 l 817 565 l 817 482 l 504 482 l 504 272 l 421 272 l 421 482 l 108 482 l 108 565 m 817 150 l 817 67 l 108 67 l 108 150 "},"²":{"ha":514,"x_min":0,"x_max":0,"o":"m 60 403 l 60 482 l 292 717 b 333 769 306 732 320 750 b 351 836 345 788 351 810 b 325 899 351 863 343 884 b 258 922 307 915 285 922 b 192 896 232 922 210 913 b 154 825 173 878 161 855 l 71 838 b 136 953 80 885 102 923 b 258 999 170 984 211 999 b 328 988 282 999 306 995 b 386 958 350 981 369 971 b 426 907 403 944 416 927 b 440 836 435 887 440 863 b 431 780 440 816 437 797 b 408 733 425 763 418 747 b 377 692 399 718 389 705 b 342 656 366 680 354 668 l 164 478 l 443 478 l 443 403 "},"³":{"ha":514,"x_min":0,"x_max":0,"o":"m 228 743 b 310 765 260 743 288 750 b 344 840 333 780 344 805 b 317 903 344 866 335 887 b 249 926 298 919 275 926 b 190 908 227 926 208 920 b 144 857 172 896 156 879 l 75 893 b 153 974 96 930 122 957 b 251 1000 183 991 216 1000 b 319 990 275 1000 298 997 b 376 960 341 984 359 974 b 414 910 392 947 405 930 b 428 842 423 891 428 868 b 406 765 428 812 421 786 b 349 713 392 743 373 725 b 419 660 378 701 402 684 b 444 571 436 636 444 606 b 428 494 444 542 439 517 b 386 439 418 472 404 454 b 324 406 369 424 348 413 b 250 394 301 398 276 394 b 133 426 206 394 166 405 b 54 528 99 448 73 481 l 133 554 b 178 492 143 527 158 506 b 250 469 199 477 223 469 b 327 494 279 469 304 478 b 361 571 350 511 361 537 b 349 618 361 589 357 605 b 319 649 341 631 331 641 b 276 667 306 657 292 663 b 228 672 261 670 244 672 l 190 672 l 190 743 "},"Ž":{"ha":794,"x_min":0,"x_max":0,"o":"m 169 89 l 751 89 l 751 0 l 43 0 l 43 83 l 618 894 l 58 894 l 58 983 l 743 983 l 743 900 m 343 1061 l 192 1261 l 283 1261 l 399 1111 l 514 1261 l 606 1261 l 454 1061 "},"µ":{"ha":772,"x_min":0,"x_max":0,"o":"m 192 650 l 192 290 b 230 119 192 211 204 153 b 368 67 255 84 301 67 b 446 83 396 67 422 72 b 508 132 470 94 491 111 b 550 210 526 153 540 179 b 565 317 560 241 565 277 l 565 650 l 657 650 l 657 143 b 659 72 657 119 658 95 b 664 0 660 48 662 24 l 565 0 l 565 106 l 563 106 b 524 58 552 89 539 73 b 471 19 508 44 490 31 b 409 -7 451 8 431 0 b 344 -17 387 -13 366 -17 b 192 24 281 -17 230 -3 l 192 -317 l 100 -317 l 100 650 "},"¶":{"ha":833,"x_min":0,"x_max":0,"o":"m 621 -175 l 621 908 l 449 908 l 449 -175 l 357 -175 l 357 439 b 240 459 314 439 275 446 b 148 514 204 472 173 491 b 88 596 122 537 103 564 b 67 697 74 627 67 661 b 151 908 67 788 95 858 b 383 983 208 958 285 983 l 713 983 l 713 -175 "},"·":{"ha":361,"x_min":0,"x_max":0,"o":"m 256 436 b 235 384 256 417 249 399 b 181 361 221 369 203 361 b 126 384 158 361 140 369 b 106 436 113 399 106 417 b 126 488 106 456 113 473 b 181 511 140 503 158 511 b 235 488 203 511 221 503 b 256 436 249 473 256 456 "},"ž":{"ha":614,"x_min":0,"x_max":0,"o":"m 168 82 l 571 82 l 571 0 l 43 0 l 43 67 l 431 571 l 63 571 l 63 650 l 557 650 l 557 583 m 257 783 l 106 983 l 197 983 l 313 833 l 428 983 l 519 983 l 368 783 "},"¹":{"ha":514,"x_min":0,"x_max":0,"o":"m 238 397 l 238 878 l 149 799 l 96 856 l 251 983 l 322 983 l 322 397 "},"º":{"ha":500,"x_min":0,"x_max":0,"o":"m 461 794 b 445 712 461 765 456 737 b 401 647 434 686 420 665 b 335 604 383 628 361 614 b 250 589 309 594 281 589 b 165 604 219 589 191 594 b 99 647 139 614 117 628 b 55 712 80 665 66 686 b 39 794 44 737 39 765 b 55 878 39 825 44 853 b 99 942 66 903 80 924 b 165 985 117 960 139 975 b 250 1000 191 995 219 1000 b 335 985 281 1000 309 995 b 401 942 361 975 383 960 b 445 878 420 924 434 903 b 461 794 456 853 461 825 m 381 794 b 372 848 381 813 378 831 b 347 893 367 865 358 880 b 306 924 336 906 322 916 b 250 936 290 932 271 936 b 194 924 229 936 210 932 b 153 893 178 916 164 906 b 128 848 142 880 133 865 b 119 794 122 831 119 813 b 128 741 119 776 122 758 b 153 696 133 724 142 709 b 194 665 164 683 178 672 b 250 653 210 657 229 653 b 306 665 271 653 290 657 b 347 696 322 672 336 683 b 372 741 358 709 367 724 b 381 794 378 758 381 776 "},"»":{"ha":669,"x_min":0,"x_max":0,"o":"m 338 578 l 403 624 l 597 333 l 403 43 l 338 89 l 497 333 m 85 578 l 150 624 l 344 333 l 150 43 l 85 89 l 244 333 "},"Œ":{"ha":1378,"x_min":0,"x_max":0,"o":"m 1296 894 l 833 894 l 833 556 l 1263 556 l 1263 468 l 833 468 l 833 89 l 1313 89 l 1313 0 l 615 0 b 431 31 554 0 493 10 b 265 123 370 51 314 82 b 144 276 215 164 175 215 b 99 492 114 337 99 409 b 144 706 99 573 114 645 b 265 860 175 768 215 819 b 431 953 314 902 370 932 b 615 983 493 973 554 983 l 1296 983 m 643 894 b 449 860 569 894 504 883 b 313 769 394 837 349 806 b 231 640 276 731 249 688 b 204 492 213 592 204 543 b 231 343 204 441 213 391 b 313 215 249 295 276 252 b 449 124 349 177 394 147 b 643 89 504 100 569 89 l 733 89 l 733 894 l 643 894 "},"œ":{"ha":1381,"x_min":0,"x_max":0,"o":"m 990 667 b 1126 641 1041 667 1086 658 b 1224 572 1165 624 1198 601 b 1283 469 1250 542 1269 508 b 1303 344 1296 431 1303 389 l 1303 324 b 1301 300 1303 316 1302 308 l 760 300 b 780 208 761 268 767 237 b 831 133 792 180 809 155 b 906 83 852 112 877 95 b 1000 64 935 70 967 64 b 1127 98 1049 64 1091 75 b 1208 176 1163 121 1190 147 l 1279 121 b 1151 15 1240 72 1197 37 b 999 -17 1104 -6 1053 -17 b 831 26 935 -17 879 -3 b 715 142 782 54 744 93 b 597 26 686 93 646 54 b 422 -17 547 -3 489 -17 b 284 9 372 -17 326 -8 b 175 81 242 26 206 50 b 103 189 144 111 121 147 b 78 325 86 231 78 276 b 103 461 78 374 86 419 b 175 569 121 503 144 539 b 284 641 206 600 242 624 b 422 667 326 658 372 667 b 596 624 489 667 547 653 b 714 508 645 596 684 557 b 828 624 743 557 781 596 b 990 667 875 653 929 667 m 671 325 b 653 427 671 361 665 395 b 603 510 642 459 625 487 b 525 567 582 534 556 553 b 422 588 494 581 460 588 b 320 567 384 588 350 581 b 242 510 290 553 264 534 b 192 427 221 487 204 459 b 175 325 181 395 175 361 b 192 223 175 289 181 255 b 242 140 204 191 221 163 b 320 84 264 116 290 97 b 422 64 350 71 384 64 b 525 84 460 64 494 71 b 603 140 556 97 582 116 b 653 223 625 163 642 191 b 671 325 665 255 671 289 m 1207 375 b 1148 527 1204 436 1184 487 b 992 588 1111 567 1059 588 b 904 570 960 588 931 582 b 833 523 877 559 854 543 b 785 455 813 503 797 480 b 764 375 773 429 766 403 l 1207 375 "},"Ÿ":{"ha":836,"x_min":0,"x_max":0,"o":"m 368 0 l 368 424 l 0 983 l 125 983 l 421 507 l 719 983 l 836 983 l 468 424 l 468 0 m 217 1176 b 236 1226 217 1195 223 1211 b 288 1247 249 1240 266 1247 b 339 1226 309 1247 326 1240 b 358 1176 352 1211 358 1195 b 339 1127 358 1158 352 1141 b 288 1106 326 1113 309 1106 b 236 1127 266 1106 249 1113 b 217 1176 223 1141 217 1158 m 483 1176 b 503 1226 483 1195 490 1211 b 554 1247 516 1240 533 1247 b 606 1226 575 1247 593 1240 b 625 1176 619 1211 625 1195 b 606 1127 625 1158 619 1141 b 554 1106 593 1113 575 1106 b 503 1127 533 1106 516 1113 b 483 1176 490 1141 483 1158 "},"¿":{"ha":669,"x_min":0,"x_max":0,"o":"m 394 399 l 394 315 b 385 244 394 288 391 265 b 360 189 379 224 371 206 b 324 143 350 172 338 157 b 283 104 311 129 297 116 l 244 69 b 187 6 221 51 202 30 b 164 -85 172 -19 164 -49 b 178 -154 164 -111 169 -134 b 215 -206 187 -175 200 -192 b 270 -237 231 -219 249 -230 b 338 -249 291 -245 313 -249 b 459 -203 388 -249 428 -233 b 517 -86 490 -172 509 -133 l 611 -103 b 516 -273 597 -175 566 -232 b 333 -335 466 -314 406 -335 b 228 -319 296 -335 261 -329 b 143 -272 196 -308 167 -292 b 85 -194 119 -251 100 -225 b 64 -90 71 -164 64 -129 b 74 -12 64 -61 67 -35 b 101 47 80 10 89 30 b 142 95 112 65 126 81 b 192 139 157 109 174 124 b 241 182 211 155 228 169 b 274 223 254 195 265 209 b 292 271 282 237 288 253 b 297 335 295 288 297 310 l 297 399 m 261 599 b 282 651 261 618 268 635 b 336 674 296 666 314 674 b 390 651 358 674 376 666 b 411 599 404 635 411 618 b 390 547 411 579 404 562 b 336 524 376 531 358 524 b 282 547 314 524 296 531 b 261 599 268 562 261 579 "},"À":{"ha":972,"x_min":0,"x_max":0,"o":"m 14 0 l 439 983 l 536 983 l 958 0 l 847 0 l 739 258 l 231 258 l 124 0 m 701 350 l 485 872 l 268 350 m 393 1261 l 532 1061 l 450 1061 l 267 1261 "},"Á":{"ha":972,"x_min":0,"x_max":0,"o":"m 14 0 l 439 983 l 536 983 l 958 0 l 847 0 l 739 258 l 231 258 l 124 0 m 701 350 l 485 872 l 268 350 m 444 1061 l 583 1261 l 710 1261 l 526 1061 "},"Â":{"ha":972,"x_min":0,"x_max":0,"o":"m 14 0 l 439 983 l 536 983 l 958 0 l 847 0 l 739 258 l 231 258 l 124 0 m 701 350 l 485 872 l 268 350 m 600 1061 l 485 1211 l 369 1061 l 278 1061 l 429 1261 l 540 1261 l 692 1061 "},"Ã":{"ha":972,"x_min":0,"x_max":0,"o":"m 14 0 l 439 983 l 536 983 l 958 0 l 847 0 l 739 258 l 231 258 l 124 0 m 701 350 l 485 872 l 268 350 m 261 1078 b 274 1131 264 1095 268 1113 b 299 1177 280 1148 288 1164 b 335 1210 309 1191 321 1201 b 389 1222 350 1218 368 1222 b 440 1213 406 1222 422 1219 b 490 1190 457 1206 474 1199 b 539 1169 507 1183 523 1176 b 583 1158 555 1162 569 1158 b 630 1180 605 1158 620 1166 b 651 1228 640 1194 647 1210 l 711 1228 b 698 1174 708 1209 704 1191 b 674 1128 692 1157 684 1142 b 636 1096 663 1115 651 1104 b 583 1083 621 1088 604 1083 b 532 1093 567 1083 550 1087 b 482 1115 514 1100 498 1107 b 435 1138 466 1124 450 1131 b 389 1147 419 1144 404 1147 b 342 1126 368 1147 352 1140 b 321 1078 333 1111 325 1095 l 261 1078 "},"Ä":{"ha":972,"x_min":0,"x_max":0,"o":"m 14 0 l 439 983 l 536 983 l 958 0 l 847 0 l 739 258 l 231 258 l 124 0 m 701 350 l 485 872 l 268 350 m 283 1176 b 303 1226 283 1195 290 1211 b 354 1247 316 1240 333 1247 b 406 1226 375 1247 393 1240 b 425 1176 419 1211 425 1195 b 406 1127 425 1158 419 1141 b 354 1106 393 1113 375 1106 b 303 1127 333 1106 316 1113 b 283 1176 290 1141 283 1158 m 550 1176 b 569 1226 550 1195 556 1211 b 621 1247 582 1240 600 1247 b 672 1226 642 1247 659 1240 b 692 1176 685 1211 692 1195 b 672 1127 692 1158 685 1141 b 621 1106 659 1113 642 1106 b 569 1127 600 1106 582 1113 b 550 1176 556 1141 550 1158 "},"Å":{"ha":972,"x_min":0,"x_max":0,"o":"m 14 0 l 439 983 l 536 983 l 958 0 l 847 0 l 739 258 l 231 258 l 124 0 m 701 350 l 485 872 l 268 350 m 619 1181 b 609 1128 619 1162 616 1145 b 580 1086 602 1112 592 1098 b 537 1058 567 1074 553 1065 b 486 1049 521 1052 504 1049 b 435 1058 468 1049 450 1052 b 392 1086 419 1065 405 1074 b 363 1128 380 1098 370 1112 b 353 1181 356 1145 353 1162 b 363 1233 353 1199 356 1216 b 392 1274 370 1249 380 1263 b 435 1302 405 1286 419 1295 b 486 1313 450 1309 468 1313 b 537 1302 504 1313 521 1309 b 580 1274 553 1295 567 1286 b 609 1233 592 1263 602 1249 b 619 1181 616 1216 619 1199 m 569 1181 b 545 1239 569 1204 561 1223 b 486 1263 529 1255 509 1263 b 427 1239 463 1263 443 1255 b 403 1181 411 1223 403 1204 b 427 1122 403 1157 411 1138 b 486 1099 443 1106 463 1099 b 545 1122 509 1099 529 1106 b 569 1181 561 1138 569 1157 "},"Æ":{"ha":1375,"x_min":0,"x_max":0,"o":"m 1300 89 l 1300 0 l 721 0 l 721 275 l 307 275 l 129 0 l 15 0 l 656 983 l 1283 983 l 1283 894 l 821 894 l 821 556 l 1250 556 l 1250 468 l 821 468 l 821 89 m 721 894 l 701 894 l 358 363 l 721 363 "},"Ç":{"ha":1000,"x_min":0,"x_max":0,"o":"m 958 158 b 898 88 942 133 922 110 b 816 29 874 65 847 46 b 713 -10 785 13 751 -1 b 590 -25 676 -20 635 -25 l 542 -104 b 590 -99 554 -100 570 -99 b 668 -124 618 -99 644 -107 b 704 -199 692 -140 704 -165 b 689 -257 704 -222 699 -241 b 650 -294 679 -273 666 -285 b 597 -314 634 -304 617 -310 b 540 -319 578 -318 559 -319 b 476 -312 522 -319 500 -317 b 410 -292 451 -308 429 -301 l 432 -242 b 481 -257 448 -249 464 -254 b 532 -261 497 -260 514 -261 b 558 -258 539 -261 548 -260 b 588 -248 569 -256 578 -253 b 611 -228 597 -243 605 -236 b 621 -200 618 -221 621 -211 b 601 -159 621 -181 614 -168 b 546 -146 587 -150 569 -146 b 486 -157 525 -146 506 -150 l 461 -136 l 533 -22 b 349 30 467 -16 405 2 b 205 140 293 58 245 95 b 111 297 165 184 133 237 b 78 492 89 357 78 422 b 117 699 78 567 91 636 b 224 862 143 762 178 816 b 387 969 270 908 324 944 b 590 1008 449 995 517 1008 b 697 997 626 1008 662 1005 b 794 966 731 990 764 979 b 878 917 825 953 853 936 b 940 853 903 898 924 877 l 857 792 b 816 839 847 807 833 823 b 756 881 799 855 779 869 b 680 910 732 893 707 902 b 592 921 653 917 623 921 b 420 886 528 921 471 909 b 292 792 370 863 327 832 b 211 656 256 753 230 707 b 183 492 193 604 183 549 b 212 328 183 434 193 380 b 293 191 231 276 258 230 b 422 97 328 152 371 120 b 592 63 472 74 529 62 b 753 97 648 63 702 74 b 881 208 804 120 846 157 l 958 158 "},"È":{"ha":822,"x_min":0,"x_max":0,"o":"m 757 89 l 757 0 l 131 0 l 131 983 l 740 983 l 740 894 l 231 894 l 231 556 l 707 556 l 707 468 l 231 468 l 231 89 m 382 1261 l 521 1061 l 439 1061 l 256 1261 "},"É":{"ha":822,"x_min":0,"x_max":0,"o":"m 757 89 l 757 0 l 131 0 l 131 983 l 740 983 l 740 894 l 231 894 l 231 556 l 707 556 l 707 468 l 231 468 l 231 89 m 368 1061 l 507 1261 l 633 1261 l 450 1061 "},"Ê":{"ha":822,"x_min":0,"x_max":0,"o":"m 757 89 l 757 0 l 131 0 l 131 983 l 740 983 l 740 894 l 231 894 l 231 556 l 707 556 l 707 468 l 231 468 l 231 89 m 554 1061 l 439 1211 l 324 1061 l 232 1061 l 383 1261 l 494 1261 l 646 1061 "},"Ë":{"ha":822,"x_min":0,"x_max":0,"o":"m 757 89 l 757 0 l 131 0 l 131 983 l 740 983 l 740 894 l 231 894 l 231 556 l 707 556 l 707 468 l 231 468 l 231 89 m 235 1176 b 254 1226 235 1195 241 1211 b 306 1247 267 1240 284 1247 b 357 1226 327 1247 344 1240 b 376 1176 370 1211 376 1195 b 357 1127 376 1158 370 1141 b 306 1106 344 1113 327 1106 b 254 1127 284 1106 267 1113 b 235 1176 241 1141 235 1158 m 501 1176 b 521 1226 501 1195 508 1211 b 572 1247 534 1240 551 1247 b 624 1226 594 1247 611 1240 b 643 1176 637 1211 643 1195 b 624 1127 643 1158 637 1141 b 572 1106 611 1113 594 1106 b 521 1127 551 1106 534 1113 b 501 1176 508 1141 501 1158 "},"Ì":{"ha":361,"x_min":0,"x_max":0,"o":"m 131 0 l 131 983 l 231 983 l 231 0 m 90 1261 l 229 1061 l 147 1061 l -36 1261 "},"Í":{"ha":361,"x_min":0,"x_max":0,"o":"m 131 0 l 131 983 l 231 983 l 231 0 m 131 1061 l 269 1261 l 396 1261 l 213 1061 "},"Î":{"ha":361,"x_min":0,"x_max":0,"o":"m 131 0 l 131 983 l 231 983 l 231 0 m 296 1061 l 181 1211 l 65 1061 l -26 1061 l 125 1261 l 236 1261 l 388 1061 "},"Ï":{"ha":361,"x_min":0,"x_max":0,"o":"m 131 0 l 131 983 l 231 983 l 231 0 m -24 1176 b -4 1226 -24 1195 -17 1211 b 47 1247 9 1240 26 1247 b 99 1226 69 1247 86 1240 b 118 1176 112 1211 118 1195 b 99 1127 118 1158 112 1141 b 47 1106 86 1113 69 1106 b -4 1127 26 1106 9 1113 b -24 1176 -17 1141 -24 1158 m 243 1176 b 263 1226 243 1195 250 1211 b 314 1247 275 1240 293 1247 b 365 1226 335 1247 352 1240 b 385 1176 378 1211 385 1195 b 365 1127 385 1158 378 1141 b 314 1106 352 1113 335 1106 b 263 1127 293 1106 275 1113 b 243 1176 250 1141 243 1158 "},"Ð":{"ha":1051,"x_min":0,"x_max":0,"o":"m 18 482 l 18 557 l 119 557 l 119 983 l 446 983 b 630 953 507 983 568 973 b 797 860 691 932 747 902 b 917 706 846 819 886 768 b 963 492 947 645 963 573 b 917 276 963 409 947 338 b 797 123 886 215 846 164 b 630 31 747 82 691 51 b 446 0 568 10 507 0 l 119 0 l 119 482 m 414 92 b 609 126 489 92 554 103 b 747 216 664 148 710 178 b 828 344 783 253 810 296 b 854 492 845 391 854 441 b 828 640 854 543 845 592 b 747 767 810 687 783 730 b 609 858 710 805 664 835 b 414 892 554 880 489 892 l 219 892 l 219 557 l 578 557 l 578 482 l 219 482 l 219 92 "},"Ñ":{"ha":1061,"x_min":0,"x_max":0,"o":"m 831 146 l 831 983 l 931 983 l 931 0 l 806 0 l 233 846 l 231 846 l 231 0 l 131 0 l 131 983 l 256 983 l 828 146 m 310 1078 b 323 1131 313 1095 317 1113 b 347 1177 329 1148 337 1164 b 384 1210 357 1191 370 1201 b 438 1222 398 1218 416 1222 b 488 1213 454 1222 471 1219 b 539 1190 505 1206 522 1199 b 588 1169 556 1183 572 1176 b 632 1158 603 1162 618 1158 b 678 1180 653 1158 669 1166 b 700 1228 688 1194 695 1210 l 760 1228 b 747 1174 757 1209 753 1191 b 722 1128 740 1157 732 1142 b 685 1096 712 1115 700 1104 b 632 1083 670 1088 652 1083 b 581 1093 615 1083 598 1087 b 531 1115 563 1100 546 1107 b 483 1138 515 1124 499 1131 b 438 1147 468 1144 452 1147 b 391 1126 416 1147 401 1140 b 369 1078 381 1111 374 1095 l 310 1078 "},"Ò":{"ha":1181,"x_min":0,"x_max":0,"o":"m 1103 492 b 1064 285 1103 417 1090 348 b 956 122 1038 222 1002 167 b 794 14 910 76 856 40 b 590 -25 731 -12 663 -25 b 387 14 517 -25 449 -12 b 224 122 324 40 270 76 b 117 285 178 167 143 222 b 78 492 91 348 78 417 b 117 699 78 567 91 636 b 224 862 143 762 178 816 b 387 969 270 908 324 944 b 590 1008 449 995 517 1008 b 794 969 663 1008 731 995 b 956 862 856 944 910 908 b 1064 699 1002 816 1038 762 b 1103 492 1090 636 1103 567 m 997 492 b 969 656 997 549 988 604 b 889 792 951 707 924 753 b 760 886 854 832 811 863 b 590 921 710 909 653 921 b 420 886 527 921 471 909 b 292 792 370 863 327 832 b 211 656 256 753 230 707 b 183 492 193 604 183 549 b 211 328 183 434 193 380 b 292 192 230 276 256 231 b 420 99 327 153 370 122 b 590 64 471 75 527 64 b 760 99 653 64 710 75 b 889 192 811 122 854 153 b 969 328 924 231 951 276 b 997 492 988 380 997 434 m 553 1261 l 692 1061 l 610 1061 l 426 1261 "},"Ó":{"ha":1181,"x_min":0,"x_max":0,"o":"m 1103 492 b 1064 285 1103 417 1090 348 b 956 122 1038 222 1002 167 b 794 14 910 76 856 40 b 590 -25 731 -12 663 -25 b 387 14 517 -25 449 -12 b 224 122 324 40 270 76 b 117 285 178 167 143 222 b 78 492 91 348 78 417 b 117 699 78 567 91 636 b 224 862 143 762 178 816 b 387 969 270 908 324 944 b 590 1008 449 995 517 1008 b 794 969 663 1008 731 995 b 956 862 856 944 910 908 b 1064 699 1002 816 1038 762 b 1103 492 1090 636 1103 567 m 997 492 b 969 656 997 549 988 604 b 889 792 951 707 924 753 b 760 886 854 832 811 863 b 590 921 710 909 653 921 b 420 886 527 921 471 909 b 292 792 370 863 327 832 b 211 656 256 753 230 707 b 183 492 193 604 183 549 b 211 328 183 434 193 380 b 292 192 230 276 256 231 b 420 99 327 153 370 122 b 590 64 471 75 527 64 b 760 99 653 64 710 75 b 889 192 811 122 854 153 b 969 328 924 231 951 276 b 997 492 988 380 997 434 m 510 1061 l 649 1261 l 775 1261 l 592 1061 "},"Ô":{"ha":1181,"x_min":0,"x_max":0,"o":"m 1103 492 b 1064 285 1103 417 1090 348 b 956 122 1038 222 1002 167 b 794 14 910 76 856 40 b 590 -25 731 -12 663 -25 b 387 14 517 -25 449 -12 b 224 122 324 40 270 76 b 117 285 178 167 143 222 b 78 492 91 348 78 417 b 117 699 78 567 91 636 b 224 862 143 762 178 816 b 387 969 270 908 324 944 b 590 1008 449 995 517 1008 b 794 969 663 1008 731 995 b 956 862 856 944 910 908 b 1064 699 1002 816 1038 762 b 1103 492 1090 636 1103 567 m 997 492 b 969 656 997 549 988 604 b 889 792 951 707 924 753 b 760 886 854 832 811 863 b 590 921 710 909 653 921 b 420 886 527 921 471 909 b 292 792 370 863 327 832 b 211 656 256 753 230 707 b 183 492 193 604 183 549 b 211 328 183 434 193 380 b 292 192 230 276 256 231 b 420 99 327 153 370 122 b 590 64 471 75 527 64 b 760 99 653 64 710 75 b 889 192 811 122 854 153 b 969 328 924 231 951 276 b 997 492 988 380 997 434 m 706 1061 l 590 1211 l 475 1061 l 383 1061 l 535 1261 l 646 1261 l 797 1061 "},"Õ":{"ha":1181,"x_min":0,"x_max":0,"o":"m 1103 492 b 1064 285 1103 417 1090 348 b 956 122 1038 222 1002 167 b 794 14 910 76 856 40 b 590 -25 731 -12 663 -25 b 387 14 517 -25 449 -12 b 224 122 324 40 270 76 b 117 285 178 167 143 222 b 78 492 91 348 78 417 b 117 699 78 567 91 636 b 224 862 143 762 178 816 b 387 969 270 908 324 944 b 590 1008 449 995 517 1008 b 794 969 663 1008 731 995 b 956 862 856 944 910 908 b 1064 699 1002 816 1038 762 b 1103 492 1090 636 1103 567 m 997 492 b 969 656 997 549 988 604 b 889 792 951 707 924 753 b 760 886 854 832 811 863 b 590 921 710 909 653 921 b 420 886 527 921 471 909 b 292 792 370 863 327 832 b 211 656 256 753 230 707 b 183 492 193 604 183 549 b 211 328 183 434 193 380 b 292 192 230 276 256 231 b 420 99 327 153 370 122 b 590 64 471 75 527 64 b 760 99 653 64 710 75 b 889 192 811 122 854 153 b 969 328 924 231 951 276 b 997 492 988 380 997 434 m 365 1078 b 378 1131 368 1095 372 1113 b 403 1177 384 1148 393 1164 b 440 1210 413 1191 425 1201 b 493 1222 454 1218 472 1222 b 544 1213 510 1222 527 1219 b 594 1190 561 1206 578 1199 b 643 1169 611 1183 627 1176 b 688 1158 659 1162 674 1158 b 734 1180 709 1158 724 1166 b 756 1228 744 1194 751 1210 l 815 1228 b 802 1174 813 1209 808 1191 b 778 1128 796 1157 788 1142 b 740 1096 768 1115 755 1104 b 688 1083 725 1088 708 1083 b 636 1093 671 1083 654 1087 b 586 1115 619 1100 602 1107 b 539 1138 570 1124 555 1131 b 493 1147 523 1144 508 1147 b 447 1126 472 1147 456 1140 b 425 1078 437 1111 430 1095 l 365 1078 "},"Ö":{"ha":1181,"x_min":0,"x_max":0,"o":"m 1103 492 b 1064 285 1103 417 1090 348 b 956 122 1038 222 1002 167 b 794 14 910 76 856 40 b 590 -25 731 -12 663 -25 b 387 14 517 -25 449 -12 b 224 122 324 40 270 76 b 117 285 178 167 143 222 b 78 492 91 348 78 417 b 117 699 78 567 91 636 b 224 862 143 762 178 816 b 387 969 270 908 324 944 b 590 1008 449 995 517 1008 b 794 969 663 1008 731 995 b 956 862 856 944 910 908 b 1064 699 1002 816 1038 762 b 1103 492 1090 636 1103 567 m 997 492 b 969 656 997 549 988 604 b 889 792 951 707 924 753 b 760 886 854 832 811 863 b 590 921 710 909 653 921 b 420 886 527 921 471 909 b 292 792 370 863 327 832 b 211 656 256 753 230 707 b 183 492 193 604 183 549 b 211 328 183 434 193 380 b 292 192 230 276 256 231 b 420 99 327 153 370 122 b 590 64 471 75 527 64 b 760 99 653 64 710 75 b 889 192 811 122 854 153 b 969 328 924 231 951 276 b 997 492 988 380 997 434 m 386 1176 b 406 1226 386 1195 393 1211 b 457 1247 419 1240 436 1247 b 508 1226 478 1247 495 1240 b 528 1176 521 1211 528 1195 b 508 1127 528 1158 521 1141 b 457 1106 495 1113 478 1106 b 406 1127 436 1106 419 1113 b 386 1176 393 1141 386 1158 m 653 1176 b 672 1226 653 1195 659 1211 b 724 1247 685 1240 702 1247 b 775 1226 745 1247 762 1240 b 794 1176 788 1211 794 1195 b 775 1127 794 1158 788 1141 b 724 1106 762 1113 745 1106 b 672 1127 702 1106 685 1113 b 653 1176 659 1141 653 1158 "},"×":{"ha":925,"x_min":0,"x_max":0,"o":"m 682 701 l 742 643 l 521 421 l 742 200 l 682 140 l 463 361 l 242 140 l 183 200 l 404 421 l 183 643 l 242 701 l 463 481 "},"Ø":{"ha":1181,"x_min":0,"x_max":0,"o":"m 969 847 b 1068 689 1012 802 1045 749 b 1103 492 1091 629 1103 563 b 1064 285 1103 417 1090 348 b 956 122 1038 222 1002 167 b 794 14 910 76 856 40 b 590 -25 731 -12 663 -25 b 411 5 526 -25 467 -15 b 263 88 356 25 306 52 l 157 -25 l 106 22 l 211 136 b 113 294 169 181 136 234 b 78 492 89 355 78 420 b 117 699 78 567 91 636 b 224 862 143 762 178 816 b 387 969 270 908 324 944 b 590 1008 449 995 517 1008 b 769 979 654 1008 714 999 b 918 896 824 960 874 932 l 1024 1008 l 1075 961 l 969 847 m 328 157 b 444 88 362 127 401 104 b 590 64 487 72 536 64 b 762 99 654 64 711 75 b 890 192 812 122 855 153 b 969 328 924 231 951 276 b 997 492 988 380 997 434 b 974 644 997 544 989 595 b 904 775 958 694 935 737 l 328 157 m 856 826 b 740 896 823 856 784 879 b 590 921 695 913 645 921 b 419 886 526 921 469 909 b 291 792 368 863 326 832 b 211 656 256 753 230 707 b 183 492 193 604 183 549 b 208 338 183 438 191 387 b 279 208 224 288 248 245 l 856 826 "},"Ù":{"ha":986,"x_min":0,"x_max":0,"o":"m 493 -25 b 311 13 419 -25 358 -12 b 199 110 264 39 226 71 b 141 237 171 149 152 191 b 125 367 130 283 125 326 l 125 983 l 225 983 l 225 378 b 239 262 225 338 230 299 b 284 162 248 224 263 191 b 367 91 305 133 332 109 b 493 64 401 73 443 64 b 619 91 543 64 585 73 b 702 162 654 109 681 133 b 747 262 723 191 738 224 b 761 378 756 299 761 338 l 761 983 l 861 983 l 861 367 b 845 237 861 326 856 283 b 788 110 834 191 815 149 b 674 13 760 71 722 39 b 493 -25 627 -12 566 -25 m 438 1261 l 576 1061 l 494 1061 l 311 1261 "},"Ú":{"ha":986,"x_min":0,"x_max":0,"o":"m 493 -25 b 311 13 419 -25 358 -12 b 199 110 264 39 226 71 b 141 237 171 149 152 191 b 125 367 130 283 125 326 l 125 983 l 225 983 l 225 378 b 239 262 225 338 230 299 b 284 162 248 224 263 191 b 367 91 305 133 332 109 b 493 64 401 73 443 64 b 619 91 543 64 585 73 b 702 162 654 109 681 133 b 747 262 723 191 738 224 b 761 378 756 299 761 338 l 761 983 l 861 983 l 861 367 b 845 237 861 326 856 283 b 788 110 834 191 815 149 b 674 13 760 71 722 39 b 493 -25 627 -12 566 -25 m 425 1061 l 564 1261 l 690 1261 l 507 1061 "},"Û":{"ha":986,"x_min":0,"x_max":0,"o":"m 493 -25 b 311 13 419 -25 358 -12 b 199 110 264 39 226 71 b 141 237 171 149 152 191 b 125 367 130 283 125 326 l 125 983 l 225 983 l 225 378 b 239 262 225 338 230 299 b 284 162 248 224 263 191 b 367 91 305 133 332 109 b 493 64 401 73 443 64 b 619 91 543 64 585 73 b 702 162 654 109 681 133 b 747 262 723 191 738 224 b 761 378 756 299 761 338 l 761 983 l 861 983 l 861 367 b 845 237 861 326 856 283 b 788 110 834 191 815 149 b 674 13 760 71 722 39 b 493 -25 627 -12 566 -25 m 608 1061 l 493 1211 l 378 1061 l 286 1061 l 438 1261 l 549 1261 l 700 1061 "},"Ü":{"ha":986,"x_min":0,"x_max":0,"o":"m 493 -25 b 311 13 419 -25 358 -12 b 199 110 264 39 226 71 b 141 237 171 149 152 191 b 125 367 130 283 125 326 l 125 983 l 225 983 l 225 378 b 239 262 225 338 230 299 b 284 162 248 224 263 191 b 367 91 305 133 332 109 b 493 64 401 73 443 64 b 619 91 543 64 585 73 b 702 162 654 109 681 133 b 747 262 723 191 738 224 b 761 378 756 299 761 338 l 761 983 l 861 983 l 861 367 b 845 237 861 326 856 283 b 788 110 834 191 815 149 b 674 13 760 71 722 39 b 493 -25 627 -12 566 -25 m 290 1176 b 310 1226 290 1195 297 1211 b 361 1247 323 1240 340 1247 b 413 1226 382 1247 400 1240 b 432 1176 425 1211 432 1195 b 413 1127 432 1158 425 1141 b 361 1106 400 1113 382 1106 b 310 1127 340 1106 323 1113 b 290 1176 297 1141 290 1158 m 557 1176 b 576 1226 557 1195 563 1211 b 628 1247 589 1240 606 1247 b 679 1226 649 1247 666 1240 b 699 1176 692 1211 699 1195 b 679 1127 699 1158 692 1141 b 628 1106 666 1113 649 1106 b 576 1127 606 1106 589 1113 b 557 1176 563 1141 557 1158 "},"Ý":{"ha":836,"x_min":0,"x_max":0,"o":"m 368 0 l 368 424 l 0 983 l 125 983 l 421 507 l 719 983 l 836 983 l 468 424 l 468 0 m 382 1061 l 521 1261 l 647 1261 l 464 1061 "},"Þ":{"ha":806,"x_min":0,"x_max":0,"o":"m 231 983 l 231 768 l 408 768 b 544 752 458 768 504 763 b 649 703 585 741 620 725 b 717 622 678 682 701 654 b 740 506 732 589 740 550 b 716 390 740 461 732 422 b 648 308 700 357 677 329 b 542 258 619 286 584 269 b 406 242 501 247 456 242 l 231 242 l 231 0 l 131 0 l 131 983 m 392 329 b 571 374 470 329 530 344 b 632 506 612 403 632 447 b 569 638 632 567 611 611 b 392 679 527 666 468 679 l 231 679 l 231 329 "},"ß":{"ha":829,"x_min":0,"x_max":0,"o":"m 122 0 l 122 756 b 135 865 122 792 127 828 b 182 965 144 902 160 936 b 272 1038 204 995 234 1019 b 414 1067 309 1057 356 1067 b 515 1050 449 1067 483 1061 b 599 1002 547 1039 575 1023 b 658 925 624 981 644 956 b 681 821 673 894 681 860 b 519 600 681 713 627 639 l 519 597 b 616 567 555 593 587 583 b 691 507 645 552 670 532 b 740 419 712 482 728 453 b 757 310 751 386 757 350 b 733 176 757 261 749 216 b 666 72 718 135 695 101 b 561 6 637 44 602 22 b 424 -17 520 -9 475 -17 b 385 -15 413 -17 400 -16 b 347 -10 371 -13 358 -12 l 347 69 b 380 65 356 68 367 66 b 414 64 392 64 404 64 b 592 129 488 64 547 86 b 658 311 636 173 658 233 b 585 493 658 392 634 452 b 390 554 536 534 471 554 l 378 554 l 378 638 l 389 638 b 529 680 445 638 492 652 b 585 813 566 708 585 752 b 571 886 585 840 580 865 b 533 940 562 907 549 925 b 476 972 516 954 498 965 b 410 983 455 980 433 983 b 311 961 369 983 336 976 b 253 905 286 946 267 928 b 224 830 239 882 229 857 b 217 753 219 803 217 777 l 217 0 "},"à":{"ha":742,"x_min":0,"x_max":0,"o":"m 535 419 b 490 546 535 476 520 518 b 361 588 461 574 418 588 b 253 567 322 588 286 581 b 168 511 219 553 191 534 l 115 574 b 222 640 142 600 178 623 b 371 667 266 658 315 667 b 469 652 406 667 439 662 b 550 608 500 642 527 628 b 604 535 573 589 591 564 b 624 431 617 505 624 470 l 624 146 b 626 68 624 121 625 95 b 635 0 628 41 631 19 l 550 0 b 543 51 547 16 545 33 b 540 106 541 70 540 88 l 538 106 b 437 12 508 62 474 31 b 301 -17 399 -7 354 -17 b 224 -6 276 -17 251 -13 b 152 28 198 1 174 12 b 98 89 130 44 112 64 b 76 181 84 114 76 144 b 115 299 76 231 89 270 b 217 365 140 328 174 350 b 363 392 259 379 308 388 b 535 399 418 397 475 399 l 535 419 m 507 325 b 390 320 468 325 429 323 b 283 301 350 317 315 310 b 204 258 251 291 225 277 b 174 185 184 240 174 215 b 187 126 174 162 178 142 b 222 88 196 111 207 98 b 272 67 237 78 253 72 b 326 61 290 63 308 61 b 415 78 360 61 389 67 b 481 126 441 90 463 106 b 521 194 498 146 512 169 b 535 276 530 220 535 248 l 535 325 l 507 325 m 326 983 l 465 783 l 383 783 l 200 983 "},"á":{"ha":742,"x_min":0,"x_max":0,"o":"m 535 419 b 490 546 535 476 520 518 b 361 588 461 574 418 588 b 253 567 322 588 286 581 b 168 511 219 553 191 534 l 115 574 b 222 640 142 600 178 623 b 371 667 266 658 315 667 b 469 652 406 667 439 662 b 550 608 500 642 527 628 b 604 535 573 589 591 564 b 624 431 617 505 624 470 l 624 146 b 626 68 624 121 625 95 b 635 0 628 41 631 19 l 550 0 b 543 51 547 16 545 33 b 540 106 541 70 540 88 l 538 106 b 437 12 508 62 474 31 b 301 -17 399 -7 354 -17 b 224 -6 276 -17 251 -13 b 152 28 198 1 174 12 b 98 89 130 44 112 64 b 76 181 84 114 76 144 b 115 299 76 231 89 270 b 217 365 140 328 174 350 b 363 392 259 379 308 388 b 535 399 418 397 475 399 l 535 419 m 507 325 b 390 320 468 325 429 323 b 283 301 350 317 315 310 b 204 258 251 291 225 277 b 174 185 184 240 174 215 b 187 126 174 162 178 142 b 222 88 196 111 207 98 b 272 67 237 78 253 72 b 326 61 290 63 308 61 b 415 78 360 61 389 67 b 481 126 441 90 463 106 b 521 194 498 146 512 169 b 535 276 530 220 535 248 l 535 325 l 507 325 m 299 783 l 438 983 l 564 983 l 381 783 "},"â":{"ha":742,"x_min":0,"x_max":0,"o":"m 535 419 b 490 546 535 476 520 518 b 361 588 461 574 418 588 b 253 567 322 588 286 581 b 168 511 219 553 191 534 l 115 574 b 222 640 142 600 178 623 b 371 667 266 658 315 667 b 469 652 406 667 439 662 b 550 608 500 642 527 628 b 604 535 573 589 591 564 b 624 431 617 505 624 470 l 624 146 b 626 68 624 121 625 95 b 635 0 628 41 631 19 l 550 0 b 543 51 547 16 545 33 b 540 106 541 70 540 88 l 538 106 b 437 12 508 62 474 31 b 301 -17 399 -7 354 -17 b 224 -6 276 -17 251 -13 b 152 28 198 1 174 12 b 98 89 130 44 112 64 b 76 181 84 114 76 144 b 115 299 76 231 89 270 b 217 365 140 328 174 350 b 363 392 259 379 308 388 b 535 399 418 397 475 399 l 535 419 m 507 325 b 390 320 468 325 429 323 b 283 301 350 317 315 310 b 204 258 251 291 225 277 b 174 185 184 240 174 215 b 187 126 174 162 178 142 b 222 88 196 111 207 98 b 272 67 237 78 253 72 b 326 61 290 63 308 61 b 415 78 360 61 389 67 b 481 126 441 90 463 106 b 521 194 498 146 512 169 b 535 276 530 220 535 248 l 535 325 l 507 325 m 489 783 l 374 933 l 258 783 l 167 783 l 318 983 l 429 983 l 581 783 "},"ã":{"ha":742,"x_min":0,"x_max":0,"o":"m 535 419 b 490 546 535 476 520 518 b 361 588 461 574 418 588 b 253 567 322 588 286 581 b 168 511 219 553 191 534 l 115 574 b 222 640 142 600 178 623 b 371 667 266 658 315 667 b 469 652 406 667 439 662 b 550 608 500 642 527 628 b 604 535 573 589 591 564 b 624 431 617 505 624 470 l 624 146 b 626 68 624 121 625 95 b 635 0 628 41 631 19 l 550 0 b 543 51 547 16 545 33 b 540 106 541 70 540 88 l 538 106 b 437 12 508 62 474 31 b 301 -17 399 -7 354 -17 b 224 -6 276 -17 251 -13 b 152 28 198 1 174 12 b 98 89 130 44 112 64 b 76 181 84 114 76 144 b 115 299 76 231 89 270 b 217 365 140 328 174 350 b 363 392 259 379 308 388 b 535 399 418 397 475 399 l 535 419 m 507 325 b 390 320 468 325 429 323 b 283 301 350 317 315 310 b 204 258 251 291 225 277 b 174 185 184 240 174 215 b 187 126 174 162 178 142 b 222 88 196 111 207 98 b 272 67 237 78 253 72 b 326 61 290 63 308 61 b 415 78 360 61 389 67 b 481 126 441 90 463 106 b 521 194 498 146 512 169 b 535 276 530 220 535 248 l 535 325 l 507 325 m 143 800 b 156 853 146 818 150 835 b 181 899 162 870 170 886 b 217 932 191 913 203 924 b 271 944 232 940 250 944 b 322 935 288 944 304 941 b 372 913 339 928 356 921 b 421 891 389 905 405 898 b 465 881 437 884 451 881 b 512 902 487 881 502 888 b 533 950 522 916 529 932 l 593 950 b 580 897 590 931 586 914 b 556 851 574 879 566 864 b 518 818 545 837 533 826 b 465 806 503 810 486 806 b 414 815 449 806 431 809 b 364 838 396 822 380 829 b 317 860 348 846 332 853 b 271 869 301 866 286 869 b 224 848 250 869 234 862 b 203 800 215 834 207 818 l 143 800 "},"ä":{"ha":742,"x_min":0,"x_max":0,"o":"m 535 419 b 490 546 535 476 520 518 b 361 588 461 574 418 588 b 253 567 322 588 286 581 b 168 511 219 553 191 534 l 115 574 b 222 640 142 600 178 623 b 371 667 266 658 315 667 b 469 652 406 667 439 662 b 550 608 500 642 527 628 b 604 535 573 589 591 564 b 624 431 617 505 624 470 l 624 146 b 626 68 624 121 625 95 b 635 0 628 41 631 19 l 550 0 b 543 51 547 16 545 33 b 540 106 541 70 540 88 l 538 106 b 437 12 508 62 474 31 b 301 -17 399 -7 354 -17 b 224 -6 276 -17 251 -13 b 152 28 198 1 174 12 b 98 89 130 44 112 64 b 76 181 84 114 76 144 b 115 299 76 231 89 270 b 217 365 140 328 174 350 b 363 392 259 379 308 388 b 535 399 418 397 475 399 l 535 419 m 507 325 b 390 320 468 325 429 323 b 283 301 350 317 315 310 b 204 258 251 291 225 277 b 174 185 184 240 174 215 b 187 126 174 162 178 142 b 222 88 196 111 207 98 b 272 67 237 78 253 72 b 326 61 290 63 308 61 b 415 78 360 61 389 67 b 481 126 441 90 463 106 b 521 194 498 146 512 169 b 535 276 530 220 535 248 l 535 325 l 507 325 m 165 899 b 185 948 165 917 172 934 b 236 969 198 962 215 969 b 288 948 257 969 275 962 b 307 899 300 934 307 917 b 288 849 307 880 300 864 b 236 828 275 835 257 828 b 185 849 215 828 198 835 b 165 899 172 864 165 880 m 432 899 b 451 948 432 917 438 934 b 503 969 464 962 481 969 b 554 948 524 969 541 962 b 574 899 567 934 574 917 b 554 849 574 880 567 864 b 503 828 541 835 524 828 b 451 849 481 828 464 835 b 432 899 438 864 432 880 "},"å":{"ha":742,"x_min":0,"x_max":0,"o":"m 535 419 b 490 546 535 476 520 518 b 361 588 461 574 418 588 b 253 567 322 588 286 581 b 168 511 219 553 191 534 l 115 574 b 222 640 142 600 178 623 b 371 667 266 658 315 667 b 469 652 406 667 439 662 b 550 608 500 642 527 628 b 604 535 573 589 591 564 b 624 431 617 505 624 470 l 624 146 b 626 68 624 121 625 95 b 635 0 628 41 631 19 l 550 0 b 543 51 547 16 545 33 b 540 106 541 70 540 88 l 538 106 b 437 12 508 62 474 31 b 301 -17 399 -7 354 -17 b 224 -6 276 -17 251 -13 b 152 28 198 1 174 12 b 98 89 130 44 112 64 b 76 181 84 114 76 144 b 115 299 76 231 89 270 b 217 365 140 328 174 350 b 363 392 259 379 308 388 b 535 399 418 397 475 399 l 535 419 m 507 325 b 390 320 468 325 429 323 b 283 301 350 317 315 310 b 204 258 251 291 225 277 b 174 185 184 240 174 215 b 187 126 174 162 178 142 b 222 88 196 111 207 98 b 272 67 237 78 253 72 b 326 61 290 63 308 61 b 415 78 360 61 389 67 b 481 126 441 90 463 106 b 521 194 498 146 512 169 b 535 276 530 220 535 248 l 535 325 l 507 325 m 501 903 b 491 851 501 884 498 867 b 462 808 484 834 474 820 b 419 781 449 796 435 787 b 368 771 403 774 386 771 b 317 781 350 771 332 774 b 274 808 301 787 287 796 b 245 851 262 820 252 834 b 235 903 238 867 235 884 b 245 955 235 921 238 939 b 274 997 252 971 262 985 b 317 1024 287 1008 301 1017 b 368 1035 332 1031 350 1035 b 419 1024 386 1035 403 1031 b 462 997 435 1017 449 1008 b 491 955 474 985 484 971 b 501 903 498 939 501 921 m 451 903 b 427 961 451 926 443 945 b 368 985 411 977 391 985 b 309 961 345 985 325 977 b 285 903 293 945 285 926 b 309 844 285 880 293 860 b 368 821 325 829 345 821 b 427 844 391 821 411 829 b 451 903 443 860 451 880 "},"æ":{"ha":1208,"x_min":0,"x_max":0,"o":"m 1131 321 b 1129 300 1131 313 1130 306 l 615 300 b 634 208 616 268 622 237 b 682 132 646 178 662 153 b 753 81 702 111 726 94 b 842 63 781 69 810 63 b 963 97 889 63 929 74 b 1040 175 997 119 1023 145 l 1108 121 b 986 15 1071 72 1031 37 b 842 -17 942 -6 894 -17 b 683 24 781 -17 728 -3 b 583 135 638 50 605 88 b 535 61 570 105 554 81 b 472 15 516 42 495 26 b 396 -10 448 3 423 -5 b 313 -17 369 -14 341 -17 b 228 -6 285 -17 257 -13 b 153 26 200 1 175 12 b 99 85 131 41 113 61 b 78 174 85 109 78 138 b 117 283 78 220 91 256 b 219 344 143 310 177 330 b 363 369 261 357 309 366 b 528 375 417 373 472 375 l 528 396 b 487 534 528 452 514 498 b 361 588 459 570 418 588 b 251 567 322 588 285 581 b 161 511 216 553 186 534 l 107 572 b 220 640 135 599 172 622 b 375 667 268 658 319 667 b 509 631 427 667 472 655 b 589 531 547 608 573 574 b 692 630 615 572 649 605 b 835 667 735 654 783 667 b 963 641 883 667 925 658 b 1056 572 1000 624 1031 601 b 1112 469 1081 542 1099 508 b 1131 344 1124 431 1131 389 m 1035 375 b 982 528 1035 437 1017 488 b 835 588 947 568 898 588 b 753 570 806 588 779 582 b 686 523 728 559 706 543 b 639 455 667 503 651 480 b 619 375 627 429 620 403 l 1035 375 m 500 300 b 378 297 458 300 418 299 b 274 281 339 294 304 289 b 202 243 244 272 220 260 b 175 175 184 226 175 204 b 188 119 175 153 179 134 b 222 84 196 105 207 93 b 271 65 236 75 252 69 b 329 60 289 62 309 60 b 478 113 396 60 446 77 b 528 253 511 148 528 194 l 528 300 l 500 300 "},"ç":{"ha":694,"x_min":0,"x_max":0,"o":"m 593 501 b 524 563 577 526 554 547 b 426 588 494 579 462 588 b 324 567 388 588 354 581 b 245 512 293 554 267 535 b 195 428 223 488 207 460 b 178 325 184 397 178 362 b 195 222 178 288 184 254 b 244 140 207 191 223 163 b 322 84 266 116 292 97 b 425 64 353 71 387 64 b 531 88 467 64 502 72 b 601 149 559 103 583 124 l 672 96 b 574 16 645 63 613 36 b 433 -17 535 -4 488 -15 l 379 -104 b 428 -99 391 -100 407 -99 b 506 -124 456 -99 481 -107 b 542 -199 530 -140 542 -165 b 526 -257 542 -222 537 -241 b 488 -294 516 -273 503 -285 b 435 -314 472 -304 454 -310 b 378 -319 415 -318 396 -319 b 313 -312 359 -319 338 -317 b 247 -292 289 -308 267 -301 l 269 -242 b 318 -257 285 -249 301 -254 b 369 -261 335 -260 352 -261 b 396 -258 377 -261 386 -260 b 425 -248 406 -256 416 -253 b 449 -228 434 -243 442 -236 b 458 -200 455 -221 458 -211 b 438 -159 458 -181 452 -168 b 383 -146 425 -150 406 -146 b 324 -157 363 -146 343 -150 l 299 -136 l 375 -14 b 252 23 330 -8 289 4 b 158 96 216 42 184 66 b 99 199 132 125 113 160 b 78 325 85 238 78 280 b 103 461 78 374 86 419 b 173 569 119 503 143 539 b 282 641 203 600 239 624 b 425 667 325 658 372 667 b 558 638 469 667 513 657 b 667 554 603 619 639 591 l 593 501 "},"è":{"ha":794,"x_min":0,"x_max":0,"o":"m 621 375 b 562 527 618 436 598 487 b 406 588 525 567 473 588 b 318 570 374 588 345 582 b 247 523 291 559 268 543 b 199 455 227 503 211 480 b 178 375 187 429 180 403 l 621 375 m 717 324 b 715 300 717 316 716 308 l 176 300 b 196 208 177 268 184 237 b 246 133 208 180 225 155 b 321 83 267 112 292 95 b 414 64 350 70 381 64 b 541 98 463 64 505 75 b 622 176 577 121 604 147 l 693 121 b 565 15 654 72 611 37 b 414 -17 518 -6 468 -17 b 280 9 366 -17 321 -8 b 174 81 239 26 203 50 b 103 189 144 111 121 147 b 78 325 86 231 78 276 b 103 461 78 374 86 419 b 172 569 119 503 143 539 b 276 641 202 600 237 624 b 406 667 316 658 359 667 b 540 641 456 667 501 658 b 638 572 579 624 612 601 b 697 469 663 542 683 508 b 717 344 710 431 717 389 m 335 983 l 474 783 l 392 783 l 208 983 "},"é":{"ha":794,"x_min":0,"x_max":0,"o":"m 621 375 b 562 527 618 436 598 487 b 406 588 525 567 473 588 b 318 570 374 588 345 582 b 247 523 291 559 268 543 b 199 455 227 503 211 480 b 178 375 187 429 180 403 l 621 375 m 717 324 b 715 300 717 316 716 308 l 176 300 b 196 208 177 268 184 237 b 246 133 208 180 225 155 b 321 83 267 112 292 95 b 414 64 350 70 381 64 b 541 98 463 64 505 75 b 622 176 577 121 604 147 l 693 121 b 565 15 654 72 611 37 b 414 -17 518 -6 468 -17 b 280 9 366 -17 321 -8 b 174 81 239 26 203 50 b 103 189 144 111 121 147 b 78 325 86 231 78 276 b 103 461 78 374 86 419 b 172 569 119 503 143 539 b 276 641 202 600 237 624 b 406 667 316 658 359 667 b 540 641 456 667 501 658 b 638 572 579 624 612 601 b 697 469 663 542 683 508 b 717 344 710 431 717 389 m 349 783 l 488 983 l 614 983 l 431 783 "},"ê":{"ha":794,"x_min":0,"x_max":0,"o":"m 621 375 b 562 527 618 436 598 487 b 406 588 525 567 473 588 b 318 570 374 588 345 582 b 247 523 291 559 268 543 b 199 455 227 503 211 480 b 178 375 187 429 180 403 l 621 375 m 717 324 b 715 300 717 316 716 308 l 176 300 b 196 208 177 268 184 237 b 246 133 208 180 225 155 b 321 83 267 112 292 95 b 414 64 350 70 381 64 b 541 98 463 64 505 75 b 622 176 577 121 604 147 l 693 121 b 565 15 654 72 611 37 b 414 -17 518 -6 468 -17 b 280 9 366 -17 321 -8 b 174 81 239 26 203 50 b 103 189 144 111 121 147 b 78 325 86 231 78 276 b 103 461 78 374 86 419 b 172 569 119 503 143 539 b 276 641 202 600 237 624 b 406 667 316 658 359 667 b 540 641 456 667 501 658 b 638 572 579 624 612 601 b 697 469 663 542 683 508 b 717 344 710 431 717 389 m 531 783 l 415 933 l 300 783 l 208 783 l 360 983 l 471 983 l 622 783 "},"ë":{"ha":794,"x_min":0,"x_max":0,"o":"m 621 375 b 562 527 618 436 598 487 b 406 588 525 567 473 588 b 318 570 374 588 345 582 b 247 523 291 559 268 543 b 199 455 227 503 211 480 b 178 375 187 429 180 403 l 621 375 m 717 324 b 715 300 717 316 716 308 l 176 300 b 196 208 177 268 184 237 b 246 133 208 180 225 155 b 321 83 267 112 292 95 b 414 64 350 70 381 64 b 541 98 463 64 505 75 b 622 176 577 121 604 147 l 693 121 b 565 15 654 72 611 37 b 414 -17 518 -6 468 -17 b 280 9 366 -17 321 -8 b 174 81 239 26 203 50 b 103 189 144 111 121 147 b 78 325 86 231 78 276 b 103 461 78 374 86 419 b 172 569 119 503 143 539 b 276 641 202 600 237 624 b 406 667 316 658 359 667 b 540 641 456 667 501 658 b 638 572 579 624 612 601 b 697 469 663 542 683 508 b 717 344 710 431 717 389 m 211 899 b 231 948 211 917 218 934 b 282 969 244 962 261 969 b 333 948 303 969 320 962 b 353 899 346 934 353 917 b 333 849 353 880 346 864 b 282 828 320 835 303 828 b 231 849 261 828 244 835 b 211 899 218 864 211 880 m 478 899 b 497 948 478 917 484 934 b 549 969 510 962 527 969 b 600 948 570 969 587 962 b 619 899 613 934 619 917 b 600 849 619 880 613 864 b 549 828 587 835 570 828 b 497 849 527 828 510 835 b 478 899 484 864 478 880 "},"ì":{"ha":347,"x_min":0,"x_max":0,"o":"m 126 0 l 126 650 l 221 650 l 221 0 m 81 983 l 219 783 l 138 783 l -46 983 "},"í":{"ha":347,"x_min":0,"x_max":0,"o":"m 126 0 l 126 650 l 221 650 l 221 0 m 126 783 l 265 983 l 392 983 l 208 783 "},"î":{"ha":347,"x_min":0,"x_max":0,"o":"m 126 0 l 126 650 l 221 650 l 221 0 m 292 783 l 176 933 l 61 783 l -31 783 l 121 983 l 232 983 l 383 783 "},"ï":{"ha":347,"x_min":0,"x_max":0,"o":"m 126 0 l 126 650 l 221 650 l 221 0 m -29 899 b -10 948 -29 917 -23 934 b 42 969 3 962 20 969 b 93 948 63 969 80 962 b 113 899 106 934 113 917 b 93 849 113 880 106 864 b 42 828 80 835 63 828 b -10 849 20 828 3 835 b -29 899 -23 864 -29 880 m 238 899 b 257 948 238 917 244 934 b 308 969 270 962 287 969 b 360 948 330 969 347 962 b 379 899 373 934 379 917 b 360 849 379 880 373 864 b 308 828 347 835 330 828 b 257 849 287 828 270 835 b 238 899 244 864 238 880 "},"ð":{"ha":849,"x_min":0,"x_max":0,"o":"m 167 325 b 184 224 167 289 172 255 b 233 142 196 192 212 165 b 309 87 253 119 279 100 b 411 67 339 73 373 67 b 513 87 449 67 483 73 b 590 142 543 100 569 119 b 640 224 612 165 628 192 b 657 325 651 255 657 289 b 640 426 657 361 651 395 b 590 508 628 458 612 485 b 513 563 569 531 543 550 b 411 583 483 577 449 583 b 309 563 373 583 339 577 b 233 508 279 550 253 531 b 184 426 212 485 196 458 b 167 325 172 395 167 361 m 489 917 b 594 800 527 881 562 843 b 679 663 627 757 655 712 b 736 511 703 615 722 564 b 757 350 750 458 757 405 b 739 222 757 308 751 266 b 680 104 727 179 707 139 b 573 17 653 69 617 40 b 411 -17 529 -5 475 -17 b 273 9 361 -17 315 -8 b 164 81 231 26 194 50 b 92 189 133 111 109 147 b 67 325 75 231 67 276 b 92 461 67 374 75 419 b 164 569 109 503 133 539 b 273 641 194 600 231 624 b 411 667 315 658 361 667 b 521 647 452 667 488 660 b 619 586 553 634 586 614 l 622 589 b 528 742 597 642 566 693 b 406 874 491 792 450 836 l 250 794 l 200 844 l 353 922 b 281 982 330 944 306 964 b 214 1029 257 1000 234 1015 l 296 1081 b 367 1024 320 1062 344 1043 b 435 967 391 1005 413 986 l 576 1040 l 632 992 l 489 917 "},"ñ":{"ha":807,"x_min":0,"x_max":0,"o":"m 210 650 b 214 592 212 632 213 613 b 215 539 215 570 215 553 l 218 539 b 308 631 237 577 267 608 b 440 667 350 655 394 667 b 626 593 523 667 584 642 b 688 399 667 544 688 479 l 688 0 l 593 0 l 593 360 b 585 453 593 394 590 425 b 556 524 579 481 570 504 b 502 571 543 544 525 560 b 417 588 479 582 451 588 b 344 572 392 588 367 582 b 281 526 320 562 299 547 b 236 447 262 505 247 478 b 219 333 225 415 219 377 l 219 0 l 125 0 l 125 507 b 124 575 125 525 125 547 b 119 650 123 603 121 628 l 210 650 m 182 800 b 195 853 185 818 189 835 b 219 899 201 870 209 886 b 256 932 230 913 242 924 b 310 944 271 940 288 944 b 360 935 326 944 343 941 b 411 913 378 928 394 921 b 460 891 428 905 444 898 b 504 881 475 884 490 881 b 551 902 525 881 541 888 b 572 950 560 916 568 932 l 632 950 b 619 897 629 931 625 914 b 594 851 613 879 605 864 b 557 818 584 837 572 826 b 504 806 542 810 525 806 b 453 815 488 806 470 809 b 403 838 435 822 419 829 b 356 860 387 846 371 853 b 310 869 340 866 325 869 b 263 848 288 869 273 862 b 242 800 253 834 246 818 l 182 800 "},"ò":{"ha":849,"x_min":0,"x_max":0,"o":"m 771 325 b 745 189 771 276 762 231 b 674 81 728 147 704 111 b 564 9 643 50 606 26 b 424 -17 521 -8 475 -17 b 285 9 374 -17 327 -8 b 175 81 242 26 206 50 b 103 189 144 111 121 147 b 78 325 86 231 78 276 b 103 461 78 374 86 419 b 175 569 121 503 144 539 b 285 641 206 600 242 624 b 424 667 327 658 374 667 b 564 641 475 667 521 658 b 674 569 606 624 643 600 b 745 461 704 539 728 503 b 771 325 762 419 771 374 m 671 325 b 653 427 671 361 665 395 b 604 510 642 459 625 487 b 526 567 583 534 557 553 b 424 588 496 581 462 588 b 322 567 386 588 352 581 b 244 510 291 553 266 534 b 195 427 223 487 207 459 b 178 325 184 395 178 361 b 195 223 178 289 184 255 b 244 140 207 191 223 163 b 322 84 266 116 291 97 b 424 64 352 71 386 64 b 526 84 462 64 496 71 b 604 140 557 97 583 116 b 653 223 625 163 642 191 b 671 325 665 255 671 289 m 339 983 l 478 783 l 396 783 l 213 983 "},"ó":{"ha":849,"x_min":0,"x_max":0,"o":"m 771 325 b 745 189 771 276 762 231 b 674 81 728 147 704 111 b 564 9 643 50 606 26 b 424 -17 521 -8 475 -17 b 285 9 374 -17 327 -8 b 175 81 242 26 206 50 b 103 189 144 111 121 147 b 78 325 86 231 78 276 b 103 461 78 374 86 419 b 175 569 121 503 144 539 b 285 641 206 600 242 624 b 424 667 327 658 374 667 b 564 641 475 667 521 658 b 674 569 606 624 643 600 b 745 461 704 539 728 503 b 771 325 762 419 771 374 m 671 325 b 653 427 671 361 665 395 b 604 510 642 459 625 487 b 526 567 583 534 557 553 b 424 588 496 581 462 588 b 322 567 386 588 352 581 b 244 510 291 553 266 534 b 195 427 223 487 207 459 b 178 325 184 395 178 361 b 195 223 178 289 184 255 b 244 140 207 191 223 163 b 322 84 266 116 291 97 b 424 64 352 71 386 64 b 526 84 462 64 496 71 b 604 140 557 97 583 116 b 653 223 625 163 642 191 b 671 325 665 255 671 289 m 367 783 l 506 983 l 632 983 l 449 783 "},"ô":{"ha":849,"x_min":0,"x_max":0,"o":"m 771 325 b 745 189 771 276 762 231 b 674 81 728 147 704 111 b 564 9 643 50 606 26 b 424 -17 521 -8 475 -17 b 285 9 374 -17 327 -8 b 175 81 242 26 206 50 b 103 189 144 111 121 147 b 78 325 86 231 78 276 b 103 461 78 374 86 419 b 175 569 121 503 144 539 b 285 641 206 600 242 624 b 424 667 327 658 374 667 b 564 641 475 667 521 658 b 674 569 606 624 643 600 b 745 461 704 539 728 503 b 771 325 762 419 771 374 m 671 325 b 653 427 671 361 665 395 b 604 510 642 459 625 487 b 526 567 583 534 557 553 b 424 588 496 581 462 588 b 322 567 386 588 352 581 b 244 510 291 553 266 534 b 195 427 223 487 207 459 b 178 325 184 395 178 361 b 195 223 178 289 184 255 b 244 140 207 191 223 163 b 322 84 266 116 291 97 b 424 64 352 71 386 64 b 526 84 462 64 496 71 b 604 140 557 97 583 116 b 653 223 625 163 642 191 b 671 325 665 255 671 289 m 539 783 l 424 933 l 308 783 l 217 783 l 368 983 l 479 983 l 631 783 "},"õ":{"ha":849,"x_min":0,"x_max":0,"o":"m 771 325 b 745 189 771 276 762 231 b 674 81 728 147 704 111 b 564 9 643 50 606 26 b 424 -17 521 -8 475 -17 b 285 9 374 -17 327 -8 b 175 81 242 26 206 50 b 103 189 144 111 121 147 b 78 325 86 231 78 276 b 103 461 78 374 86 419 b 175 569 121 503 144 539 b 285 641 206 600 242 624 b 424 667 327 658 374 667 b 564 641 475 667 521 658 b 674 569 606 624 643 600 b 745 461 704 539 728 503 b 771 325 762 419 771 374 m 671 325 b 653 427 671 361 665 395 b 604 510 642 459 625 487 b 526 567 583 534 557 553 b 424 588 496 581 462 588 b 322 567 386 588 352 581 b 244 510 291 553 266 534 b 195 427 223 487 207 459 b 178 325 184 395 178 361 b 195 223 178 289 184 255 b 244 140 207 191 223 163 b 322 84 266 116 291 97 b 424 64 352 71 386 64 b 526 84 462 64 496 71 b 604 140 557 97 583 116 b 653 223 625 163 642 191 b 671 325 665 255 671 289 m 199 800 b 212 853 201 818 206 835 b 236 899 218 870 226 886 b 273 932 246 913 259 924 b 326 944 287 940 305 944 b 377 935 343 944 360 941 b 428 913 394 928 411 921 b 476 891 444 905 461 898 b 521 881 492 884 507 881 b 567 902 542 881 558 888 b 589 950 577 916 584 932 l 649 950 b 635 897 646 931 641 914 b 611 851 629 879 621 864 b 574 818 601 837 588 826 b 521 806 559 810 541 806 b 469 815 504 806 487 809 b 419 838 452 822 435 829 b 372 860 404 846 388 853 b 326 869 356 866 341 869 b 280 848 305 869 290 862 b 258 800 270 834 263 818 l 199 800 "},"ö":{"ha":849,"x_min":0,"x_max":0,"o":"m 771 325 b 745 189 771 276 762 231 b 674 81 728 147 704 111 b 564 9 643 50 606 26 b 424 -17 521 -8 475 -17 b 285 9 374 -17 327 -8 b 175 81 242 26 206 50 b 103 189 144 111 121 147 b 78 325 86 231 78 276 b 103 461 78 374 86 419 b 175 569 121 503 144 539 b 285 641 206 600 242 624 b 424 667 327 658 374 667 b 564 641 475 667 521 658 b 674 569 606 624 643 600 b 745 461 704 539 728 503 b 771 325 762 419 771 374 m 671 325 b 653 427 671 361 665 395 b 604 510 642 459 625 487 b 526 567 583 534 557 553 b 424 588 496 581 462 588 b 322 567 386 588 352 581 b 244 510 291 553 266 534 b 195 427 223 487 207 459 b 178 325 184 395 178 361 b 195 223 178 289 184 255 b 244 140 207 191 223 163 b 322 84 266 116 291 97 b 424 64 352 71 386 64 b 526 84 462 64 496 71 b 604 140 557 97 583 116 b 653 223 625 163 642 191 b 671 325 665 255 671 289 m 219 899 b 239 948 219 917 226 934 b 290 969 252 962 269 969 b 342 948 312 969 329 962 b 361 899 355 934 361 917 b 342 849 361 880 355 864 b 290 828 329 835 312 828 b 239 849 269 828 252 835 b 219 899 226 864 219 880 m 486 899 b 506 948 486 917 493 934 b 557 969 519 962 536 969 b 608 948 578 969 595 962 b 628 899 621 934 628 917 b 608 849 628 880 621 864 b 557 828 595 835 578 828 b 506 849 536 828 519 835 b 486 899 493 864 486 880 "},"÷":{"ha":925,"x_min":0,"x_max":0,"o":"m 108 379 l 108 463 l 817 463 l 817 379 m 538 646 b 517 594 538 626 531 609 b 463 571 503 578 485 571 b 408 594 440 571 422 578 b 388 646 394 609 388 626 b 408 698 388 665 394 683 b 463 721 422 713 440 721 b 517 698 485 721 503 713 b 538 646 531 683 538 665 m 538 196 b 517 144 538 176 531 159 b 463 121 503 128 485 121 b 408 144 440 121 422 128 b 388 196 394 159 388 176 b 408 248 388 215 394 233 b 463 271 422 263 440 271 b 517 248 485 271 503 263 b 538 196 531 233 538 215 "},"ø":{"ha":849,"x_min":0,"x_max":0,"o":"m 261 114 b 333 74 282 97 306 84 b 421 60 359 65 388 60 b 526 81 460 60 495 67 b 606 137 557 94 583 113 b 657 221 628 160 645 188 b 675 325 669 253 675 288 b 663 413 675 355 671 384 b 625 488 654 442 642 467 l 261 114 m 585 535 b 515 576 566 553 543 567 b 424 590 486 586 456 590 b 319 569 385 590 350 583 b 241 513 289 556 263 537 b 191 428 219 488 203 460 b 174 325 179 397 174 362 b 185 235 174 294 178 263 b 221 161 193 206 205 181 l 585 535 m 688 551 b 748 451 713 523 733 489 b 771 325 763 412 771 370 b 745 189 771 276 762 231 b 673 81 728 147 704 111 b 563 9 642 50 605 26 b 422 -17 520 -8 473 -17 b 301 3 378 -17 337 -10 b 204 56 264 16 232 33 l 111 -39 l 67 4 l 158 99 b 99 201 132 128 113 162 b 78 325 85 239 78 281 b 103 461 78 374 86 419 b 175 569 121 503 144 539 b 284 641 206 600 242 624 b 422 667 326 658 372 667 b 543 648 466 667 506 660 b 643 594 580 635 613 618 l 735 689 l 779 646 l 688 551 "},"ù":{"ha":807,"x_min":0,"x_max":0,"o":"m 597 0 b 593 58 595 18 594 37 b 592 111 592 80 592 97 l 589 111 b 499 19 570 73 540 42 b 367 -17 457 -5 413 -17 b 181 57 284 -17 222 8 b 119 251 140 106 119 171 l 119 650 l 214 650 l 214 290 b 222 197 214 256 217 225 b 251 126 228 169 237 146 b 305 79 264 106 282 90 b 390 63 328 68 356 63 b 463 78 415 63 440 68 b 526 124 487 88 508 103 b 571 203 545 145 560 172 b 588 317 582 235 588 273 l 588 650 l 682 650 l 682 143 b 683 75 682 125 682 103 b 688 0 684 47 686 22 l 597 0 m 328 983 l 467 783 l 385 783 l 201 983 "},"ú":{"ha":807,"x_min":0,"x_max":0,"o":"m 597 0 b 593 58 595 18 594 37 b 592 111 592 80 592 97 l 589 111 b 499 19 570 73 540 42 b 367 -17 457 -5 413 -17 b 181 57 284 -17 222 8 b 119 251 140 106 119 171 l 119 650 l 214 650 l 214 290 b 222 197 214 256 217 225 b 251 126 228 169 237 146 b 305 79 264 106 282 90 b 390 63 328 68 356 63 b 463 78 415 63 440 68 b 526 124 487 88 508 103 b 571 203 545 145 560 172 b 588 317 582 235 588 273 l 588 650 l 682 650 l 682 143 b 683 75 682 125 682 103 b 688 0 684 47 686 22 l 597 0 m 335 783 l 474 983 l 600 983 l 417 783 "},"û":{"ha":807,"x_min":0,"x_max":0,"o":"m 597 0 b 593 58 595 18 594 37 b 592 111 592 80 592 97 l 589 111 b 499 19 570 73 540 42 b 367 -17 457 -5 413 -17 b 181 57 284 -17 222 8 b 119 251 140 106 119 171 l 119 650 l 214 650 l 214 290 b 222 197 214 256 217 225 b 251 126 228 169 237 146 b 305 79 264 106 282 90 b 390 63 328 68 356 63 b 463 78 415 63 440 68 b 526 124 487 88 508 103 b 571 203 545 145 560 172 b 588 317 582 235 588 273 l 588 650 l 682 650 l 682 143 b 683 75 682 125 682 103 b 688 0 684 47 686 22 l 597 0 m 517 783 l 401 933 l 286 783 l 194 783 l 346 983 l 457 983 l 608 783 "},"ü":{"ha":807,"x_min":0,"x_max":0,"o":"m 597 0 b 593 58 595 18 594 37 b 592 111 592 80 592 97 l 589 111 b 499 19 570 73 540 42 b 367 -17 457 -5 413 -17 b 181 57 284 -17 222 8 b 119 251 140 106 119 171 l 119 650 l 214 650 l 214 290 b 222 197 214 256 217 225 b 251 126 228 169 237 146 b 305 79 264 106 282 90 b 390 63 328 68 356 63 b 463 78 415 63 440 68 b 526 124 487 88 508 103 b 571 203 545 145 560 172 b 588 317 582 235 588 273 l 588 650 l 682 650 l 682 143 b 683 75 682 125 682 103 b 688 0 684 47 686 22 l 597 0 m 197 899 b 217 948 197 917 204 934 b 268 969 230 962 247 969 b 319 948 289 969 306 962 b 339 899 332 934 339 917 b 319 849 339 880 332 864 b 268 828 306 835 289 828 b 217 849 247 828 230 835 b 197 899 204 864 197 880 m 464 899 b 483 948 464 917 470 934 b 535 969 496 962 513 969 b 586 948 556 969 573 962 b 606 899 599 934 606 917 b 586 849 606 880 599 864 b 535 828 573 835 556 828 b 483 849 513 828 496 835 b 464 899 470 864 464 880 "},"ý":{"ha":678,"x_min":0,"x_max":0,"o":"m 351 101 l 553 650 l 656 650 l 332 -168 b 258 -288 313 -218 288 -258 b 128 -333 228 -318 184 -333 b 43 -325 99 -333 71 -331 l 53 -239 b 122 -250 75 -246 98 -250 b 199 -220 155 -250 180 -240 b 247 -135 217 -200 233 -172 l 300 1 l 22 650 l 128 650 l 349 101 m 289 783 l 428 983 l 554 983 l 371 783 "},"þ":{"ha":879,"x_min":0,"x_max":0,"o":"m 464 -17 b 327 15 416 -17 370 -6 b 222 110 284 35 249 67 l 219 110 l 219 -333 l 128 -333 l 128 1050 l 219 1050 l 219 538 l 222 538 b 328 634 250 580 285 612 b 464 667 372 656 417 667 b 598 641 512 667 557 658 b 705 569 639 624 675 600 b 776 461 735 539 759 503 b 801 325 793 419 801 374 b 776 189 801 276 793 231 b 705 81 759 147 735 111 b 598 9 675 50 639 26 b 464 -17 557 -8 512 -17 m 701 325 b 684 426 701 361 696 395 b 635 508 672 458 656 485 b 558 563 613 531 588 550 b 456 583 528 577 494 583 b 353 563 418 583 384 577 b 277 508 323 550 298 531 b 228 426 256 485 240 458 b 211 325 217 395 211 361 b 228 224 211 289 217 255 b 277 142 240 192 256 165 b 353 87 298 119 323 100 b 456 67 384 73 418 67 b 558 87 494 67 528 73 b 635 142 588 100 613 119 b 684 224 656 165 672 192 b 701 325 696 255 701 289 "},"ÿ":{"ha":678,"x_min":0,"x_max":0,"o":"m 351 101 l 553 650 l 656 650 l 332 -168 b 258 -288 313 -218 288 -258 b 128 -333 228 -318 184 -333 b 43 -325 99 -333 71 -331 l 53 -239 b 122 -250 75 -246 98 -250 b 199 -220 155 -250 180 -240 b 247 -135 217 -200 233 -172 l 300 1 l 22 650 l 128 650 l 349 101 m 146 899 b 165 948 146 917 152 934 b 217 969 178 962 195 969 b 268 948 238 969 255 962 b 288 899 281 934 288 917 b 268 849 288 880 281 864 b 217 828 255 835 238 828 b 165 849 195 828 178 835 b 146 899 152 864 146 880 m 413 899 b 432 948 413 917 419 934 b 483 969 445 962 462 969 b 535 948 505 969 522 962 b 554 899 548 934 554 917 b 535 849 554 880 548 864 b 483 828 522 835 505 828 b 432 849 462 828 445 835 b 413 899 419 864 413 880 "},"¤":{"ha":806,"x_min":0,"x_max":0,"o":"m 667 599 b 715 508 688 572 704 542 b 732 396 726 475 732 438 b 714 280 732 354 726 316 b 663 186 702 244 685 213 l 782 67 l 728 11 l 606 132 b 515 84 579 112 548 96 b 406 67 481 72 444 67 b 204 135 330 67 263 89 l 81 11 l 25 67 l 147 190 b 81 396 103 243 81 312 b 97 506 81 436 86 472 b 143 596 107 539 123 569 l 25 714 l 81 768 l 199 651 b 292 702 226 673 257 690 b 406 721 326 715 364 721 b 518 703 446 721 484 715 b 610 651 552 691 583 674 l 726 768 l 782 714 l 667 599 m 406 635 b 310 616 370 635 338 628 b 236 565 281 603 256 586 b 190 488 216 543 200 517 b 174 396 179 459 174 428 b 190 302 174 363 179 331 b 236 225 200 273 216 247 b 310 173 256 203 281 185 b 406 154 338 160 370 154 b 501 173 441 154 473 160 b 574 225 530 185 554 203 b 621 302 594 247 610 273 b 638 396 632 331 638 363 b 621 488 638 428 632 459 b 574 565 610 517 594 543 b 501 616 554 586 530 603 b 406 635 473 628 441 635 "},"¦":{"ha":308,"x_min":0,"x_max":0,"o":"m 196 451 l 113 451 l 113 938 l 196 938 m 196 -243 l 113 -243 l 113 243 l 196 243 "},"¨":{"ha":333,"x_min":0,"x_max":0,"o":"m -37 899 b -18 948 -37 917 -31 934 b 33 969 -5 962 12 969 b 85 948 55 969 72 962 b 104 899 98 934 104 917 b 85 849 104 880 98 864 b 33 828 72 835 55 828 b -18 849 12 828 -5 835 b -37 899 -31 864 -37 880 m 229 899 b 249 948 229 917 236 934 b 300 969 262 962 279 969 b 351 948 321 969 338 962 b 371 899 364 934 371 917 b 351 849 371 880 364 864 b 300 828 338 835 321 828 b 249 849 279 828 262 835 b 229 899 236 864 229 880 "},"´":{"ha":333,"x_min":0,"x_max":0,"o":"m 82 783 l 221 983 l 347 983 l 164 783 "},"¸":{"ha":333,"x_min":0,"x_max":0,"o":"m 151 -104 b 200 -99 163 -100 180 -99 b 278 -124 228 -99 254 -107 b 314 -199 302 -140 314 -165 b 299 -257 314 -222 309 -241 b 260 -294 288 -273 275 -285 b 207 -314 244 -304 226 -310 b 150 -319 188 -318 169 -319 b 85 -312 131 -319 110 -317 b 19 -292 61 -308 39 -301 l 42 -242 b 90 -257 57 -249 74 -254 b 142 -261 107 -260 124 -261 b 168 -258 149 -261 158 -260 b 197 -248 178 -256 188 -253 b 221 -228 206 -243 214 -236 b 231 -200 227 -221 231 -211 b 210 -159 231 -181 224 -168 b 156 -146 197 -150 179 -146 b 96 -157 135 -146 115 -150 l 71 -136 l 157 0 l 217 0 l 151 -104 "},"¼":{"ha":1167,"x_min":0,"x_max":0,"o":"m 1088 211 l 1088 136 l 1004 136 l 1004 0 l 928 0 l 928 136 l 667 136 l 667 208 l 910 586 l 1004 586 l 1004 211 m 754 211 l 928 211 l 928 472 l 924 472 m 238 397 l 238 878 l 149 799 l 96 856 l 251 983 l 322 983 l 322 397 m 229 -6 l 856 1026 l 926 989 l 301 -43 "},"½":{"ha":1167,"x_min":0,"x_max":0,"o":"m 708 0 l 708 79 l 940 314 b 981 366 955 330 969 347 b 1000 433 994 385 1000 407 b 974 497 1000 460 991 481 b 907 519 956 512 934 519 b 840 493 881 519 859 511 b 803 422 822 475 809 452 l 719 435 b 785 551 729 482 750 521 b 907 596 819 581 860 596 b 976 585 931 596 954 592 b 1035 555 999 578 1018 568 b 1074 504 1051 541 1065 525 b 1089 433 1084 484 1089 460 b 1080 377 1089 413 1086 394 b 1057 330 1074 360 1066 344 b 1026 290 1048 316 1037 302 b 990 253 1014 277 1002 265 l 813 75 l 1092 75 l 1092 0 m 229 -6 l 856 1026 l 926 989 l 301 -43 m 238 397 l 238 878 l 149 799 l 96 856 l 251 983 l 322 983 l 322 397 "},"¾":{"ha":1167,"x_min":0,"x_max":0,"o":"m 1088 211 l 1088 136 l 1004 136 l 1004 0 l 928 0 l 928 136 l 667 136 l 667 208 l 910 586 l 1004 586 l 1004 211 m 754 211 l 928 211 l 928 472 l 924 472 m 228 743 b 310 765 260 743 288 750 b 344 840 333 780 344 805 b 317 903 344 866 335 887 b 249 926 298 919 275 926 b 190 908 227 926 208 920 b 144 857 172 896 156 879 l 75 893 b 153 974 96 930 122 957 b 251 1000 183 991 216 1000 b 319 990 275 1000 298 997 b 376 960 341 984 359 974 b 414 910 392 947 405 930 b 428 842 423 891 428 868 b 406 765 428 812 421 786 b 349 713 392 743 373 725 b 419 660 378 701 402 684 b 444 571 436 636 444 606 b 428 494 444 542 439 517 b 386 439 418 472 404 454 b 324 406 369 424 348 413 b 250 394 301 398 276 394 b 133 426 206 394 166 405 b 54 528 99 448 73 481 l 133 554 b 178 492 143 527 158 506 b 250 469 199 477 223 469 b 327 494 279 469 304 478 b 361 571 350 511 361 537 b 349 618 361 589 357 605 b 319 649 341 631 331 641 b 276 667 306 657 292 663 b 228 672 261 670 244 672 l 190 672 l 190 743 m 229 -6 l 856 1026 l 926 989 l 301 -43 "},"Ā":{"ha":972,"x_min":0,"x_max":0,"o":"m 14 0 l 439 983 l 536 983 l 958 0 l 847 0 l 739 258 l 231 258 l 124 0 m 701 350 l 485 872 l 268 350 m 300 1111 l 300 1186 l 675 1186 l 675 1111 "},"ā":{"ha":742,"x_min":0,"x_max":0,"o":"m 535 419 b 490 546 535 476 520 518 b 361 588 461 574 418 588 b 253 567 322 588 286 581 b 168 511 219 553 191 534 l 115 574 b 222 640 142 600 178 623 b 371 667 266 658 315 667 b 469 652 406 667 439 662 b 550 608 500 642 527 628 b 604 535 573 589 591 564 b 624 431 617 505 624 470 l 624 146 b 626 68 624 121 625 95 b 635 0 628 41 631 19 l 550 0 b 543 51 547 16 545 33 b 540 106 541 70 540 88 l 538 106 b 437 12 508 62 474 31 b 301 -17 399 -7 354 -17 b 224 -6 276 -17 251 -13 b 152 28 198 1 174 12 b 98 89 130 44 112 64 b 76 181 84 114 76 144 b 115 299 76 231 89 270 b 217 365 140 328 174 350 b 363 392 259 379 308 388 b 535 399 418 397 475 399 l 535 419 m 507 325 b 390 320 468 325 429 323 b 283 301 350 317 315 310 b 204 258 251 291 225 277 b 174 185 184 240 174 215 b 187 126 174 162 178 142 b 222 88 196 111 207 98 b 272 67 237 78 253 72 b 326 61 290 63 308 61 b 415 78 360 61 389 67 b 481 126 441 90 463 106 b 521 194 498 146 512 169 b 535 276 530 220 535 248 l 535 325 l 507 325 m 188 833 l 188 908 l 563 908 l 563 833 "},"Ă":{"ha":972,"x_min":0,"x_max":0,"o":"m 14 0 l 439 983 l 536 983 l 958 0 l 847 0 l 739 258 l 231 258 l 124 0 m 701 350 l 485 872 l 268 350 m 692 1261 b 630 1126 688 1203 667 1158 b 488 1078 592 1094 545 1078 b 345 1126 430 1078 383 1094 b 283 1261 308 1158 287 1203 l 344 1261 b 394 1180 351 1225 368 1198 b 488 1153 421 1162 452 1153 b 581 1180 523 1153 554 1162 b 631 1261 607 1198 624 1225 l 692 1261 "},"ă":{"ha":742,"x_min":0,"x_max":0,"o":"m 535 419 b 490 546 535 476 520 518 b 361 588 461 574 418 588 b 253 567 322 588 286 581 b 168 511 219 553 191 534 l 115 574 b 222 640 142 600 178 623 b 371 667 266 658 315 667 b 469 652 406 667 439 662 b 550 608 500 642 527 628 b 604 535 573 589 591 564 b 624 431 617 505 624 470 l 624 146 b 626 68 624 121 625 95 b 635 0 628 41 631 19 l 550 0 b 543 51 547 16 545 33 b 540 106 541 70 540 88 l 538 106 b 437 12 508 62 474 31 b 301 -17 399 -7 354 -17 b 224 -6 276 -17 251 -13 b 152 28 198 1 174 12 b 98 89 130 44 112 64 b 76 181 84 114 76 144 b 115 299 76 231 89 270 b 217 365 140 328 174 350 b 363 392 259 379 308 388 b 535 399 418 397 475 399 l 535 419 m 507 325 b 390 320 468 325 429 323 b 283 301 350 317 315 310 b 204 258 251 291 225 277 b 174 185 184 240 174 215 b 187 126 174 162 178 142 b 222 88 196 111 207 98 b 272 67 237 78 253 72 b 326 61 290 63 308 61 b 415 78 360 61 389 67 b 481 126 441 90 463 106 b 521 194 498 146 512 169 b 535 276 530 220 535 248 l 535 325 l 507 325 m 583 983 b 522 848 580 925 559 880 b 379 800 484 816 437 800 b 237 848 322 800 274 816 b 175 983 199 880 179 925 l 236 983 b 286 902 243 947 259 920 b 379 875 313 884 344 875 b 472 902 414 875 445 884 b 522 983 499 920 516 947 l 583 983 "},"Ą":{"ha":972,"x_min":0,"x_max":0,"o":"m 974 -260 b 917 -297 958 -275 939 -288 b 849 -310 894 -305 872 -310 b 801 -301 832 -310 816 -307 b 762 -277 787 -296 773 -288 b 734 -240 750 -266 741 -254 b 724 -192 727 -225 724 -209 b 735 -135 724 -172 727 -153 b 764 -84 742 -117 752 -100 b 804 -38 776 -68 789 -53 b 847 0 819 -24 833 -11 l 739 258 l 231 258 l 124 0 l 14 0 l 439 983 l 536 983 l 958 0 l 914 0 b 835 -90 880 -34 853 -64 b 807 -168 816 -115 807 -141 b 828 -216 807 -187 814 -203 b 876 -235 842 -228 858 -235 b 915 -227 889 -235 902 -232 b 947 -204 927 -222 938 -214 l 974 -260 m 701 350 l 485 872 l 268 350 "},"ą":{"ha":742,"x_min":0,"x_max":0,"o":"m 679 -260 b 622 -297 663 -275 644 -288 b 554 -310 600 -305 577 -310 b 507 -301 538 -310 522 -307 b 467 -277 492 -296 479 -288 b 440 -240 456 -266 447 -254 b 429 -192 433 -225 429 -209 b 440 -135 429 -172 433 -153 b 469 -84 448 -117 457 -100 b 510 -38 481 -68 495 -53 b 553 0 525 -24 539 -11 l 550 0 b 543 51 547 16 545 33 b 540 106 541 70 540 88 l 538 106 b 437 12 508 62 474 31 b 301 -17 399 -7 354 -17 b 224 -6 276 -17 251 -13 b 152 28 198 1 174 12 b 98 89 130 44 112 64 b 76 181 84 114 76 144 b 115 299 76 231 89 270 b 217 365 140 328 174 350 b 363 392 259 379 308 388 b 535 399 418 397 475 399 l 535 419 b 490 546 535 476 520 518 b 361 588 461 574 418 588 b 253 567 322 588 286 581 b 168 511 219 553 191 534 l 115 574 b 222 640 142 600 178 623 b 371 667 266 658 315 667 b 469 652 406 667 439 662 b 550 608 500 642 527 628 b 604 535 573 589 591 564 b 624 431 617 505 624 470 l 624 146 b 626 68 624 121 625 95 b 635 0 628 41 631 19 l 619 0 b 540 -90 585 -34 559 -64 b 513 -168 522 -115 513 -141 b 533 -216 513 -187 519 -203 b 582 -235 547 -228 563 -235 b 620 -227 595 -235 608 -232 b 653 -204 633 -222 644 -214 l 679 -260 m 507 325 b 390 320 468 325 429 323 b 283 301 350 317 315 310 b 204 258 251 291 225 277 b 174 185 184 240 174 215 b 187 126 174 162 178 142 b 222 88 196 111 207 98 b 272 67 237 78 253 72 b 326 61 290 63 308 61 b 415 78 360 61 389 67 b 481 126 441 90 463 106 b 521 194 498 146 512 169 b 535 276 530 220 535 248 l 535 325 l 507 325 "},"Ć":{"ha":1000,"x_min":0,"x_max":0,"o":"m 958 158 b 898 88 942 133 922 110 b 816 29 874 65 847 46 b 713 -10 785 13 751 -1 b 590 -25 676 -20 635 -25 b 385 14 516 -25 448 -12 b 222 122 322 40 268 76 b 116 285 177 167 141 222 b 78 492 91 348 78 417 b 117 699 78 567 91 636 b 224 862 143 762 178 816 b 387 969 270 908 324 944 b 590 1008 449 995 517 1008 b 697 997 626 1008 662 1005 b 794 966 731 990 764 979 b 878 917 825 953 853 936 b 940 853 903 898 924 877 l 857 792 b 816 839 847 807 833 823 b 756 881 799 855 779 869 b 680 910 732 893 707 902 b 592 921 653 917 623 921 b 420 886 528 921 471 909 b 292 792 370 863 327 832 b 211 656 256 753 230 707 b 183 492 193 604 183 549 b 212 328 183 434 193 380 b 293 191 231 276 258 230 b 422 97 328 152 371 120 b 592 63 472 74 529 62 b 753 97 648 63 702 74 b 881 208 804 120 846 157 l 958 158 m 513 1061 l 651 1261 l 778 1261 l 594 1061 "},"ć":{"ha":694,"x_min":0,"x_max":0,"o":"m 593 501 b 524 563 577 526 554 547 b 426 588 494 579 462 588 b 324 567 388 588 354 581 b 245 512 293 554 267 535 b 195 428 223 488 207 460 b 178 325 184 397 178 362 b 195 222 178 288 184 254 b 244 140 207 191 223 163 b 322 84 266 116 292 97 b 425 64 353 71 387 64 b 531 88 467 64 502 72 b 601 149 559 103 583 124 l 672 96 b 570 14 644 62 610 34 b 425 -17 530 -6 481 -17 b 282 9 372 -17 325 -8 b 173 81 239 26 203 50 b 103 189 143 111 119 147 b 78 325 86 231 78 276 b 103 461 78 374 86 419 b 173 569 119 503 143 539 b 282 641 203 600 239 624 b 425 667 325 658 372 667 b 558 638 469 667 513 657 b 667 554 603 619 639 591 l 593 501 m 347 783 l 486 983 l 613 983 l 429 783 "},"Ĉ":{"ha":1000,"x_min":0,"x_max":0,"o":"m 958 158 b 898 88 942 133 922 110 b 816 29 874 65 847 46 b 713 -10 785 13 751 -1 b 590 -25 676 -20 635 -25 b 385 14 516 -25 448 -12 b 222 122 322 40 268 76 b 116 285 177 167 141 222 b 78 492 91 348 78 417 b 117 699 78 567 91 636 b 224 862 143 762 178 816 b 387 969 270 908 324 944 b 590 1008 449 995 517 1008 b 697 997 626 1008 662 1005 b 794 966 731 990 764 979 b 878 917 825 953 853 936 b 940 853 903 898 924 877 l 857 792 b 816 839 847 807 833 823 b 756 881 799 855 779 869 b 680 910 732 893 707 902 b 592 921 653 917 623 921 b 420 886 528 921 471 909 b 292 792 370 863 327 832 b 211 656 256 753 230 707 b 183 492 193 604 183 549 b 212 328 183 434 193 380 b 293 191 231 276 258 230 b 422 97 328 152 371 120 b 592 63 472 74 529 62 b 753 97 648 63 702 74 b 881 208 804 120 846 157 l 958 158 m 704 1061 l 589 1211 l 474 1061 l 382 1061 l 533 1261 l 644 1261 l 796 1061 "},"ĉ":{"ha":694,"x_min":0,"x_max":0,"o":"m 593 501 b 524 563 577 526 554 547 b 426 588 494 579 462 588 b 324 567 388 588 354 581 b 245 512 293 554 267 535 b 195 428 223 488 207 460 b 178 325 184 397 178 362 b 195 222 178 288 184 254 b 244 140 207 191 223 163 b 322 84 266 116 292 97 b 425 64 353 71 387 64 b 531 88 467 64 502 72 b 601 149 559 103 583 124 l 672 96 b 570 14 644 62 610 34 b 425 -17 530 -6 481 -17 b 282 9 372 -17 325 -8 b 173 81 239 26 203 50 b 103 189 143 111 119 147 b 78 325 86 231 78 276 b 103 461 78 374 86 419 b 173 569 119 503 143 539 b 282 641 203 600 239 624 b 425 667 325 658 372 667 b 558 638 469 667 513 657 b 667 554 603 619 639 591 l 593 501 m 536 783 l 421 933 l 306 783 l 214 783 l 365 983 l 476 983 l 628 783 "},"Ċ":{"ha":1000,"x_min":0,"x_max":0,"o":"m 958 158 b 898 88 942 133 922 110 b 816 29 874 65 847 46 b 713 -10 785 13 751 -1 b 590 -25 676 -20 635 -25 b 385 14 516 -25 448 -12 b 222 122 322 40 268 76 b 116 285 177 167 141 222 b 78 492 91 348 78 417 b 117 699 78 567 91 636 b 224 862 143 762 178 816 b 387 969 270 908 324 944 b 590 1008 449 995 517 1008 b 697 997 626 1008 662 1005 b 794 966 731 990 764 979 b 878 917 825 953 853 936 b 940 853 903 898 924 877 l 857 792 b 816 839 847 807 833 823 b 756 881 799 855 779 869 b 680 910 732 893 707 902 b 592 921 653 917 623 921 b 420 886 528 921 471 909 b 292 792 370 863 327 832 b 211 656 256 753 230 707 b 183 492 193 604 183 549 b 212 328 183 434 193 380 b 293 191 231 276 258 230 b 422 97 328 152 371 120 b 592 63 472 74 529 62 b 753 97 648 63 702 74 b 881 208 804 120 846 157 l 958 158 m 643 1178 b 622 1130 643 1158 636 1142 b 576 1111 608 1117 593 1111 b 531 1130 560 1111 544 1117 b 510 1178 517 1142 510 1158 b 531 1226 510 1197 517 1213 b 576 1244 544 1238 560 1244 b 622 1226 593 1244 608 1238 b 643 1178 636 1213 643 1197 "},"ċ":{"ha":694,"x_min":0,"x_max":0,"o":"m 593 501 b 524 563 577 526 554 547 b 426 588 494 579 462 588 b 324 567 388 588 354 581 b 245 512 293 554 267 535 b 195 428 223 488 207 460 b 178 325 184 397 178 362 b 195 222 178 288 184 254 b 244 140 207 191 223 163 b 322 84 266 116 292 97 b 425 64 353 71 387 64 b 531 88 467 64 502 72 b 601 149 559 103 583 124 l 672 96 b 570 14 644 62 610 34 b 425 -17 530 -6 481 -17 b 282 9 372 -17 325 -8 b 173 81 239 26 203 50 b 103 189 143 111 119 147 b 78 325 86 231 78 276 b 103 461 78 374 86 419 b 173 569 119 503 143 539 b 282 641 203 600 239 624 b 425 667 325 658 372 667 b 558 638 469 667 513 657 b 667 554 603 619 639 591 l 593 501 m 476 900 b 456 852 476 881 469 865 b 410 833 442 840 426 833 b 364 852 393 833 378 840 b 343 900 350 865 343 881 b 364 948 343 919 350 935 b 410 967 378 960 393 967 b 456 948 426 967 442 960 b 476 900 469 935 476 919 "},"Č":{"ha":1000,"x_min":0,"x_max":0,"o":"m 958 158 b 898 88 942 133 922 110 b 816 29 874 65 847 46 b 713 -10 785 13 751 -1 b 590 -25 676 -20 635 -25 b 385 14 516 -25 448 -12 b 222 122 322 40 268 76 b 116 285 177 167 141 222 b 78 492 91 348 78 417 b 117 699 78 567 91 636 b 224 862 143 762 178 816 b 387 969 270 908 324 944 b 590 1008 449 995 517 1008 b 697 997 626 1008 662 1005 b 794 966 731 990 764 979 b 878 917 825 953 853 936 b 940 853 903 898 924 877 l 857 792 b 816 839 847 807 833 823 b 756 881 799 855 779 869 b 680 910 732 893 707 902 b 592 921 653 917 623 921 b 420 886 528 921 471 909 b 292 792 370 863 327 832 b 211 656 256 753 230 707 b 183 492 193 604 183 549 b 212 328 183 434 193 380 b 293 191 231 276 258 230 b 422 97 328 152 371 120 b 592 63 472 74 529 62 b 753 97 648 63 702 74 b 881 208 804 120 846 157 l 958 158 m 532 1061 l 381 1261 l 472 1261 l 588 1111 l 703 1261 l 794 1261 l 643 1061 "},"č":{"ha":694,"x_min":0,"x_max":0,"o":"m 593 501 b 524 563 577 526 554 547 b 426 588 494 579 462 588 b 324 567 388 588 354 581 b 245 512 293 554 267 535 b 195 428 223 488 207 460 b 178 325 184 397 178 362 b 195 222 178 288 184 254 b 244 140 207 191 223 163 b 322 84 266 116 292 97 b 425 64 353 71 387 64 b 531 88 467 64 502 72 b 601 149 559 103 583 124 l 672 96 b 570 14 644 62 610 34 b 425 -17 530 -6 481 -17 b 282 9 372 -17 325 -8 b 173 81 239 26 203 50 b 103 189 143 111 119 147 b 78 325 86 231 78 276 b 103 461 78 374 86 419 b 173 569 119 503 143 539 b 282 641 203 600 239 624 b 425 667 325 658 372 667 b 558 638 469 667 513 657 b 667 554 603 619 639 591 l 593 501 m 367 783 l 215 983 l 307 983 l 422 833 l 538 983 l 629 983 l 478 783 "},"Ď":{"ha":1051,"x_min":0,"x_max":0,"o":"m 457 983 b 641 953 518 983 579 973 b 808 860 703 932 758 902 b 928 706 857 819 897 768 b 974 492 958 645 974 573 b 928 276 974 409 958 338 b 808 123 897 215 857 164 b 641 31 758 82 703 51 b 457 0 579 10 518 0 l 131 0 l 131 983 m 429 89 b 623 124 503 89 568 100 b 760 215 678 147 724 177 b 841 343 796 252 823 295 b 868 492 859 391 868 441 b 841 640 868 543 859 592 b 760 769 823 688 796 731 b 623 860 724 806 678 837 b 429 894 568 883 503 894 l 231 894 l 231 89 m 426 1061 l 275 1261 l 367 1261 l 482 1111 l 597 1261 l 689 1261 l 538 1061 "},"ď":{"ha":885,"x_min":0,"x_max":0,"o":"m 660 110 b 551 15 632 68 596 37 b 414 -17 507 -6 461 -17 b 276 10 363 -17 317 -8 b 170 82 234 27 199 51 b 102 190 141 113 118 149 b 78 325 86 232 78 277 b 102 460 78 373 86 418 b 170 568 118 501 141 538 b 276 640 199 599 234 623 b 414 667 317 658 363 667 b 551 634 461 667 507 656 b 660 538 596 612 632 580 l 663 538 l 663 1050 l 757 1050 l 757 0 l 663 0 l 663 110 l 660 110 m 178 325 b 194 223 178 289 183 255 b 242 140 206 191 222 163 b 319 84 263 116 289 97 b 424 64 350 71 385 64 b 524 84 460 64 493 71 b 603 139 554 97 581 116 b 655 222 625 162 642 190 b 674 325 667 253 674 288 b 655 428 674 362 667 397 b 603 512 642 460 625 488 b 524 567 581 535 554 554 b 424 588 493 581 460 588 b 319 567 385 588 350 581 b 242 510 289 553 263 534 b 194 427 222 487 206 459 b 178 325 183 395 178 361 m 835 726 l 921 983 l 1019 983 l 914 726 "},"Đ":{"ha":1051,"x_min":0,"x_max":0,"o":"m 18 482 l 18 557 l 119 557 l 119 983 l 446 983 b 630 953 507 983 568 973 b 797 860 691 932 747 902 b 917 706 846 819 886 768 b 963 492 947 645 963 573 b 917 276 963 409 947 338 b 797 123 886 215 846 164 b 630 31 747 82 691 51 b 446 0 568 10 507 0 l 119 0 l 119 482 m 414 92 b 609 126 489 92 554 103 b 747 216 664 148 710 178 b 828 344 783 253 810 296 b 854 492 845 391 854 441 b 828 640 854 543 845 592 b 747 767 810 687 783 730 b 609 858 710 805 664 835 b 414 892 554 880 489 892 l 219 892 l 219 557 l 578 557 l 578 482 l 219 482 l 219 92 "},"đ":{"ha":885,"x_min":0,"x_max":0,"o":"m 663 1050 l 757 1050 l 757 861 l 835 861 l 835 792 l 757 792 l 757 0 l 663 0 l 663 110 l 660 110 b 551 15 632 68 596 37 b 414 -17 507 -6 461 -17 b 276 10 363 -17 317 -8 b 170 82 234 27 199 51 b 102 190 141 113 118 149 b 78 325 86 232 78 277 b 102 460 78 373 86 418 b 170 568 118 501 141 538 b 276 640 199 599 234 623 b 414 667 317 658 363 667 b 551 634 461 667 507 656 b 660 538 596 612 632 580 l 663 538 l 663 792 l 446 792 l 446 861 l 663 861 m 178 325 b 194 223 178 289 183 255 b 242 140 206 191 222 163 b 319 84 263 116 289 97 b 424 64 350 71 385 64 b 524 84 460 64 493 71 b 603 139 554 97 581 116 b 655 222 625 162 642 190 b 674 325 667 253 674 288 b 655 428 674 362 667 397 b 603 512 642 460 625 488 b 524 567 581 535 554 554 b 424 588 493 581 460 588 b 319 567 385 588 350 581 b 242 510 289 553 263 534 b 194 427 222 487 206 459 b 178 325 183 395 178 361 "},"Ē":{"ha":822,"x_min":0,"x_max":0,"o":"m 757 89 l 757 0 l 131 0 l 131 983 l 740 983 l 740 894 l 231 894 l 231 556 l 707 556 l 707 468 l 231 468 l 231 89 m 253 1111 l 253 1186 l 628 1186 l 628 1111 "},"ē":{"ha":794,"x_min":0,"x_max":0,"o":"m 621 375 b 562 527 618 436 598 487 b 406 588 525 567 473 588 b 318 570 374 588 345 582 b 247 523 291 559 268 543 b 199 455 227 503 211 480 b 178 375 187 429 180 403 l 621 375 m 717 324 b 715 300 717 316 716 308 l 176 300 b 196 208 177 268 184 237 b 246 133 208 180 225 155 b 321 83 267 112 292 95 b 414 64 350 70 381 64 b 541 98 463 64 505 75 b 622 176 577 121 604 147 l 693 121 b 565 15 654 72 611 37 b 414 -17 518 -6 468 -17 b 280 9 366 -17 321 -8 b 174 81 239 26 203 50 b 103 189 144 111 121 147 b 78 325 86 231 78 276 b 103 461 78 374 86 419 b 172 569 119 503 143 539 b 276 641 202 600 237 624 b 406 667 316 658 359 667 b 540 641 456 667 501 658 b 638 572 579 624 612 601 b 697 469 663 542 683 508 b 717 344 710 431 717 389 m 224 833 l 224 908 l 599 908 l 599 833 "},"Ĕ":{"ha":822,"x_min":0,"x_max":0,"o":"m 757 89 l 757 0 l 131 0 l 131 983 l 740 983 l 740 894 l 231 894 l 231 556 l 707 556 l 707 468 l 231 468 l 231 89 m 643 1261 b 581 1126 639 1203 619 1158 b 439 1078 544 1094 496 1078 b 297 1126 381 1078 334 1094 b 235 1261 259 1158 238 1203 l 296 1261 b 346 1180 302 1225 319 1198 b 439 1153 373 1162 404 1153 b 532 1180 474 1153 505 1162 b 582 1261 559 1198 575 1225 l 643 1261 "},"ĕ":{"ha":794,"x_min":0,"x_max":0,"o":"m 621 375 b 562 527 618 436 598 487 b 406 588 525 567 473 588 b 318 570 374 588 345 582 b 247 523 291 559 268 543 b 199 455 227 503 211 480 b 178 375 187 429 180 403 l 621 375 m 717 324 b 715 300 717 316 716 308 l 176 300 b 196 208 177 268 184 237 b 246 133 208 180 225 155 b 321 83 267 112 292 95 b 414 64 350 70 381 64 b 541 98 463 64 505 75 b 622 176 577 121 604 147 l 693 121 b 565 15 654 72 611 37 b 414 -17 518 -6 468 -17 b 280 9 366 -17 321 -8 b 174 81 239 26 203 50 b 103 189 144 111 121 147 b 78 325 86 231 78 276 b 103 461 78 374 86 419 b 172 569 119 503 143 539 b 276 641 202 600 237 624 b 406 667 316 658 359 667 b 540 641 456 667 501 658 b 638 572 579 624 612 601 b 697 469 663 542 683 508 b 717 344 710 431 717 389 m 613 983 b 551 848 609 925 588 880 b 408 800 513 816 466 800 b 266 848 351 800 303 816 b 204 983 228 880 208 925 l 265 983 b 315 902 272 947 288 920 b 408 875 342 884 373 875 b 501 902 444 875 475 884 b 551 983 528 920 545 947 l 613 983 "},"Ė":{"ha":822,"x_min":0,"x_max":0,"o":"m 757 89 l 757 0 l 131 0 l 131 983 l 740 983 l 740 894 l 231 894 l 231 556 l 707 556 l 707 468 l 231 468 l 231 89 m 513 1178 b 492 1130 513 1158 506 1142 b 446 1111 478 1117 463 1111 b 400 1130 429 1111 414 1117 b 379 1178 386 1142 379 1158 b 400 1226 379 1197 386 1213 b 446 1244 414 1238 429 1244 b 492 1226 463 1244 478 1238 b 513 1178 506 1213 513 1197 "},"ė":{"ha":794,"x_min":0,"x_max":0,"o":"m 621 375 b 562 527 618 436 598 487 b 406 588 525 567 473 588 b 318 570 374 588 345 582 b 247 523 291 559 268 543 b 199 455 227 503 211 480 b 178 375 187 429 180 403 l 621 375 m 717 324 b 715 300 717 316 716 308 l 176 300 b 196 208 177 268 184 237 b 246 133 208 180 225 155 b 321 83 267 112 292 95 b 414 64 350 70 381 64 b 541 98 463 64 505 75 b 622 176 577 121 604 147 l 693 121 b 565 15 654 72 611 37 b 414 -17 518 -6 468 -17 b 280 9 366 -17 321 -8 b 174 81 239 26 203 50 b 103 189 144 111 121 147 b 78 325 86 231 78 276 b 103 461 78 374 86 419 b 172 569 119 503 143 539 b 276 641 202 600 237 624 b 406 667 316 658 359 667 b 540 641 456 667 501 658 b 638 572 579 624 612 601 b 697 469 663 542 683 508 b 717 344 710 431 717 389 m 475 900 b 454 852 475 881 468 865 b 408 833 440 840 425 833 b 363 852 392 833 376 840 b 342 900 349 865 342 881 b 363 948 342 919 349 935 b 408 967 376 960 392 967 b 454 948 425 967 440 960 b 475 900 468 935 475 919 "},"Ę":{"ha":822,"x_min":0,"x_max":0,"o":"m 794 -260 b 738 -297 779 -275 760 -288 b 669 -310 715 -305 693 -310 b 622 -301 653 -310 637 -307 b 583 -277 607 -296 594 -288 b 555 -240 571 -266 562 -254 b 544 -192 548 -225 544 -209 b 556 -135 544 -172 548 -153 b 585 -84 563 -117 573 -100 b 625 -38 597 -68 610 -53 b 668 0 640 -24 654 -11 l 131 0 l 131 983 l 740 983 l 740 894 l 231 894 l 231 556 l 707 556 l 707 468 l 231 468 l 231 89 l 757 89 l 757 0 l 735 0 b 656 -90 700 -34 674 -64 b 628 -168 637 -115 628 -141 b 649 -216 628 -187 635 -203 b 697 -235 663 -228 679 -235 b 735 -227 710 -235 723 -232 b 768 -204 748 -222 759 -214 l 794 -260 "},"ę":{"ha":794,"x_min":0,"x_max":0,"o":"m 554 -260 b 497 -297 538 -275 519 -288 b 429 -310 475 -305 452 -310 b 382 -301 413 -310 397 -307 b 342 -277 367 -296 354 -288 b 315 -240 331 -266 322 -254 b 304 -192 308 -225 304 -209 b 336 -94 304 -156 315 -124 b 407 -17 357 -65 381 -39 b 276 10 360 -16 316 -7 b 172 82 235 28 201 51 b 103 190 142 113 119 148 b 78 325 86 231 78 276 b 103 461 78 374 86 419 b 172 569 119 503 143 539 b 276 641 202 600 237 624 b 406 667 316 658 359 667 b 540 641 456 667 501 658 b 638 572 579 624 612 601 b 697 469 663 542 683 508 b 717 344 710 431 717 389 l 717 324 b 715 300 717 316 716 308 l 176 300 b 196 208 177 268 184 237 b 246 133 208 180 225 155 b 321 83 267 112 292 95 b 414 64 350 70 381 64 b 541 98 463 64 505 75 b 622 176 577 121 604 147 l 693 121 b 596 32 663 82 631 52 b 483 -10 561 12 523 -2 b 413 -93 453 -41 429 -69 b 388 -168 396 -117 388 -142 b 408 -216 388 -187 394 -203 b 457 -235 422 -228 438 -235 b 495 -227 470 -235 483 -232 b 528 -204 508 -222 519 -214 l 554 -260 m 621 375 b 562 527 618 436 598 487 b 406 588 525 567 473 588 b 318 570 374 588 345 582 b 247 523 291 559 268 543 b 199 455 227 503 211 480 b 178 375 187 429 180 403 l 621 375 "},"Ě":{"ha":822,"x_min":0,"x_max":0,"o":"m 757 89 l 757 0 l 131 0 l 131 983 l 740 983 l 740 894 l 231 894 l 231 556 l 707 556 l 707 468 l 231 468 l 231 89 m 385 1061 l 233 1261 l 325 1261 l 440 1111 l 556 1261 l 647 1261 l 496 1061 "},"ě":{"ha":794,"x_min":0,"x_max":0,"o":"m 621 375 b 562 527 618 436 598 487 b 406 588 525 567 473 588 b 318 570 374 588 345 582 b 247 523 291 559 268 543 b 199 455 227 503 211 480 b 178 375 187 429 180 403 l 621 375 m 717 324 b 715 300 717 316 716 308 l 176 300 b 196 208 177 268 184 237 b 246 133 208 180 225 155 b 321 83 267 112 292 95 b 414 64 350 70 381 64 b 541 98 463 64 505 75 b 622 176 577 121 604 147 l 693 121 b 565 15 654 72 611 37 b 414 -17 518 -6 468 -17 b 280 9 366 -17 321 -8 b 174 81 239 26 203 50 b 103 189 144 111 121 147 b 78 325 86 231 78 276 b 103 461 78 374 86 419 b 172 569 119 503 143 539 b 276 641 202 600 237 624 b 406 667 316 658 359 667 b 540 641 456 667 501 658 b 638 572 579 624 612 601 b 697 469 663 542 683 508 b 717 344 710 431 717 389 m 353 783 l 201 983 l 293 983 l 408 833 l 524 983 l 615 983 l 464 783 "},"Ĝ":{"ha":1082,"x_min":0,"x_max":0,"o":"m 876 807 b 754 891 842 843 801 871 b 592 921 707 911 653 921 b 422 886 529 921 472 909 b 293 792 371 863 328 832 b 212 656 258 753 231 707 b 183 492 193 604 183 549 b 212 328 183 434 193 380 b 293 192 231 276 258 231 b 422 99 328 153 371 122 b 592 64 472 75 529 64 b 744 82 647 64 698 70 b 857 128 791 94 828 109 l 857 426 l 628 426 l 628 514 l 957 514 l 957 71 b 783 -1 903 38 845 14 b 590 -25 721 -17 657 -25 b 385 14 516 -25 448 -12 b 222 122 322 40 268 76 b 116 285 177 167 141 222 b 78 492 91 348 78 417 b 117 699 78 567 91 636 b 224 862 143 762 178 816 b 387 969 270 908 324 944 b 590 1008 449 995 517 1008 b 796 974 669 1008 738 997 b 946 876 854 950 904 918 l 876 807 m 713 1061 l 597 1211 l 482 1061 l 390 1061 l 542 1261 l 653 1261 l 804 1061 "},"ĝ":{"ha":878,"x_min":0,"x_max":0,"o":"m 160 -131 b 266 -215 186 -164 221 -192 b 408 -250 311 -238 358 -250 b 526 -230 455 -250 494 -243 b 605 -175 559 -216 585 -198 b 649 -94 625 -152 639 -125 b 663 6 658 -63 663 -30 l 663 128 l 660 128 b 553 33 635 87 599 56 b 414 0 508 11 461 0 b 276 25 363 0 317 8 b 170 94 234 42 199 65 b 102 199 141 123 118 158 b 78 331 86 239 78 283 b 102 461 78 377 86 420 b 170 568 118 502 141 538 b 276 640 199 599 234 623 b 414 667 317 658 363 667 b 553 633 461 667 507 656 b 660 538 598 611 634 579 l 663 538 l 663 650 l 757 650 l 757 6 b 742 -107 757 -30 752 -67 b 688 -217 733 -147 715 -183 b 581 -300 662 -250 626 -278 b 404 -333 535 -322 476 -333 b 232 -299 344 -333 287 -322 b 92 -203 177 -275 131 -244 l 160 -131 m 178 333 b 194 236 178 299 183 267 b 242 156 206 206 222 179 b 319 101 263 132 289 114 b 424 81 350 87 385 81 b 524 99 460 81 493 87 b 603 150 554 111 581 128 b 655 230 625 172 642 199 b 674 333 667 261 674 295 b 655 431 674 368 667 400 b 603 511 642 461 625 488 b 524 567 581 534 554 553 b 424 588 493 581 460 588 b 319 567 385 588 350 581 b 242 511 289 553 263 534 b 194 431 222 488 206 461 b 178 333 183 400 178 368 m 543 783 l 428 933 l 313 783 l 221 783 l 372 983 l 483 983 l 635 783 "},"Ğ":{"ha":1082,"x_min":0,"x_max":0,"o":"m 876 807 b 754 891 842 843 801 871 b 592 921 707 911 653 921 b 422 886 529 921 472 909 b 293 792 371 863 328 832 b 212 656 258 753 231 707 b 183 492 193 604 183 549 b 212 328 183 434 193 380 b 293 192 231 276 258 231 b 422 99 328 153 371 122 b 592 64 472 75 529 64 b 744 82 647 64 698 70 b 857 128 791 94 828 109 l 857 426 l 628 426 l 628 514 l 957 514 l 957 71 b 783 -1 903 38 845 14 b 590 -25 721 -17 657 -25 b 385 14 516 -25 448 -12 b 222 122 322 40 268 76 b 116 285 177 167 141 222 b 78 492 91 348 78 417 b 117 699 78 567 91 636 b 224 862 143 762 178 816 b 387 969 270 908 324 944 b 590 1008 449 995 517 1008 b 796 974 669 1008 738 997 b 946 876 854 950 904 918 l 876 807 m 796 1261 b 734 1126 792 1203 772 1158 b 592 1078 697 1094 649 1078 b 449 1126 534 1078 487 1094 b 388 1261 412 1158 391 1203 l 449 1261 b 499 1180 455 1225 472 1198 b 592 1153 525 1162 556 1153 b 685 1180 627 1153 658 1162 b 735 1261 712 1198 728 1225 l 796 1261 "},"ğ":{"ha":878,"x_min":0,"x_max":0,"o":"m 160 -131 b 266 -215 186 -164 221 -192 b 408 -250 311 -238 358 -250 b 526 -230 455 -250 494 -243 b 605 -175 559 -216 585 -198 b 649 -94 625 -152 639 -125 b 663 6 658 -63 663 -30 l 663 128 l 660 128 b 553 33 635 87 599 56 b 414 0 508 11 461 0 b 276 25 363 0 317 8 b 170 94 234 42 199 65 b 102 199 141 123 118 158 b 78 331 86 239 78 283 b 102 461 78 377 86 420 b 170 568 118 502 141 538 b 276 640 199 599 234 623 b 414 667 317 658 363 667 b 553 633 461 667 507 656 b 660 538 598 611 634 579 l 663 538 l 663 650 l 757 650 l 757 6 b 742 -107 757 -30 752 -67 b 688 -217 733 -147 715 -183 b 581 -300 662 -250 626 -278 b 404 -333 535 -322 476 -333 b 232 -299 344 -333 287 -322 b 92 -203 177 -275 131 -244 l 160 -131 m 178 333 b 194 236 178 299 183 267 b 242 156 206 206 222 179 b 319 101 263 132 289 114 b 424 81 350 87 385 81 b 524 99 460 81 493 87 b 603 150 554 111 581 128 b 655 230 625 172 642 199 b 674 333 667 261 674 295 b 655 431 674 368 667 400 b 603 511 642 461 625 488 b 524 567 581 534 554 553 b 424 588 493 581 460 588 b 319 567 385 588 350 581 b 242 511 289 553 263 534 b 194 431 222 488 206 461 b 178 333 183 400 178 368 m 635 983 b 573 848 631 925 610 880 b 431 800 535 816 488 800 b 288 848 373 800 326 816 b 226 983 251 880 230 925 l 288 983 b 338 902 294 947 311 920 b 431 875 364 884 395 875 b 524 902 466 875 497 884 b 574 983 550 920 567 947 l 635 983 "},"Ġ":{"ha":1082,"x_min":0,"x_max":0,"o":"m 876 807 b 754 891 842 843 801 871 b 592 921 707 911 653 921 b 422 886 529 921 472 909 b 293 792 371 863 328 832 b 212 656 258 753 231 707 b 183 492 193 604 183 549 b 212 328 183 434 193 380 b 293 192 231 276 258 231 b 422 99 328 153 371 122 b 592 64 472 75 529 64 b 744 82 647 64 698 70 b 857 128 791 94 828 109 l 857 426 l 628 426 l 628 514 l 957 514 l 957 71 b 783 -1 903 38 845 14 b 590 -25 721 -17 657 -25 b 385 14 516 -25 448 -12 b 222 122 322 40 268 76 b 116 285 177 167 141 222 b 78 492 91 348 78 417 b 117 699 78 567 91 636 b 224 862 143 762 178 816 b 387 969 270 908 324 944 b 590 1008 449 995 517 1008 b 796 974 669 1008 738 997 b 946 876 854 950 904 918 l 876 807 m 657 1178 b 636 1130 657 1158 650 1142 b 590 1111 622 1117 607 1111 b 544 1130 574 1111 558 1117 b 524 1178 531 1142 524 1158 b 544 1226 524 1197 531 1213 b 590 1244 558 1238 574 1244 b 636 1226 607 1244 622 1238 b 657 1178 650 1213 657 1197 "},"ġ":{"ha":878,"x_min":0,"x_max":0,"o":"m 160 -131 b 266 -215 186 -164 221 -192 b 408 -250 311 -238 358 -250 b 526 -230 455 -250 494 -243 b 605 -175 559 -216 585 -198 b 649 -94 625 -152 639 -125 b 663 6 658 -63 663 -30 l 663 128 l 660 128 b 553 33 635 87 599 56 b 414 0 508 11 461 0 b 276 25 363 0 317 8 b 170 94 234 42 199 65 b 102 199 141 123 118 158 b 78 331 86 239 78 283 b 102 461 78 377 86 420 b 170 568 118 502 141 538 b 276 640 199 599 234 623 b 414 667 317 658 363 667 b 553 633 461 667 507 656 b 660 538 598 611 634 579 l 663 538 l 663 650 l 757 650 l 757 6 b 742 -107 757 -30 752 -67 b 688 -217 733 -147 715 -183 b 581 -300 662 -250 626 -278 b 404 -333 535 -322 476 -333 b 232 -299 344 -333 287 -322 b 92 -203 177 -275 131 -244 l 160 -131 m 178 333 b 194 236 178 299 183 267 b 242 156 206 206 222 179 b 319 101 263 132 289 114 b 424 81 350 87 385 81 b 524 99 460 81 493 87 b 603 150 554 111 581 128 b 655 230 625 172 642 199 b 674 333 667 261 674 295 b 655 431 674 368 667 400 b 603 511 642 461 625 488 b 524 567 581 534 554 553 b 424 588 493 581 460 588 b 319 567 385 588 350 581 b 242 511 289 553 263 534 b 194 431 222 488 206 461 b 178 333 183 400 178 368 m 493 900 b 472 852 493 881 486 865 b 426 833 458 840 443 833 b 381 852 410 833 394 840 b 360 900 367 865 360 881 b 381 948 360 919 367 935 b 426 967 394 960 410 967 b 472 948 443 967 458 960 b 493 900 486 935 493 919 "},"Ģ":{"ha":1088,"x_min":0,"x_max":0,"o":"m 876 807 b 754 891 842 843 801 871 b 592 921 707 911 653 921 b 422 886 529 921 472 909 b 293 792 371 863 328 832 b 212 656 258 753 231 707 b 183 492 193 604 183 549 b 212 328 183 434 193 380 b 293 192 231 276 258 231 b 422 99 328 153 371 122 b 592 64 472 75 529 64 b 744 82 647 64 698 70 b 857 128 791 94 828 109 l 857 426 l 628 426 l 628 514 l 957 514 l 957 71 b 783 -1 903 38 845 14 b 590 -25 721 -17 657 -25 b 385 14 516 -25 448 -12 b 222 122 322 40 268 76 b 116 285 177 167 141 222 b 78 492 91 348 78 417 b 117 699 78 567 91 636 b 224 862 143 762 178 816 b 387 969 270 908 324 944 b 590 1008 449 995 517 1008 b 796 974 669 1008 738 997 b 946 876 854 950 904 918 l 876 807 m 476 -319 l 563 -62 l 661 -62 l 556 -319 "},"ģ":{"ha":878,"x_min":0,"x_max":0,"o":"m 160 -131 b 266 -215 186 -164 221 -192 b 408 -250 311 -238 358 -250 b 526 -230 455 -250 494 -243 b 605 -175 559 -216 585 -198 b 649 -94 625 -152 639 -125 b 663 6 658 -63 663 -30 l 663 128 l 660 128 b 553 33 635 87 599 56 b 414 0 508 11 461 0 b 276 25 363 0 317 8 b 170 94 234 42 199 65 b 102 199 141 123 118 158 b 78 331 86 239 78 283 b 102 461 78 377 86 420 b 170 568 118 502 141 538 b 276 640 199 599 234 623 b 414 667 317 658 363 667 b 553 633 461 667 507 656 b 660 538 598 611 634 579 l 663 538 l 663 650 l 757 650 l 757 6 b 742 -107 757 -30 752 -67 b 688 -217 733 -147 715 -183 b 581 -300 662 -250 626 -278 b 404 -333 535 -322 476 -333 b 232 -299 344 -333 287 -322 b 92 -203 177 -275 131 -244 l 160 -131 m 178 333 b 194 236 178 299 183 267 b 242 156 206 206 222 179 b 319 101 263 132 289 114 b 424 81 350 87 385 81 b 524 99 460 81 493 87 b 603 150 554 111 581 128 b 655 230 625 172 642 199 b 674 333 667 261 674 295 b 655 431 674 368 667 400 b 603 511 642 461 625 488 b 524 567 581 534 554 553 b 424 588 493 581 460 588 b 319 567 385 588 350 581 b 242 511 289 553 263 534 b 194 431 222 488 206 461 b 178 333 183 400 178 368 m 575 1040 l 489 783 l 390 783 l 496 1040 "},"Ĥ":{"ha":997,"x_min":0,"x_max":0,"o":"m 231 983 l 231 557 l 767 557 l 767 983 l 867 983 l 867 0 l 767 0 l 767 465 l 231 465 l 231 0 l 131 0 l 131 983 m 613 1061 l 497 1211 l 382 1061 l 290 1061 l 442 1261 l 553 1261 l 704 1061 "},"ĥ":{"ha":810,"x_min":0,"x_max":0,"o":"m 225 543 b 313 633 243 581 272 611 b 443 667 353 656 397 667 b 628 593 525 667 587 642 b 690 399 670 544 690 479 l 690 0 l 596 0 l 596 360 b 588 453 596 394 593 425 b 559 524 582 481 572 504 b 505 571 546 544 528 560 b 419 588 482 582 454 588 b 347 572 394 588 370 582 b 283 526 323 562 302 547 b 239 447 265 505 250 478 b 222 333 228 415 222 377 l 222 0 l 128 0 l 128 1050 l 222 1050 l 222 543 l 225 543 m 292 1106 l 176 1256 l 61 1106 l -31 1106 l 121 1306 l 232 1306 l 383 1106 "},"Ħ":{"ha":997,"x_min":0,"x_max":0,"o":"m 231 983 l 231 764 l 767 764 l 767 983 l 867 983 l 867 0 l 767 0 l 767 465 l 231 465 l 231 0 l 131 0 l 131 983 m 767 694 l 231 694 l 231 557 l 767 557 "},"ħ":{"ha":810,"x_min":0,"x_max":0,"o":"m 128 1050 l 222 1050 l 222 861 l 442 861 l 442 792 l 222 792 l 222 543 l 225 543 b 313 633 243 581 272 611 b 443 667 353 656 397 667 b 628 593 525 667 587 642 b 690 399 670 544 690 479 l 690 0 l 596 0 l 596 360 b 588 453 596 394 593 425 b 559 524 582 481 572 504 b 505 571 546 544 528 560 b 419 588 482 582 454 588 b 347 572 394 588 370 582 b 283 526 323 562 302 547 b 239 447 265 505 250 478 b 222 333 228 415 222 377 l 222 0 l 128 0 l 128 792 l 53 792 l 53 861 l 128 861 "},"Ĩ":{"ha":361,"x_min":0,"x_max":0,"o":"m 131 0 l 131 983 l 231 983 l 231 0 m -43 1078 b -30 1131 -40 1095 -36 1113 b -6 1177 -24 1148 -16 1164 b 31 1210 5 1191 17 1201 b 85 1222 46 1218 63 1222 b 135 1213 101 1222 118 1219 b 186 1190 153 1206 169 1199 b 235 1169 203 1183 219 1176 b 279 1158 250 1162 265 1158 b 326 1180 300 1158 316 1166 b 347 1228 335 1194 343 1210 l 407 1228 b 394 1174 404 1209 400 1191 b 369 1128 388 1157 380 1142 b 332 1096 359 1115 347 1104 b 279 1083 317 1088 300 1083 b 228 1093 263 1083 245 1087 b 178 1115 210 1100 194 1107 b 131 1138 162 1124 146 1131 b 85 1147 115 1144 100 1147 b 38 1126 63 1147 48 1140 b 17 1078 28 1111 21 1095 l -43 1078 "},"ĩ":{"ha":347,"x_min":0,"x_max":0,"o":"m 126 0 l 126 650 l 221 650 l 221 0 m -49 800 b -35 853 -46 818 -41 835 b -11 899 -29 870 -21 886 b 26 932 -1 913 11 924 b 79 944 40 940 58 944 b 130 935 96 944 113 941 b 181 913 147 928 164 921 b 229 891 197 905 213 898 b 274 881 245 884 260 881 b 320 902 295 881 310 888 b 342 950 330 916 337 932 l 401 950 b 388 897 399 931 394 914 b 364 851 382 879 374 864 b 326 818 354 837 341 826 b 274 806 312 810 294 806 b 222 815 257 806 240 809 b 172 838 205 822 188 829 b 125 860 156 846 141 853 b 79 869 109 866 94 869 b 33 848 58 869 42 862 b 11 800 23 834 16 818 l -49 800 "},"Ī":{"ha":361,"x_min":0,"x_max":0,"o":"m 131 0 l 131 983 l 231 983 l 231 0 m -6 1111 l -6 1186 l 369 1186 l 369 1111 "},"ī":{"ha":347,"x_min":0,"x_max":0,"o":"m 126 0 l 126 650 l 221 650 l 221 0 m -12 833 l -12 908 l 363 908 l 363 833 "},"Į":{"ha":361,"x_min":0,"x_max":0,"o":"m 282 -260 b 225 -297 266 -275 247 -288 b 157 -310 203 -305 180 -310 b 110 -301 140 -310 125 -307 b 70 -277 95 -296 82 -288 b 42 -240 59 -266 49 -254 b 32 -192 35 -225 32 -209 b 43 -135 32 -172 36 -153 b 72 -84 50 -117 60 -100 b 113 -38 84 -68 98 -53 b 156 0 127 -24 142 -11 l 131 0 l 131 983 l 231 983 l 231 0 l 222 0 b 143 -90 188 -34 162 -64 b 115 -168 125 -115 115 -141 b 136 -216 115 -187 122 -203 b 185 -235 150 -228 166 -235 b 223 -227 198 -235 210 -232 b 256 -204 235 -222 246 -214 l 282 -260 "},"į":{"ha":347,"x_min":0,"x_max":0,"o":"m 275 -260 b 218 -297 259 -275 240 -288 b 150 -310 196 -305 173 -310 b 103 -301 133 -310 118 -307 b 63 -277 88 -296 75 -288 b 35 -240 52 -266 42 -254 b 25 -192 28 -225 25 -209 b 36 -135 25 -172 29 -153 b 65 -84 44 -117 53 -100 b 106 -38 77 -68 91 -53 b 149 0 120 -24 135 -11 l 126 0 l 126 650 l 221 650 l 221 0 l 215 0 b 136 -90 181 -34 155 -64 b 108 -168 118 -115 108 -141 b 129 -216 108 -187 115 -203 b 178 -235 143 -228 159 -235 b 216 -227 191 -235 203 -232 b 249 -204 228 -222 239 -214 l 275 -260 m 240 900 b 219 852 240 881 233 865 b 174 833 206 840 190 833 b 128 852 157 833 142 840 b 107 900 114 865 107 881 b 128 948 107 919 114 935 b 174 967 142 960 157 967 b 219 948 190 967 206 960 b 240 900 233 935 240 919 "},"İ":{"ha":361,"x_min":0,"x_max":0,"o":"m 131 0 l 131 983 l 231 983 l 231 0 m 249 1178 b 228 1130 249 1158 242 1142 b 182 1111 214 1117 199 1111 b 136 1130 165 1111 150 1117 b 115 1178 122 1142 115 1158 b 136 1226 115 1197 122 1213 b 182 1244 150 1238 165 1244 b 228 1226 199 1244 214 1238 b 249 1178 242 1213 249 1197 "},"ı":{"ha":347,"x_min":0,"x_max":0,"o":"m 126 0 l 126 650 l 221 650 l 221 0 "},"Ĳ":{"ha":1019,"x_min":0,"x_max":0,"o":"m 131 0 l 131 983 l 231 983 l 231 0 m 464 200 b 516 102 471 161 489 128 b 624 63 543 76 579 63 b 708 81 658 63 686 69 b 762 132 731 94 748 111 b 790 205 775 153 785 178 b 797 290 795 232 797 261 l 797 983 l 897 983 l 897 283 b 887 181 897 251 894 217 b 847 81 880 144 867 111 b 767 5 828 50 801 25 b 635 -25 732 -15 688 -25 b 458 31 563 -25 505 -6 b 371 175 412 69 383 117 l 464 200 "},"ĳ":{"ha":692,"x_min":0,"x_max":0,"o":"m 126 0 l 126 650 l 221 650 l 221 0 m 240 900 b 219 852 240 881 233 865 b 174 833 206 840 190 833 b 128 852 157 833 142 840 b 107 900 114 865 107 881 b 128 948 107 919 114 935 b 174 967 142 960 157 967 b 219 948 190 967 206 960 b 240 900 233 935 240 919 m 319 -244 b 349 -251 329 -247 339 -249 b 379 -253 360 -252 370 -253 b 426 -242 399 -253 414 -249 b 454 -214 438 -235 448 -226 b 467 -170 461 -202 465 -187 b 471 -114 470 -153 471 -134 l 471 650 l 565 650 l 565 -129 b 557 -205 565 -155 563 -180 b 528 -270 551 -229 542 -251 b 472 -316 514 -289 495 -304 b 381 -333 448 -328 418 -333 b 344 -331 370 -333 358 -333 b 306 -324 331 -330 318 -327 l 319 -244 m 585 900 b 564 852 585 881 578 865 b 518 833 550 840 535 833 b 472 852 501 833 486 840 b 451 900 458 865 451 881 b 472 948 451 919 458 935 b 518 967 486 960 501 967 b 564 948 535 967 550 960 b 585 900 578 935 585 919 "},"Ĵ":{"ha":683,"x_min":0,"x_max":0,"o":"m 128 200 b 180 102 135 161 153 128 b 288 63 207 76 243 63 b 372 81 322 63 350 69 b 426 132 394 94 412 111 b 453 205 439 153 448 178 b 461 290 459 232 461 261 l 461 983 l 561 983 l 561 283 b 551 181 561 251 558 217 b 511 81 544 144 531 111 b 431 5 492 50 465 25 b 299 -25 396 -15 352 -25 b 122 31 227 -25 169 -6 b 35 175 76 69 47 117 l 128 200 m 625 1061 l 510 1211 l 394 1061 l 303 1061 l 454 1261 l 565 1261 l 717 1061 "},"ĵ":{"ha":349,"x_min":0,"x_max":0,"o":"m -24 -244 b 6 -251 -14 -247 -4 -249 b 36 -253 17 -252 27 -253 b 83 -242 56 -253 71 -249 b 111 -214 95 -235 105 -226 b 124 -170 118 -202 122 -187 b 128 -114 127 -153 128 -134 l 128 650 l 222 650 l 222 -129 b 214 -205 222 -155 219 -180 b 185 -270 208 -229 199 -251 b 128 -316 171 -289 152 -304 b 38 -333 105 -328 75 -333 b 1 -331 27 -333 15 -333 b -37 -324 -12 -330 -25 -327 l -24 -244 m 290 783 l 175 933 l 60 783 l -32 783 l 119 983 l 231 983 l 382 783 "},"Ķ":{"ha":872,"x_min":0,"x_max":0,"o":"m 232 542 l 700 983 l 843 983 l 347 538 l 871 0 l 724 0 l 232 524 l 231 524 l 231 0 l 131 0 l 131 983 l 231 983 l 231 542 m 354 -319 l 440 -62 l 539 -62 l 433 -319 "},"ķ":{"ha":708,"x_min":0,"x_max":0,"o":"m 226 357 l 526 650 l 663 650 l 335 353 l 696 0 l 557 0 l 226 342 l 222 342 l 222 0 l 128 0 l 128 1050 l 222 1050 l 222 357 m 272 -319 l 358 -62 l 457 -62 l 351 -319 "},"Ĺ":{"ha":708,"x_min":0,"x_max":0,"o":"m 689 89 l 689 0 l 131 0 l 131 983 l 231 983 l 231 89 m 139 1061 l 278 1261 l 404 1261 l 221 1061 "},"ĺ":{"ha":350,"x_min":0,"x_max":0,"o":"m 128 0 l 128 1050 l 222 1050 l 222 0 m 131 1100 l 269 1300 l 396 1300 l 213 1100 "},"Ļ":{"ha":708,"x_min":0,"x_max":0,"o":"m 689 89 l 689 0 l 131 0 l 131 983 l 231 983 l 231 89 m 297 -319 l 383 -62 l 482 -62 l 376 -319 "},"ļ":{"ha":350,"x_min":0,"x_max":0,"o":"m 128 0 l 128 1050 l 222 1050 l 222 0 m 64 -319 l 150 -62 l 249 -62 l 143 -319 "},"Ľ":{"ha":708,"x_min":0,"x_max":0,"o":"m 689 89 l 689 0 l 131 0 l 131 983 l 231 983 l 231 89 m 338 726 l 424 983 l 522 983 l 417 726 "},"ľ":{"ha":350,"x_min":0,"x_max":0,"o":"m 128 0 l 128 1050 l 222 1050 l 222 0 m 301 726 l 388 983 l 486 983 l 381 726 "},"Ŀ":{"ha":708,"x_min":0,"x_max":0,"o":"m 689 89 l 689 0 l 131 0 l 131 983 l 231 983 l 231 89 m 589 456 b 568 408 589 436 582 420 b 522 389 554 395 539 389 b 476 408 506 389 490 395 b 456 456 463 420 456 436 b 476 503 456 475 463 491 b 522 522 490 516 506 522 b 568 503 539 522 554 516 b 589 456 582 491 589 475 "},"ŀ":{"ha":433,"x_min":0,"x_max":0,"o":"m 128 0 l 128 1050 l 222 1050 l 222 0 m 456 456 b 435 408 456 436 449 420 b 389 389 421 395 406 389 b 343 408 372 389 357 395 b 322 456 329 420 322 436 b 343 503 322 475 329 491 b 389 522 357 516 372 522 b 435 503 406 522 421 516 b 456 456 449 491 456 475 "},"Ł":{"ha":708,"x_min":0,"x_max":0,"o":"m 531 761 l 531 664 l 231 406 l 231 89 l 689 89 l 689 0 l 131 0 l 131 336 l 17 239 l 17 336 l 131 433 l 131 983 l 231 983 l 231 503 "},"ł":{"ha":350,"x_min":0,"x_max":0,"o":"m 332 753 l 332 651 l 219 536 l 219 0 l 128 0 l 128 460 l 15 344 l 15 446 l 128 560 l 128 1050 l 219 1050 l 219 636 "},"Ń":{"ha":1061,"x_min":0,"x_max":0,"o":"m 831 146 l 831 983 l 931 983 l 931 0 l 806 0 l 233 846 l 231 846 l 231 0 l 131 0 l 131 983 l 256 983 l 828 146 m 478 1061 l 617 1261 l 743 1261 l 560 1061 "},"ń":{"ha":807,"x_min":0,"x_max":0,"o":"m 210 650 b 214 592 212 632 213 613 b 215 539 215 570 215 553 l 218 539 b 308 631 237 577 267 608 b 440 667 350 655 394 667 b 626 593 523 667 584 642 b 688 399 667 544 688 479 l 688 0 l 593 0 l 593 360 b 585 453 593 394 590 425 b 556 524 579 481 570 504 b 502 571 543 544 525 560 b 417 588 479 582 451 588 b 344 572 392 588 367 582 b 281 526 320 562 299 547 b 236 447 262 505 247 478 b 219 333 225 415 219 377 l 219 0 l 125 0 l 125 507 b 124 575 125 525 125 547 b 119 650 123 603 121 628 l 210 650 m 344 783 l 483 983 l 610 983 l 426 783 "},"Ņ":{"ha":1061,"x_min":0,"x_max":0,"o":"m 831 146 l 831 983 l 931 983 l 931 0 l 806 0 l 233 846 l 231 846 l 231 0 l 131 0 l 131 983 l 256 983 l 828 146 m 406 -319 l 492 -62 l 590 -62 l 485 -319 "},"ņ":{"ha":807,"x_min":0,"x_max":0,"o":"m 210 650 b 214 592 212 632 213 613 b 215 539 215 570 215 553 l 218 539 b 308 631 237 577 267 608 b 440 667 350 655 394 667 b 626 593 523 667 584 642 b 688 399 667 544 688 479 l 688 0 l 593 0 l 593 360 b 585 453 593 394 590 425 b 556 524 579 481 570 504 b 502 571 543 544 525 560 b 417 588 479 582 451 588 b 344 572 392 588 367 582 b 281 526 320 562 299 547 b 236 447 262 505 247 478 b 219 333 225 415 219 377 l 219 0 l 125 0 l 125 507 b 124 575 125 525 125 547 b 119 650 123 603 121 628 l 210 650 m 290 -319 l 376 -62 l 475 -62 l 369 -319 "},"Ň":{"ha":1061,"x_min":0,"x_max":0,"o":"m 831 146 l 831 983 l 931 983 l 931 0 l 806 0 l 233 846 l 231 846 l 231 0 l 131 0 l 131 983 l 256 983 l 828 146 m 476 1061 l 325 1261 l 417 1261 l 532 1111 l 647 1261 l 739 1261 l 588 1061 "},"ň":{"ha":807,"x_min":0,"x_max":0,"o":"m 210 650 b 214 592 212 632 213 613 b 215 539 215 570 215 553 l 218 539 b 308 631 237 577 267 608 b 440 667 350 655 394 667 b 626 593 523 667 584 642 b 688 399 667 544 688 479 l 688 0 l 593 0 l 593 360 b 585 453 593 394 590 425 b 556 524 579 481 570 504 b 502 571 543 544 525 560 b 417 588 479 582 451 588 b 344 572 392 588 367 582 b 281 526 320 562 299 547 b 236 447 262 505 247 478 b 219 333 225 415 219 377 l 219 0 l 125 0 l 125 507 b 124 575 125 525 125 547 b 119 650 123 603 121 628 l 210 650 m 351 783 l 200 983 l 292 983 l 407 833 l 522 983 l 614 983 l 463 783 "},"ŉ":{"ha":807,"x_min":0,"x_max":0,"o":"m 210 650 b 214 592 212 632 213 613 b 215 539 215 570 215 553 l 218 539 b 308 631 237 577 267 608 b 440 667 350 655 394 667 b 626 593 523 667 584 642 b 688 399 667 544 688 479 l 688 0 l 593 0 l 593 360 b 585 453 593 394 590 425 b 556 524 579 481 570 504 b 502 571 543 544 525 560 b 417 588 479 582 451 588 b 344 572 392 588 367 582 b 281 526 320 562 299 547 b 236 447 262 505 247 478 b 219 333 225 415 219 377 l 219 0 l 125 0 l 125 507 b 124 575 125 525 125 547 b 119 650 123 603 121 628 l 210 650 m -37 793 l 49 1050 l 147 1050 l 42 793 "},"Ō":{"ha":1181,"x_min":0,"x_max":0,"o":"m 1103 492 b 1064 285 1103 417 1090 348 b 956 122 1038 222 1002 167 b 794 14 910 76 856 40 b 590 -25 731 -12 663 -25 b 387 14 517 -25 449 -12 b 224 122 324 40 270 76 b 117 285 178 167 143 222 b 78 492 91 348 78 417 b 117 699 78 567 91 636 b 224 862 143 762 178 816 b 387 969 270 908 324 944 b 590 1008 449 995 517 1008 b 794 969 663 1008 731 995 b 956 862 856 944 910 908 b 1064 699 1002 816 1038 762 b 1103 492 1090 636 1103 567 m 997 492 b 969 656 997 549 988 604 b 889 792 951 707 924 753 b 760 886 854 832 811 863 b 590 921 710 909 653 921 b 420 886 527 921 471 909 b 292 792 370 863 327 832 b 211 656 256 753 230 707 b 183 492 193 604 183 549 b 211 328 183 434 193 380 b 292 192 230 276 256 231 b 420 99 327 153 370 122 b 590 64 471 75 527 64 b 760 99 653 64 710 75 b 889 192 811 122 854 153 b 969 328 924 231 951 276 b 997 492 988 380 997 434 m 408 1111 l 408 1186 l 783 1186 l 783 1111 "},"ō":{"ha":849,"x_min":0,"x_max":0,"o":"m 771 325 b 745 189 771 276 762 231 b 674 81 728 147 704 111 b 564 9 643 50 606 26 b 424 -17 521 -8 475 -17 b 285 9 374 -17 327 -8 b 175 81 242 26 206 50 b 103 189 144 111 121 147 b 78 325 86 231 78 276 b 103 461 78 374 86 419 b 175 569 121 503 144 539 b 285 641 206 600 242 624 b 424 667 327 658 374 667 b 564 641 475 667 521 658 b 674 569 606 624 643 600 b 745 461 704 539 728 503 b 771 325 762 419 771 374 m 671 325 b 653 427 671 361 665 395 b 604 510 642 459 625 487 b 526 567 583 534 557 553 b 424 588 496 581 462 588 b 322 567 386 588 352 581 b 244 510 291 553 266 534 b 195 427 223 487 207 459 b 178 325 184 395 178 361 b 195 223 178 289 184 255 b 244 140 207 191 223 163 b 322 84 266 116 291 97 b 424 64 352 71 386 64 b 526 84 462 64 496 71 b 604 140 557 97 583 116 b 653 223 625 163 642 191 b 671 325 665 255 671 289 m 239 833 l 239 908 l 614 908 l 614 833 "},"Ŏ":{"ha":1181,"x_min":0,"x_max":0,"o":"m 1103 492 b 1064 285 1103 417 1090 348 b 956 122 1038 222 1002 167 b 794 14 910 76 856 40 b 590 -25 731 -12 663 -25 b 387 14 517 -25 449 -12 b 224 122 324 40 270 76 b 117 285 178 167 143 222 b 78 492 91 348 78 417 b 117 699 78 567 91 636 b 224 862 143 762 178 816 b 387 969 270 908 324 944 b 590 1008 449 995 517 1008 b 794 969 663 1008 731 995 b 956 862 856 944 910 908 b 1064 699 1002 816 1038 762 b 1103 492 1090 636 1103 567 m 997 492 b 969 656 997 549 988 604 b 889 792 951 707 924 753 b 760 886 854 832 811 863 b 590 921 710 909 653 921 b 420 886 527 921 471 909 b 292 792 370 863 327 832 b 211 656 256 753 230 707 b 183 492 193 604 183 549 b 211 328 183 434 193 380 b 292 192 230 276 256 231 b 420 99 327 153 370 122 b 590 64 471 75 527 64 b 760 99 653 64 710 75 b 889 192 811 122 854 153 b 969 328 924 231 951 276 b 997 492 988 380 997 434 m 799 1261 b 737 1126 795 1203 774 1158 b 594 1078 699 1094 652 1078 b 452 1126 537 1078 490 1094 b 390 1261 415 1158 394 1203 l 451 1261 b 501 1180 458 1225 475 1198 b 594 1153 528 1162 559 1153 b 688 1180 630 1153 661 1162 b 738 1261 714 1198 731 1225 l 799 1261 "},"ŏ":{"ha":849,"x_min":0,"x_max":0,"o":"m 771 325 b 745 189 771 276 762 231 b 674 81 728 147 704 111 b 564 9 643 50 606 26 b 424 -17 521 -8 475 -17 b 285 9 374 -17 327 -8 b 175 81 242 26 206 50 b 103 189 144 111 121 147 b 78 325 86 231 78 276 b 103 461 78 374 86 419 b 175 569 121 503 144 539 b 285 641 206 600 242 624 b 424 667 327 658 374 667 b 564 641 475 667 521 658 b 674 569 606 624 643 600 b 745 461 704 539 728 503 b 771 325 762 419 771 374 m 671 325 b 653 427 671 361 665 395 b 604 510 642 459 625 487 b 526 567 583 534 557 553 b 424 588 496 581 462 588 b 322 567 386 588 352 581 b 244 510 291 553 266 534 b 195 427 223 487 207 459 b 178 325 184 395 178 361 b 195 223 178 289 184 255 b 244 140 207 191 223 163 b 322 84 266 116 291 97 b 424 64 352 71 386 64 b 526 84 462 64 496 71 b 604 140 557 97 583 116 b 653 223 625 163 642 191 b 671 325 665 255 671 289 m 631 983 b 569 848 627 925 606 880 b 426 800 531 816 484 800 b 284 848 369 800 322 816 b 222 983 247 880 226 925 l 283 983 b 333 902 290 947 306 920 b 426 875 360 884 391 875 b 519 902 462 875 493 884 b 569 983 546 920 563 947 l 631 983 "},"Ő":{"ha":1181,"x_min":0,"x_max":0,"o":"m 1103 492 b 1064 285 1103 417 1090 348 b 956 122 1038 222 1002 167 b 794 14 910 76 856 40 b 590 -25 731 -12 663 -25 b 387 14 517 -25 449 -12 b 224 122 324 40 270 76 b 117 285 178 167 143 222 b 78 492 91 348 78 417 b 117 699 78 567 91 636 b 224 862 143 762 178 816 b 387 969 270 908 324 944 b 590 1008 449 995 517 1008 b 794 969 663 1008 731 995 b 956 862 856 944 910 908 b 1064 699 1002 816 1038 762 b 1103 492 1090 636 1103 567 m 997 492 b 969 656 997 549 988 604 b 889 792 951 707 924 753 b 760 886 854 832 811 863 b 590 921 710 909 653 921 b 420 886 527 921 471 909 b 292 792 370 863 327 832 b 211 656 256 753 230 707 b 183 492 193 604 183 549 b 211 328 183 434 193 380 b 292 192 230 276 256 231 b 420 99 327 153 370 122 b 590 64 471 75 527 64 b 760 99 653 64 710 75 b 889 192 811 122 854 153 b 969 328 924 231 951 276 b 997 492 988 380 997 434 m 429 1061 l 569 1261 l 696 1261 l 511 1061 m 667 1061 l 806 1261 l 932 1261 l 749 1061 "},"ő":{"ha":849,"x_min":0,"x_max":0,"o":"m 771 325 b 745 189 771 276 762 231 b 674 81 728 147 704 111 b 564 9 643 50 606 26 b 424 -17 521 -8 475 -17 b 285 9 374 -17 327 -8 b 175 81 242 26 206 50 b 103 189 144 111 121 147 b 78 325 86 231 78 276 b 103 461 78 374 86 419 b 175 569 121 503 144 539 b 285 641 206 600 242 624 b 424 667 327 658 374 667 b 564 641 475 667 521 658 b 674 569 606 624 643 600 b 745 461 704 539 728 503 b 771 325 762 419 771 374 m 671 325 b 653 427 671 361 665 395 b 604 510 642 459 625 487 b 526 567 583 534 557 553 b 424 588 496 581 462 588 b 322 567 386 588 352 581 b 244 510 291 553 266 534 b 195 427 223 487 207 459 b 178 325 184 395 178 361 b 195 223 178 289 184 255 b 244 140 207 191 223 163 b 322 84 266 116 291 97 b 424 64 352 71 386 64 b 526 84 462 64 496 71 b 604 140 557 97 583 116 b 653 223 625 163 642 191 b 671 325 665 255 671 289 m 272 783 l 413 983 l 539 983 l 354 783 m 510 783 l 649 983 l 775 983 l 592 783 "},"Ŕ":{"ha":832,"x_min":0,"x_max":0,"o":"m 131 0 l 131 983 l 419 983 b 553 969 468 983 512 979 b 660 924 595 960 630 945 b 731 843 691 903 714 876 b 756 721 747 810 756 769 b 736 622 756 685 749 652 b 683 545 723 593 706 567 b 604 493 661 523 635 506 b 504 468 574 480 540 472 l 792 0 l 669 0 l 397 460 l 231 460 l 231 0 m 404 546 b 590 590 485 546 547 560 b 656 721 634 619 656 663 b 638 803 656 753 650 781 b 588 857 625 825 609 843 b 510 888 566 871 540 881 b 408 897 479 894 445 897 l 231 897 l 231 546 m 321 1061 l 460 1261 l 586 1261 l 403 1061 "},"ŕ":{"ha":500,"x_min":0,"x_max":0,"o":"m 125 507 b 124 575 125 525 125 547 b 119 650 123 603 121 628 l 210 650 b 214 592 212 632 213 613 b 215 539 215 570 215 553 l 218 539 b 301 631 237 577 264 608 b 426 667 338 655 380 667 b 459 665 438 667 449 666 b 489 660 469 664 479 663 l 476 571 b 449 576 471 573 462 575 b 410 579 436 578 423 579 b 338 565 385 579 361 575 b 277 522 314 556 294 541 b 235 445 260 502 246 476 b 219 333 225 414 219 377 l 219 0 l 125 0 l 125 507 m 161 783 l 300 983 l 426 983 l 243 783 "},"Ŗ":{"ha":832,"x_min":0,"x_max":0,"o":"m 131 0 l 131 983 l 419 983 b 553 969 468 983 512 979 b 660 924 595 960 630 945 b 731 843 691 903 714 876 b 756 721 747 810 756 769 b 736 622 756 685 749 652 b 683 545 723 593 706 567 b 604 493 661 523 635 506 b 504 468 574 480 540 472 l 792 0 l 669 0 l 397 460 l 231 460 l 231 0 m 404 546 b 590 590 485 546 547 560 b 656 721 634 619 656 663 b 638 803 656 753 650 781 b 588 857 625 825 609 843 b 510 888 566 871 540 881 b 408 897 479 894 445 897 l 231 897 l 231 546 m 324 -319 l 410 -62 l 508 -62 l 403 -319 "},"ŗ":{"ha":500,"x_min":0,"x_max":0,"o":"m 125 507 b 124 575 125 525 125 547 b 119 650 123 603 121 628 l 210 650 b 214 592 212 632 213 613 b 215 539 215 570 215 553 l 218 539 b 301 631 237 577 264 608 b 426 667 338 655 380 667 b 459 665 438 667 449 666 b 489 660 469 664 479 663 l 476 571 b 449 576 471 573 462 575 b 410 579 436 578 423 579 b 338 565 385 579 361 575 b 277 522 314 556 294 541 b 235 445 260 502 246 476 b 219 333 225 414 219 377 l 219 0 l 125 0 l 125 507 m 60 -319 l 146 -62 l 244 -62 l 139 -319 "},"Ř":{"ha":832,"x_min":0,"x_max":0,"o":"m 131 0 l 131 983 l 419 983 b 553 969 468 983 512 979 b 660 924 595 960 630 945 b 731 843 691 903 714 876 b 756 721 747 810 756 769 b 736 622 756 685 749 652 b 683 545 723 593 706 567 b 604 493 661 523 635 506 b 504 468 574 480 540 472 l 792 0 l 669 0 l 397 460 l 231 460 l 231 0 m 404 546 b 590 590 485 546 547 560 b 656 721 634 619 656 663 b 638 803 656 753 650 781 b 588 857 625 825 609 843 b 510 888 566 871 540 881 b 408 897 479 894 445 897 l 231 897 l 231 546 m 344 1061 l 193 1261 l 285 1261 l 400 1111 l 515 1261 l 607 1261 l 456 1061 "},"ř":{"ha":500,"x_min":0,"x_max":0,"o":"m 125 507 b 124 575 125 525 125 547 b 119 650 123 603 121 628 l 210 650 b 214 592 212 632 213 613 b 215 539 215 570 215 553 l 218 539 b 301 631 237 577 264 608 b 426 667 338 655 380 667 b 459 665 438 667 449 666 b 489 660 469 664 479 663 l 476 571 b 449 576 471 573 462 575 b 410 579 436 578 423 579 b 338 565 385 579 361 575 b 277 522 314 556 294 541 b 235 445 260 502 246 476 b 219 333 225 414 219 377 l 219 0 l 125 0 l 125 507 m 243 783 l 92 983 l 183 983 l 299 833 l 414 983 l 506 983 l 354 783 "},"Ś":{"ha":783,"x_min":0,"x_max":0,"o":"m 607 825 b 525 897 586 855 558 878 b 404 924 492 915 451 924 b 331 913 380 924 356 920 b 263 878 306 905 283 894 b 213 821 242 863 226 844 b 194 739 201 798 194 770 b 213 661 194 707 200 681 b 260 609 225 641 241 623 b 328 574 280 595 303 583 b 408 546 354 564 381 555 b 512 510 443 535 477 523 b 606 459 547 497 578 480 b 674 380 633 438 656 412 b 700 258 691 348 700 307 b 672 131 700 209 691 167 b 598 43 653 96 628 66 b 495 -8 568 20 534 3 b 379 -25 457 -19 418 -25 b 290 -16 350 -25 320 -22 b 206 11 261 -10 232 -1 b 131 57 179 23 154 38 b 69 121 107 75 87 97 l 156 185 b 245 97 177 150 207 120 b 381 61 284 73 329 61 b 457 73 406 61 431 65 b 527 109 483 81 506 93 b 578 169 548 125 565 145 b 599 251 592 192 599 220 b 578 337 599 286 592 314 b 525 394 565 359 547 378 b 449 432 503 409 477 422 b 358 463 420 442 390 452 b 263 497 326 473 294 484 b 178 548 231 510 203 527 b 117 625 153 569 133 594 b 94 738 102 656 94 693 b 123 860 94 785 104 825 b 197 944 142 894 167 922 b 299 993 228 967 262 983 b 408 1008 336 1003 372 1008 b 579 973 475 1008 532 997 b 686 889 626 949 662 921 l 607 825 m 338 1061 l 476 1261 l 603 1261 l 419 1061 "},"ś":{"ha":617,"x_min":0,"x_max":0,"o":"m 471 496 b 408 562 457 523 436 545 b 311 588 379 579 347 588 b 261 582 294 588 278 586 b 217 564 244 578 230 572 b 185 532 204 556 193 545 b 174 486 178 519 174 504 b 211 416 174 456 186 432 b 329 375 236 400 275 386 b 499 306 406 359 463 336 b 554 185 536 276 554 236 b 533 91 554 148 547 116 b 476 28 518 66 500 45 b 398 -6 453 12 427 1 b 310 -17 369 -13 339 -17 b 167 14 261 -17 213 -6 b 53 110 120 34 82 66 l 128 165 b 201 93 144 137 169 113 b 308 64 234 74 269 64 b 367 69 329 64 348 66 b 415 89 385 73 401 80 b 449 124 429 98 440 110 b 461 178 457 139 461 156 b 412 255 461 212 445 238 b 269 303 379 272 331 288 b 208 320 250 307 229 313 b 147 351 186 327 166 337 b 101 401 129 364 113 381 b 83 478 89 422 83 447 b 103 563 83 511 90 540 b 155 622 116 587 133 606 b 229 656 177 637 201 648 b 315 667 257 663 286 667 b 447 636 361 667 405 656 b 543 550 490 616 522 587 l 471 496 m 263 783 l 401 983 l 528 983 l 344 783 "},"Ŝ":{"ha":783,"x_min":0,"x_max":0,"o":"m 607 825 b 525 897 586 855 558 878 b 404 924 492 915 451 924 b 331 913 380 924 356 920 b 263 878 306 905 283 894 b 213 821 242 863 226 844 b 194 739 201 798 194 770 b 213 661 194 707 200 681 b 260 609 225 641 241 623 b 328 574 280 595 303 583 b 408 546 354 564 381 555 b 512 510 443 535 477 523 b 606 459 547 497 578 480 b 674 380 633 438 656 412 b 700 258 691 348 700 307 b 672 131 700 209 691 167 b 598 43 653 96 628 66 b 495 -8 568 20 534 3 b 379 -25 457 -19 418 -25 b 290 -16 350 -25 320 -22 b 206 11 261 -10 232 -1 b 131 57 179 23 154 38 b 69 121 107 75 87 97 l 156 185 b 245 97 177 150 207 120 b 381 61 284 73 329 61 b 457 73 406 61 431 65 b 527 109 483 81 506 93 b 578 169 548 125 565 145 b 599 251 592 192 599 220 b 578 337 599 286 592 314 b 525 394 565 359 547 378 b 449 432 503 409 477 422 b 358 463 420 442 390 452 b 263 497 326 473 294 484 b 178 548 231 510 203 527 b 117 625 153 569 133 594 b 94 738 102 656 94 693 b 123 860 94 785 104 825 b 197 944 142 894 167 922 b 299 993 228 967 262 983 b 408 1008 336 1003 372 1008 b 579 973 475 1008 532 997 b 686 889 626 949 662 921 l 607 825 m 522 1061 l 407 1211 l 292 1061 l 200 1061 l 351 1261 l 463 1261 l 614 1061 "},"ŝ":{"ha":617,"x_min":0,"x_max":0,"o":"m 471 496 b 408 562 457 523 436 545 b 311 588 379 579 347 588 b 261 582 294 588 278 586 b 217 564 244 578 230 572 b 185 532 204 556 193 545 b 174 486 178 519 174 504 b 211 416 174 456 186 432 b 329 375 236 400 275 386 b 499 306 406 359 463 336 b 554 185 536 276 554 236 b 533 91 554 148 547 116 b 476 28 518 66 500 45 b 398 -6 453 12 427 1 b 310 -17 369 -13 339 -17 b 167 14 261 -17 213 -6 b 53 110 120 34 82 66 l 128 165 b 201 93 144 137 169 113 b 308 64 234 74 269 64 b 367 69 329 64 348 66 b 415 89 385 73 401 80 b 449 124 429 98 440 110 b 461 178 457 139 461 156 b 412 255 461 212 445 238 b 269 303 379 272 331 288 b 208 320 250 307 229 313 b 147 351 186 327 166 337 b 101 401 129 364 113 381 b 83 478 89 422 83 447 b 103 563 83 511 90 540 b 155 622 116 587 133 606 b 229 656 177 637 201 648 b 315 667 257 663 286 667 b 447 636 361 667 405 656 b 543 550 490 616 522 587 l 471 496 m 435 783 l 319 933 l 204 783 l 113 783 l 264 983 l 375 983 l 526 783 "},"Ş":{"ha":783,"x_min":0,"x_max":0,"o":"m 607 825 b 525 897 586 855 558 878 b 404 924 492 915 451 924 b 331 913 380 924 356 920 b 263 878 306 905 283 894 b 213 821 242 863 226 844 b 194 739 201 798 194 770 b 213 661 194 707 200 681 b 260 609 225 641 241 623 b 328 574 280 595 303 583 b 408 546 354 564 381 555 b 512 510 443 535 477 523 b 606 459 547 497 578 480 b 674 380 633 438 656 412 b 700 258 691 348 700 307 b 676 140 700 213 692 173 b 612 54 659 106 638 77 b 521 0 585 31 555 13 b 415 -24 487 -13 451 -21 l 365 -104 b 414 -99 377 -100 394 -99 b 492 -124 442 -99 468 -107 b 528 -199 516 -140 528 -165 b 513 -257 528 -222 523 -241 b 474 -294 502 -273 489 -285 b 421 -314 458 -304 440 -310 b 364 -319 401 -318 382 -319 b 299 -312 345 -319 324 -317 b 233 -292 275 -308 253 -301 l 256 -242 b 304 -257 271 -249 288 -254 b 356 -261 321 -260 338 -261 b 382 -258 363 -261 372 -260 b 411 -248 392 -256 402 -253 b 435 -228 420 -243 428 -236 b 444 -200 441 -221 444 -211 b 424 -159 444 -181 438 -168 b 369 -146 411 -150 393 -146 b 310 -157 349 -146 329 -150 l 285 -136 l 356 -24 b 195 16 300 -21 247 -8 b 69 121 144 40 102 75 l 156 185 b 245 97 177 150 207 120 b 381 61 284 73 329 61 b 457 73 406 61 431 65 b 527 109 483 81 506 93 b 578 169 548 125 565 145 b 599 251 592 192 599 220 b 578 337 599 286 592 314 b 525 394 565 359 547 378 b 449 432 503 409 477 422 b 358 463 420 442 390 452 b 263 497 326 473 294 484 b 178 548 231 510 203 527 b 117 625 153 569 133 594 b 94 738 102 656 94 693 b 123 860 94 785 104 825 b 197 944 142 894 167 922 b 299 993 228 967 262 983 b 408 1008 336 1003 372 1008 b 579 973 475 1008 532 997 b 686 889 626 949 662 921 l 607 825 "},"ş":{"ha":617,"x_min":0,"x_max":0,"o":"m 471 496 b 408 562 457 523 436 545 b 311 588 379 579 347 588 b 261 582 294 588 278 586 b 217 564 244 578 230 572 b 185 532 204 556 193 545 b 174 486 178 519 174 504 b 211 416 174 456 186 432 b 329 375 236 400 275 386 b 499 306 406 359 463 336 b 554 185 536 276 554 236 b 537 99 554 151 548 123 b 491 40 525 76 510 56 b 426 3 472 25 450 12 b 349 -14 401 -5 375 -11 l 293 -104 b 342 -99 305 -100 321 -99 b 419 -124 369 -99 395 -107 b 456 -199 444 -140 456 -165 b 440 -257 456 -222 450 -241 b 401 -294 430 -273 417 -285 b 349 -314 386 -304 368 -310 b 292 -319 329 -318 310 -319 b 227 -312 273 -319 252 -317 b 161 -292 203 -308 181 -301 l 183 -242 b 232 -257 199 -249 215 -254 b 283 -261 249 -260 266 -261 b 310 -258 291 -261 300 -260 b 339 -248 320 -256 330 -253 b 363 -228 348 -243 356 -236 b 372 -200 369 -221 372 -211 b 352 -159 372 -181 366 -168 b 297 -146 339 -150 320 -146 b 238 -157 277 -146 257 -150 l 213 -136 l 288 -15 b 157 18 242 -12 199 -1 b 53 110 115 38 81 68 l 128 165 b 201 93 144 137 169 113 b 308 64 234 74 269 64 b 367 69 329 64 348 66 b 415 89 385 73 401 80 b 449 124 429 98 440 110 b 461 178 457 139 461 156 b 412 255 461 212 445 238 b 269 303 379 272 331 288 b 208 320 250 307 229 313 b 147 351 186 327 166 337 b 101 401 129 364 113 381 b 83 478 89 422 83 447 b 103 563 83 511 90 540 b 155 622 116 587 133 606 b 229 656 177 637 201 648 b 315 667 257 663 286 667 b 447 636 361 667 405 656 b 543 550 490 616 522 587 l 471 496 "},"Ţ":{"ha":792,"x_min":0,"x_max":0,"o":"m 432 0 l 367 -104 b 415 -99 379 -100 395 -99 b 493 -124 443 -99 469 -107 b 529 -199 517 -140 529 -165 b 514 -257 529 -222 524 -241 b 475 -294 504 -273 491 -285 b 422 -314 459 -304 442 -310 b 365 -319 403 -318 384 -319 b 301 -312 347 -319 325 -317 b 235 -292 276 -308 254 -301 l 257 -242 b 306 -257 273 -249 289 -254 b 357 -261 322 -260 339 -261 b 383 -258 364 -261 373 -260 b 413 -248 394 -256 403 -253 b 436 -228 422 -243 430 -236 b 446 -200 443 -221 446 -211 b 426 -159 446 -181 439 -168 b 371 -146 412 -150 394 -146 b 311 -157 350 -146 331 -150 l 286 -136 l 372 0 l 346 0 l 346 894 l 17 894 l 17 983 l 775 983 l 775 894 l 446 894 l 446 0 "},"ţ":{"ha":440,"x_min":0,"x_max":0,"o":"m 235 571 l 235 192 b 242 132 235 168 237 148 b 262 95 246 116 253 104 b 293 77 271 86 281 80 b 332 72 305 74 318 72 b 373 78 345 72 359 74 b 414 93 387 81 401 87 l 418 11 b 338 -7 395 2 368 -4 l 278 -104 b 326 -99 290 -100 306 -99 b 404 -124 354 -99 380 -107 b 440 -199 428 -140 440 -165 b 425 -257 440 -222 435 -241 b 386 -294 415 -273 402 -285 b 333 -314 370 -304 353 -310 b 276 -319 314 -318 295 -319 b 212 -312 258 -319 236 -317 b 146 -292 187 -308 165 -301 l 168 -242 b 217 -257 184 -249 200 -254 b 268 -261 233 -260 250 -261 b 294 -258 275 -261 284 -260 b 324 -248 305 -256 314 -253 b 347 -228 333 -243 341 -236 b 357 -200 354 -221 357 -211 b 337 -159 357 -181 350 -168 b 282 -146 323 -150 305 -146 b 222 -157 262 -146 242 -150 l 197 -136 l 279 -7 b 230 6 263 -5 246 -1 b 185 35 214 12 199 22 b 153 87 172 49 161 66 b 140 165 144 108 140 134 l 140 571 l 6 571 l 6 650 l 140 650 l 140 833 l 235 833 l 235 650 l 418 650 l 418 571 "},"Ť":{"ha":792,"x_min":0,"x_max":0,"o":"m 346 0 l 346 894 l 17 894 l 17 983 l 775 983 l 775 894 l 446 894 l 446 0 m 340 1061 l 189 1261 l 281 1261 l 396 1111 l 511 1261 l 603 1261 l 451 1061 "},"ť":{"ha":440,"x_min":0,"x_max":0,"o":"m 235 571 l 235 192 b 242 132 235 168 237 148 b 262 95 246 116 253 104 b 293 77 271 86 281 80 b 332 72 305 74 318 72 b 373 78 345 72 359 74 b 414 93 387 81 401 87 l 418 11 b 366 -3 401 5 384 0 b 307 -8 348 -7 328 -8 b 251 -1 289 -8 271 -6 b 197 25 232 3 214 12 b 156 78 181 38 167 56 b 140 165 146 100 140 129 l 140 571 l 6 571 l 6 650 l 140 650 l 140 833 l 235 833 l 235 650 l 418 650 l 418 571 m 313 758 l 399 1015 l 497 1015 l 392 758 "},"Ŧ":{"ha":792,"x_min":0,"x_max":0,"o":"m 346 894 l 17 894 l 17 983 l 775 983 l 775 894 l 446 894 l 446 754 l 676 754 l 676 685 l 446 685 l 446 0 l 346 0 l 346 685 l 101 685 l 101 754 l 346 754 "},"ŧ":{"ha":440,"x_min":0,"x_max":0,"o":"m 140 571 l 6 571 l 6 650 l 140 650 l 140 833 l 235 833 l 235 650 l 418 650 l 418 571 l 235 571 l 235 436 l 406 436 l 406 367 l 235 367 l 235 192 b 242 132 235 168 237 148 b 262 95 246 116 253 104 b 293 77 271 86 281 80 b 332 72 305 74 318 72 b 373 78 345 72 359 74 b 414 93 387 81 401 87 l 418 11 b 366 -3 401 5 384 0 b 307 -8 348 -7 328 -8 b 251 -1 289 -8 271 -6 b 197 25 232 3 214 12 b 156 78 181 38 167 56 b 140 165 146 100 140 129 l 140 367 l 17 367 l 17 436 l 140 436 "},"Ũ":{"ha":986,"x_min":0,"x_max":0,"o":"m 493 -25 b 311 13 419 -25 358 -12 b 199 110 264 39 226 71 b 141 237 171 149 152 191 b 125 367 130 283 125 326 l 125 983 l 225 983 l 225 378 b 239 262 225 338 230 299 b 284 162 248 224 263 191 b 367 91 305 133 332 109 b 493 64 401 73 443 64 b 619 91 543 64 585 73 b 702 162 654 109 681 133 b 747 262 723 191 738 224 b 761 378 756 299 761 338 l 761 983 l 861 983 l 861 367 b 845 237 861 326 856 283 b 788 110 834 191 815 149 b 674 13 760 71 722 39 b 493 -25 627 -12 566 -25 m 268 1078 b 281 1131 271 1095 275 1113 b 306 1177 287 1148 295 1164 b 342 1210 316 1191 328 1201 b 396 1222 357 1218 375 1222 b 447 1213 413 1222 429 1219 b 497 1190 464 1206 481 1199 b 546 1169 514 1183 530 1176 b 590 1158 562 1162 576 1158 b 637 1180 612 1158 627 1166 b 658 1228 647 1194 654 1210 l 718 1228 b 705 1174 715 1209 711 1191 b 681 1128 699 1157 691 1142 b 643 1096 670 1115 658 1104 b 590 1083 628 1088 611 1083 b 539 1093 574 1083 556 1087 b 489 1115 521 1100 505 1107 b 442 1138 473 1124 457 1131 b 396 1147 426 1144 411 1147 b 349 1126 375 1147 359 1140 b 328 1078 340 1111 332 1095 l 268 1078 "},"ũ":{"ha":807,"x_min":0,"x_max":0,"o":"m 597 0 b 593 58 595 18 594 37 b 592 111 592 80 592 97 l 589 111 b 499 19 570 73 540 42 b 367 -17 457 -5 413 -17 b 181 57 284 -17 222 8 b 119 251 140 106 119 171 l 119 650 l 214 650 l 214 290 b 222 197 214 256 217 225 b 251 126 228 169 237 146 b 305 79 264 106 282 90 b 390 63 328 68 356 63 b 463 78 415 63 440 68 b 526 124 487 88 508 103 b 571 203 545 145 560 172 b 588 317 582 235 588 273 l 588 650 l 682 650 l 682 143 b 683 75 682 125 682 103 b 688 0 684 47 686 22 l 597 0 m 179 800 b 192 853 182 818 186 835 b 217 899 198 870 206 886 b 253 932 227 913 239 924 b 307 944 268 940 286 944 b 358 935 324 944 341 941 b 408 913 375 928 392 921 b 457 891 425 905 441 898 b 501 881 473 884 488 881 b 548 902 523 881 538 888 b 569 950 558 916 565 932 l 629 950 b 616 897 626 931 622 914 b 592 851 610 879 602 864 b 554 818 581 837 569 826 b 501 806 539 810 522 806 b 450 815 485 806 468 809 b 400 838 432 822 416 829 b 353 860 384 846 369 853 b 307 869 337 866 322 869 b 260 848 286 869 270 862 b 239 800 251 834 244 818 l 179 800 "},"Ū":{"ha":986,"x_min":0,"x_max":0,"o":"m 493 -25 b 311 13 419 -25 358 -12 b 199 110 264 39 226 71 b 141 237 171 149 152 191 b 125 367 130 283 125 326 l 125 983 l 225 983 l 225 378 b 239 262 225 338 230 299 b 284 162 248 224 263 191 b 367 91 305 133 332 109 b 493 64 401 73 443 64 b 619 91 543 64 585 73 b 702 162 654 109 681 133 b 747 262 723 191 738 224 b 761 378 756 299 761 338 l 761 983 l 861 983 l 861 367 b 845 237 861 326 856 283 b 788 110 834 191 815 149 b 674 13 760 71 722 39 b 493 -25 627 -12 566 -25 m 307 1111 l 307 1186 l 682 1186 l 682 1111 "},"ū":{"ha":807,"x_min":0,"x_max":0,"o":"m 597 0 b 593 58 595 18 594 37 b 592 111 592 80 592 97 l 589 111 b 499 19 570 73 540 42 b 367 -17 457 -5 413 -17 b 181 57 284 -17 222 8 b 119 251 140 106 119 171 l 119 650 l 214 650 l 214 290 b 222 197 214 256 217 225 b 251 126 228 169 237 146 b 305 79 264 106 282 90 b 390 63 328 68 356 63 b 463 78 415 63 440 68 b 526 124 487 88 508 103 b 571 203 545 145 560 172 b 588 317 582 235 588 273 l 588 650 l 682 650 l 682 143 b 683 75 682 125 682 103 b 688 0 684 47 686 22 l 597 0 m 215 833 l 215 908 l 590 908 l 590 833 "},"Ŭ":{"ha":986,"x_min":0,"x_max":0,"o":"m 493 -25 b 311 13 419 -25 358 -12 b 199 110 264 39 226 71 b 141 237 171 149 152 191 b 125 367 130 283 125 326 l 125 983 l 225 983 l 225 378 b 239 262 225 338 230 299 b 284 162 248 224 263 191 b 367 91 305 133 332 109 b 493 64 401 73 443 64 b 619 91 543 64 585 73 b 702 162 654 109 681 133 b 747 262 723 191 738 224 b 761 378 756 299 761 338 l 761 983 l 861 983 l 861 367 b 845 237 861 326 856 283 b 788 110 834 191 815 149 b 674 13 760 71 722 39 b 493 -25 627 -12 566 -25 m 697 1261 b 635 1126 694 1203 673 1158 b 493 1078 598 1094 550 1078 b 351 1126 436 1078 388 1094 b 289 1261 313 1158 293 1203 l 350 1261 b 400 1180 356 1225 373 1198 b 493 1153 427 1162 458 1153 b 586 1180 528 1153 559 1162 b 636 1261 613 1198 630 1225 l 697 1261 "},"ŭ":{"ha":807,"x_min":0,"x_max":0,"o":"m 597 0 b 593 58 595 18 594 37 b 592 111 592 80 592 97 l 589 111 b 499 19 570 73 540 42 b 367 -17 457 -5 413 -17 b 181 57 284 -17 222 8 b 119 251 140 106 119 171 l 119 650 l 214 650 l 214 290 b 222 197 214 256 217 225 b 251 126 228 169 237 146 b 305 79 264 106 282 90 b 390 63 328 68 356 63 b 463 78 415 63 440 68 b 526 124 487 88 508 103 b 571 203 545 145 560 172 b 588 317 582 235 588 273 l 588 650 l 682 650 l 682 143 b 683 75 682 125 682 103 b 688 0 684 47 686 22 l 597 0 m 610 983 b 548 848 606 925 585 880 b 406 800 510 816 463 800 b 263 848 348 800 301 816 b 201 983 226 880 205 925 l 263 983 b 313 902 269 947 286 920 b 406 875 339 884 370 875 b 499 902 441 875 472 884 b 549 983 525 920 542 947 l 610 983 "},"Ů":{"ha":986,"x_min":0,"x_max":0,"o":"m 493 -25 b 311 13 419 -25 358 -12 b 199 110 264 39 226 71 b 141 237 171 149 152 191 b 125 367 130 283 125 326 l 125 983 l 225 983 l 225 378 b 239 262 225 338 230 299 b 284 162 248 224 263 191 b 367 91 305 133 332 109 b 493 64 401 73 443 64 b 619 91 543 64 585 73 b 702 162 654 109 681 133 b 747 262 723 191 738 224 b 761 378 756 299 761 338 l 761 983 l 861 983 l 861 367 b 845 237 861 326 856 283 b 788 110 834 191 815 149 b 674 13 760 71 722 39 b 493 -25 627 -12 566 -25 m 629 1181 b 619 1128 629 1162 626 1145 b 590 1086 612 1112 602 1098 b 547 1058 577 1074 563 1065 b 496 1049 530 1052 513 1049 b 444 1058 477 1049 460 1052 b 402 1086 429 1065 415 1074 b 373 1128 390 1098 380 1112 b 363 1181 366 1145 363 1162 b 373 1233 363 1199 366 1216 b 402 1274 380 1249 390 1263 b 444 1302 415 1286 429 1295 b 496 1313 460 1309 477 1313 b 547 1302 513 1313 530 1309 b 590 1274 563 1295 577 1286 b 619 1233 602 1263 612 1249 b 629 1181 626 1216 629 1199 m 579 1181 b 555 1239 579 1204 571 1223 b 496 1263 539 1255 519 1263 b 437 1239 473 1263 453 1255 b 413 1181 421 1223 413 1204 b 437 1122 413 1157 421 1138 b 496 1099 453 1106 473 1099 b 555 1122 519 1099 539 1106 b 579 1181 571 1138 579 1157 "},"ů":{"ha":807,"x_min":0,"x_max":0,"o":"m 597 0 b 593 58 595 18 594 37 b 592 111 592 80 592 97 l 589 111 b 499 19 570 73 540 42 b 367 -17 457 -5 413 -17 b 181 57 284 -17 222 8 b 119 251 140 106 119 171 l 119 650 l 214 650 l 214 290 b 222 197 214 256 217 225 b 251 126 228 169 237 146 b 305 79 264 106 282 90 b 390 63 328 68 356 63 b 463 78 415 63 440 68 b 526 124 487 88 508 103 b 571 203 545 145 560 172 b 588 317 582 235 588 273 l 588 650 l 682 650 l 682 143 b 683 75 682 125 682 103 b 688 0 684 47 686 22 l 597 0 m 536 903 b 526 851 536 884 533 867 b 497 808 519 834 509 820 b 453 781 484 796 470 787 b 403 771 437 774 420 771 b 351 781 384 771 367 774 b 309 808 336 787 322 796 b 280 851 297 820 287 834 b 269 903 273 867 269 884 b 280 955 269 921 273 939 b 309 997 287 971 297 985 b 351 1024 322 1008 336 1017 b 403 1035 367 1031 384 1035 b 453 1024 420 1035 437 1031 b 497 997 470 1017 484 1008 b 526 955 509 985 519 971 b 536 903 533 939 536 921 m 486 903 b 462 961 486 926 478 945 b 403 985 446 977 426 985 b 344 961 380 985 360 977 b 319 903 328 945 319 926 b 344 844 319 880 328 860 b 403 821 360 829 380 821 b 462 844 426 821 446 829 b 486 903 478 860 486 880 "},"Ű":{"ha":986,"x_min":0,"x_max":0,"o":"m 493 -25 b 311 13 419 -25 358 -12 b 199 110 264 39 226 71 b 141 237 171 149 152 191 b 125 367 130 283 125 326 l 125 983 l 225 983 l 225 378 b 239 262 225 338 230 299 b 284 162 248 224 263 191 b 367 91 305 133 332 109 b 493 64 401 73 443 64 b 619 91 543 64 585 73 b 702 162 654 109 681 133 b 747 262 723 191 738 224 b 761 378 756 299 761 338 l 761 983 l 861 983 l 861 367 b 845 237 861 326 856 283 b 788 110 834 191 815 149 b 674 13 760 71 722 39 b 493 -25 627 -12 566 -25 m 324 1061 l 464 1261 l 590 1261 l 406 1061 m 561 1061 l 700 1261 l 826 1261 l 643 1061 "},"ű":{"ha":807,"x_min":0,"x_max":0,"o":"m 597 0 b 593 58 595 18 594 37 b 592 111 592 80 592 97 l 589 111 b 499 19 570 73 540 42 b 367 -17 457 -5 413 -17 b 181 57 284 -17 222 8 b 119 251 140 106 119 171 l 119 650 l 214 650 l 214 290 b 222 197 214 256 217 225 b 251 126 228 169 237 146 b 305 79 264 106 282 90 b 390 63 328 68 356 63 b 463 78 415 63 440 68 b 526 124 487 88 508 103 b 571 203 545 145 560 172 b 588 317 582 235 588 273 l 588 650 l 682 650 l 682 143 b 683 75 682 125 682 103 b 688 0 684 47 686 22 l 597 0 m 236 783 l 376 983 l 503 983 l 318 783 m 474 783 l 613 983 l 739 983 l 556 783 "},"Ų":{"ha":986,"x_min":0,"x_max":0,"o":"m 493 -25 b 311 13 419 -25 358 -12 b 199 110 264 39 226 71 b 141 237 171 149 152 191 b 125 367 130 283 125 326 l 125 983 l 225 983 l 225 378 b 239 262 225 338 230 299 b 284 162 248 224 263 191 b 367 91 305 133 332 109 b 493 64 401 73 443 64 b 619 91 543 64 585 73 b 702 162 654 109 681 133 b 747 262 723 191 738 224 b 761 378 756 299 761 338 l 761 983 l 861 983 l 861 367 b 849 250 861 330 857 291 b 803 134 840 209 825 171 b 716 38 782 97 753 65 b 578 -18 679 10 633 -9 b 512 -97 549 -48 527 -74 b 489 -168 497 -119 489 -143 b 510 -216 489 -187 496 -203 b 558 -235 524 -228 540 -235 b 597 -227 571 -235 584 -232 b 629 -204 609 -222 620 -214 l 656 -260 b 599 -297 640 -275 621 -288 b 531 -310 576 -305 554 -310 b 483 -301 514 -310 498 -307 b 444 -277 469 -296 455 -288 b 416 -240 432 -266 423 -254 b 406 -192 409 -225 406 -209 b 435 -100 406 -159 415 -129 b 500 -25 454 -71 476 -46 l 493 -25 l 493 -25 "},"ų":{"ha":807,"x_min":0,"x_max":0,"o":"m 725 -260 b 668 -297 709 -275 690 -288 b 600 -310 646 -305 623 -310 b 553 -301 583 -310 568 -307 b 513 -277 538 -296 525 -288 b 485 -240 502 -266 492 -254 b 475 -192 478 -225 475 -209 b 486 -135 475 -172 479 -153 b 515 -84 494 -117 503 -100 b 556 -38 527 -68 541 -53 b 599 0 570 -24 585 -11 l 597 0 b 593 58 595 18 594 37 b 592 111 592 80 592 97 l 589 111 b 499 19 570 73 540 42 b 367 -17 457 -5 413 -17 b 181 57 284 -17 222 8 b 119 251 140 106 119 171 l 119 650 l 214 650 l 214 290 b 222 197 214 256 217 225 b 251 126 228 169 237 146 b 305 79 264 106 282 90 b 390 63 328 68 356 63 b 463 78 415 63 440 68 b 526 124 487 88 508 103 b 571 203 545 145 560 172 b 588 317 582 235 588 273 l 588 650 l 682 650 l 682 143 b 683 75 682 125 682 103 b 688 0 684 47 686 22 l 665 0 b 586 -90 631 -34 605 -64 b 558 -168 568 -115 558 -141 b 579 -216 558 -187 565 -203 b 628 -235 593 -228 609 -235 b 666 -227 641 -235 653 -232 b 699 -204 678 -222 689 -214 l 725 -260 "},"Ŵ":{"ha":1350,"x_min":0,"x_max":0,"o":"m 371 138 l 617 983 l 736 983 l 982 138 l 985 138 l 1225 983 l 1331 983 l 1040 0 l 924 0 l 676 844 l 674 844 l 426 0 l 310 0 l 19 983 l 125 983 l 368 138 m 790 1061 l 675 1211 l 560 1061 l 468 1061 l 619 1261 l 731 1261 l 882 1061 "},"ŵ":{"ha":1036,"x_min":0,"x_max":0,"o":"m 294 122 l 297 122 l 472 650 l 564 650 l 742 122 l 744 122 l 900 650 l 1000 650 l 794 0 l 692 0 l 518 526 l 515 526 l 344 0 l 242 0 l 36 650 l 138 650 m 632 783 l 517 933 l 401 783 l 310 783 l 461 983 l 572 983 l 724 783 "},"Ŷ":{"ha":836,"x_min":0,"x_max":0,"o":"m 368 0 l 368 424 l 0 983 l 125 983 l 421 507 l 719 983 l 836 983 l 468 424 l 468 0 m 536 1061 l 421 1211 l 306 1061 l 214 1061 l 365 1261 l 476 1261 l 628 1061 "},"ŷ":{"ha":678,"x_min":0,"x_max":0,"o":"m 351 101 l 553 650 l 656 650 l 332 -168 b 258 -288 313 -218 288 -258 b 128 -333 228 -318 184 -333 b 43 -325 99 -333 71 -331 l 53 -239 b 122 -250 75 -246 98 -250 b 199 -220 155 -250 180 -240 b 247 -135 217 -200 233 -172 l 300 1 l 22 650 l 128 650 l 349 101 m 465 783 l 350 933 l 235 783 l 143 783 l 294 983 l 406 983 l 557 783 "},"Ź":{"ha":794,"x_min":0,"x_max":0,"o":"m 169 89 l 751 89 l 751 0 l 43 0 l 43 83 l 618 894 l 58 894 l 58 983 l 743 983 l 743 900 m 333 1061 l 472 1261 l 599 1261 l 415 1061 "},"ź":{"ha":614,"x_min":0,"x_max":0,"o":"m 168 82 l 571 82 l 571 0 l 43 0 l 43 67 l 431 571 l 63 571 l 63 650 l 557 650 l 557 583 m 253 783 l 392 983 l 518 983 l 335 783 "},"Ż":{"ha":794,"x_min":0,"x_max":0,"o":"m 169 89 l 751 89 l 751 0 l 43 0 l 43 83 l 618 894 l 58 894 l 58 983 l 743 983 l 743 900 m 463 1178 b 442 1130 463 1158 456 1142 b 396 1111 428 1117 413 1111 b 350 1130 379 1111 364 1117 b 329 1178 336 1142 329 1158 b 350 1226 329 1197 336 1213 b 396 1244 364 1238 379 1244 b 442 1226 413 1244 428 1238 b 463 1178 456 1213 463 1197 "},"ż":{"ha":614,"x_min":0,"x_max":0,"o":"m 168 82 l 571 82 l 571 0 l 43 0 l 43 67 l 431 571 l 63 571 l 63 650 l 557 650 l 557 583 m 375 900 b 354 852 375 881 368 865 b 308 833 340 840 325 833 b 263 852 292 833 276 840 b 242 900 249 865 242 881 b 263 948 242 919 249 935 b 308 967 276 960 292 967 b 354 948 325 967 340 960 b 375 900 368 935 375 919 "},"ƒ":{"ha":806,"x_min":0,"x_max":0,"o":"m 449 507 l 356 18 b 335 -57 351 -7 344 -32 b 297 -125 325 -82 313 -105 b 234 -174 280 -145 259 -162 b 140 -193 209 -187 177 -193 b 83 -188 120 -193 101 -191 b 32 -168 66 -185 49 -178 l 69 -92 b 143 -110 92 -104 116 -110 b 196 -97 164 -110 182 -105 b 230 -62 210 -88 221 -76 b 251 -15 239 -49 246 -33 b 263 38 256 2 260 20 l 350 507 l 200 507 l 200 582 l 365 582 l 403 782 b 425 864 408 811 416 838 b 464 933 434 890 447 913 b 525 982 481 954 501 970 b 614 1000 549 994 579 1000 b 684 990 638 1000 661 997 b 746 960 707 983 727 973 l 699 893 b 660 911 687 901 674 907 b 619 917 647 915 633 917 b 563 900 596 917 577 911 b 526 858 548 889 536 875 b 506 806 517 842 510 824 b 494 756 501 787 497 770 l 464 582 l 614 582 l 614 507 "},"Ș":{"ha":783,"x_min":0,"x_max":0,"o":"m 607 825 b 525 897 586 855 558 878 b 404 924 492 915 451 924 b 331 913 380 924 356 920 b 263 878 306 905 283 894 b 213 821 242 863 226 844 b 194 739 201 798 194 770 b 213 661 194 707 200 681 b 260 609 225 641 241 623 b 328 574 280 595 303 583 b 408 546 354 564 381 555 b 512 510 443 535 477 523 b 606 459 547 497 578 480 b 674 380 633 438 656 412 b 700 258 691 348 700 307 b 672 131 700 209 691 167 b 598 43 653 96 628 66 b 495 -8 568 20 534 3 b 379 -25 457 -19 418 -25 b 290 -16 350 -25 320 -22 b 206 11 261 -10 232 -1 b 131 57 179 23 154 38 b 69 121 107 75 87 97 l 156 185 b 245 97 177 150 207 120 b 381 61 284 73 329 61 b 457 73 406 61 431 65 b 527 109 483 81 506 93 b 578 169 548 125 565 145 b 599 251 592 192 599 220 b 578 337 599 286 592 314 b 525 394 565 359 547 378 b 449 432 503 409 477 422 b 358 463 420 442 390 452 b 263 497 326 473 294 484 b 178 548 231 510 203 527 b 117 625 153 569 133 594 b 94 738 102 656 94 693 b 123 860 94 785 104 825 b 197 944 142 894 167 922 b 299 993 228 967 262 983 b 408 1008 336 1003 372 1008 b 579 973 475 1008 532 997 b 686 889 626 949 662 921 l 607 825 m 285 -319 l 371 -62 l 469 -62 l 364 -319 "},"ș":{"ha":617,"x_min":0,"x_max":0,"o":"m 471 496 b 408 562 457 523 436 545 b 311 588 379 579 347 588 b 261 582 294 588 278 586 b 217 564 244 578 230 572 b 185 532 204 556 193 545 b 174 486 178 519 174 504 b 211 416 174 456 186 432 b 329 375 236 400 275 386 b 499 306 406 359 463 336 b 554 185 536 276 554 236 b 533 91 554 148 547 116 b 476 28 518 66 500 45 b 398 -6 453 12 427 1 b 310 -17 369 -13 339 -17 b 167 14 261 -17 213 -6 b 53 110 120 34 82 66 l 128 165 b 201 93 144 137 169 113 b 308 64 234 74 269 64 b 367 69 329 64 348 66 b 415 89 385 73 401 80 b 449 124 429 98 440 110 b 461 178 457 139 461 156 b 412 255 461 212 445 238 b 269 303 379 272 331 288 b 208 320 250 307 229 313 b 147 351 186 327 166 337 b 101 401 129 364 113 381 b 83 478 89 422 83 447 b 103 563 83 511 90 540 b 155 622 116 587 133 606 b 229 656 177 637 201 648 b 315 667 257 663 286 667 b 447 636 361 667 405 656 b 543 550 490 616 522 587 l 471 496 m 194 -319 l 281 -62 l 379 -62 l 274 -319 "},"Ț":{"ha":792,"x_min":0,"x_max":0,"o":"m 346 0 l 346 894 l 17 894 l 17 983 l 775 983 l 775 894 l 446 894 l 446 0 m 285 -319 l 371 -62 l 469 -62 l 364 -319 "},"ț":{"ha":440,"x_min":0,"x_max":0,"o":"m 235 571 l 235 192 b 242 132 235 168 237 148 b 262 95 246 116 253 104 b 293 77 271 86 281 80 b 332 72 305 74 318 72 b 373 78 345 72 359 74 b 414 93 387 81 401 87 l 418 11 b 366 -3 401 5 384 0 b 307 -8 348 -7 328 -8 b 251 -1 289 -8 271 -6 b 197 25 232 3 214 12 b 156 78 181 38 167 56 b 140 165 146 100 140 129 l 140 571 l 6 571 l 6 650 l 140 650 l 140 833 l 235 833 l 235 650 l 418 650 l 418 571 m 163 -319 l 249 -62 l 347 -62 l 242 -319 "},"ˆ":{"ha":333,"x_min":0,"x_max":0,"o":"m 282 783 l 167 933 l 51 783 l -40 783 l 111 983 l 222 983 l 374 783 "},"ˇ":{"ha":333,"x_min":0,"x_max":0,"o":"m 111 783 l -40 983 l 51 983 l 167 833 l 282 983 l 374 983 l 222 783 "},"ˉ":{"ha":333,"x_min":0,"x_max":0,"o":"m -21 1111 l -21 1186 l 354 1186 l 354 1111 "},"˘":{"ha":333,"x_min":0,"x_max":0,"o":"m 371 983 b 309 848 367 925 347 880 b 167 800 272 816 224 800 b 24 848 109 800 62 816 b -37 983 -13 880 -34 925 l 24 983 b 74 902 30 947 47 920 b 167 875 100 884 131 875 b 260 902 202 875 233 884 b 310 983 287 920 303 947 l 371 983 "},"˙":{"ha":333,"x_min":0,"x_max":0,"o":"m 233 900 b 213 852 233 881 226 865 b 167 833 199 840 183 833 b 121 852 150 833 135 840 b 100 900 107 865 100 881 b 121 948 100 919 107 935 b 167 967 135 960 150 967 b 213 948 183 967 199 960 b 233 900 226 935 233 919 "},"˚":{"ha":333,"x_min":0,"x_max":0,"o":"m 300 903 b 290 851 300 884 297 867 b 260 808 283 834 273 820 b 217 781 248 796 234 787 b 167 771 201 774 184 771 b 115 781 148 771 131 774 b 73 808 100 787 85 796 b 44 851 60 820 51 834 b 33 903 37 867 33 884 b 44 955 33 921 37 939 b 73 997 51 971 60 985 b 115 1024 85 1008 100 1017 b 167 1035 131 1031 148 1035 b 217 1024 184 1035 201 1031 b 260 997 234 1017 248 1008 b 290 955 273 985 283 971 b 300 903 297 939 300 921 m 250 903 b 226 961 250 926 242 945 b 167 985 209 977 190 985 b 108 961 144 985 124 977 b 83 903 91 945 83 926 b 108 844 83 880 91 860 b 167 821 124 829 144 821 b 226 844 190 821 209 829 b 250 903 242 860 250 880 "},"˛":{"ha":333,"x_min":0,"x_max":0,"o":"m 292 -260 b 235 -297 276 -275 257 -288 b 167 -310 213 -305 190 -310 b 119 -301 150 -310 134 -307 b 80 -277 105 -296 91 -288 b 52 -240 68 -266 59 -254 b 42 -192 45 -225 42 -209 b 53 -135 42 -172 45 -153 b 82 -84 60 -117 70 -100 b 122 -38 94 -68 107 -53 b 165 0 137 -24 151 -11 l 232 0 b 153 -90 198 -34 171 -64 b 125 -168 134 -115 125 -141 b 146 -216 125 -187 132 -203 b 194 -235 160 -228 176 -235 b 233 -227 207 -235 220 -232 b 265 -204 245 -222 256 -214 l 292 -260 "},"˜":{"ha":333,"x_min":0,"x_max":0,"o":"m -58 800 b -45 853 -56 818 -51 835 b -21 899 -39 870 -31 886 b 16 932 -11 913 2 924 b 69 944 30 940 48 944 b 120 935 86 944 103 941 b 171 913 137 928 154 921 b 219 891 188 905 204 898 b 264 881 235 884 250 881 b 310 902 285 881 301 888 b 332 950 320 916 327 932 l 392 950 b 378 897 389 931 384 914 b 354 851 372 879 364 864 b 317 818 344 837 331 826 b 264 806 302 810 284 806 b 213 815 247 806 230 809 b 163 838 195 822 178 829 b 115 860 147 846 131 853 b 69 869 100 866 84 869 b 23 848 48 869 33 862 b 1 800 13 834 6 818 l -58 800 "},"˝":{"ha":333,"x_min":0,"x_max":0,"o":"m -85 783 l 56 983 l 182 983 l -3 783 m 153 783 l 292 983 l 418 983 l 235 783 "},"–":{"ha":556,"x_min":0,"x_max":0,"o":"m 42 297 l 42 376 l 514 376 l 514 297 "},"—":{"ha":833,"x_min":0,"x_max":0,"o":"m 42 297 l 42 376 l 792 376 l 792 297 "},"‘":{"ha":308,"x_min":0,"x_max":0,"o":"m 250 983 l 157 657 l 58 657 l 171 983 "},"’":{"ha":308,"x_min":0,"x_max":0,"o":"m 58 657 l 151 983 l 250 983 l 138 657 "},"‚":{"ha":308,"x_min":0,"x_max":0,"o":"m 58 -194 l 151 132 l 250 132 l 138 -194 "},"“":{"ha":538,"x_min":0,"x_max":0,"o":"m 250 983 l 157 657 l 58 657 l 171 983 m 479 983 l 386 657 l 288 657 l 400 983 "},"”":{"ha":538,"x_min":0,"x_max":0,"o":"m 288 657 l 381 983 l 479 983 l 367 657 m 58 657 l 151 983 l 250 983 l 138 657 "},"„":{"ha":538,"x_min":0,"x_max":0,"o":"m 288 -194 l 381 132 l 479 132 l 367 -194 m 58 -194 l 151 132 l 250 132 l 138 -194 "}}}
